<svg id="Icon_-_Instagram" data-name="Icon - Instagram" xmlns="http://www.w3.org/2000/svg" width="24.399" height="24.4" viewBox="0 0 24.399 24.4">
  <g id="Group_10428" data-name="Group 10428">
    <g id="Group_10427" data-name="Group 10427">
      <path id="Path_14942" data-name="Path 14942" d="M18.3,0H6.1A6.118,6.118,0,0,0,0,6.1V18.3a6.119,6.119,0,0,0,6.1,6.1H18.3a6.119,6.119,0,0,0,6.1-6.1V6.1A6.118,6.118,0,0,0,18.3,0Zm4.066,18.3A4.071,4.071,0,0,1,18.3,22.367H6.1A4.072,4.072,0,0,1,2.038,18.3V6.1A4.071,4.071,0,0,1,6.1,2.033H18.3A4.071,4.071,0,0,1,22.371,6.1V18.3Z" transform="translate(-0.005)" fill="#fff"/>
    </g>
  </g>
  <g id="Group_10430" data-name="Group 10430" transform="translate(17.284 4.066)">
    <g id="Group_10429" data-name="Group 10429">
      <ellipse id="Ellipse_512" data-name="Ellipse 512" cx="1.525" cy="1.525" rx="1.525" ry="1.525" fill="#fff"/>
    </g>
  </g>
  <g id="Group_10432" data-name="Group 10432" transform="translate(6.1 6.1)">
    <g id="Group_10431" data-name="Group 10431">
      <path id="Path_14943" data-name="Path 14943" d="M108.5,102.4a6.1,6.1,0,1,0,6.1,6.1A6.1,6.1,0,0,0,108.5,102.4Zm0,10.167a4.067,4.067,0,1,1,4.066-4.067A4.067,4.067,0,0,1,108.5,112.567Z" transform="translate(-102.405 -102.4)" fill="#fff"/>
    </g>
  </g>
</svg>
