<svg id="Icon_-_Linkedin" data-name="Icon - Linkedin" xmlns="http://www.w3.org/2000/svg" width="24.188" height="24.188" viewBox="0 0 24.188 24.188">
  <path id="Path_14939" data-name="Path 14939" d="M53.931,51.838V42.98c0-4.354-.937-7.68-6.017-7.68a5.25,5.25,0,0,0-4.747,2.6h-.06V35.693H38.3V51.838h5.019V43.826c0-2.116.393-4.142,2.993-4.142,2.57,0,2.6,2.389,2.6,4.263v7.861h5.019Z" transform="translate(-29.744 -27.651)" fill="#fff"/>
  <path id="Path_14940" data-name="Path 14940" d="M11.3,36.6h5.019V52.745H11.3Z" transform="translate(-10.907 -28.558)" fill="#fff"/>
  <path id="Path_14941" data-name="Path 14941" d="M12.9,10a2.918,2.918,0,1,0,2.9,2.9A2.9,2.9,0,0,0,12.9,10Z" transform="translate(-10 -10)" fill="#fff"/>
</svg>
