<svg xmlns="http://www.w3.org/2000/svg" width="29.985" height="24.4" viewBox="0 0 29.985 24.4">
  <path id="Icon_-_Twitter" data-name="Icon - Twitter" d="M39.885,20.386a12.61,12.61,0,0,1-3.523.975,6,6,0,0,0,2.7-3.411,12.945,12.945,0,0,1-3.9,1.5,6.152,6.152,0,0,0-10.645,4.2,5.62,5.62,0,0,0,.15,1.387,17.3,17.3,0,0,1-12.631-6.409,6.168,6.168,0,0,0,1.874,8.208,5.9,5.9,0,0,1-2.774-.75,6.212,6.212,0,0,0,4.91,6.109,6.746,6.746,0,0,1-2.774.112,6.172,6.172,0,0,0,5.735,4.273A12.384,12.384,0,0,1,9.9,39.126,17.34,17.34,0,0,0,19.345,41.9c11.319,0,17.466-9.37,17.466-17.466a5.536,5.536,0,0,0-.037-.787,12.2,12.2,0,0,0,3.111-3.261Z" transform="translate(-9.9 -17.5)" fill="#fff"/>
</svg>
