<svg id="Vector_-_dummy_1" data-name="Vector - dummy 1" xmlns="http://www.w3.org/2000/svg" width="239.866" height="109.925" viewBox="0 0 239.866 109.925">
  <g id="Background" transform="translate(0 93.446)">
    <rect id="Rectangle_1147" data-name="Rectangle 1147" width="239.866" height="2.934" fill="#ead6ce"/>
  </g>
  <g id="Layer_3" data-name="Layer 3" transform="translate(23.023)">
    <ellipse id="Ellipse_519" data-name="Ellipse 519" cx="97.995" cy="3.753" rx="97.995" ry="3.753" transform="translate(3.044 102.419)" fill="#030504" opacity="0.1"/>
    <path id="Path_15003" data-name="Path 15003" d="M622.48,1932.651c0,.2-.65.4-1.889.587-1.273.194-3.167.382-5.615.561l-.393.028c-2.3.162-5.059.318-8.23.463-2.691.124-5.679.24-8.93.349-17.148.575-41.644.936-68.841.936-27.33,0-51.934-.363-69.093-.944-3.255-.11-6.243-.228-8.93-.353-3.182-.147-5.943-.3-8.23-.47l-.393-.028-.765-.059c-4.187-.331-6.487-.692-6.487-1.07s2.314-.74,6.526-1.073l.589-.045.389-.029c2.262-.165,5-.322,8.152-.47,2.661-.124,5.621-.242,8.848-.352,17.172-.586,41.9-.954,69.395-.954,27.357,0,51.982.364,69.144.945,3.223.109,6.182.226,8.848.349,3.144.146,5.879.3,8.152.463l.388.028c2.367.175,4.206.358,5.454.547S622.48,1932.449,622.48,1932.651Z" transform="translate(-431.641 -1826.544)" fill="#fff"/>
    <rect id="Rectangle_1148" data-name="Rectangle 1148" width="187.795" height="4.281" transform="translate(3.044 101.826)" fill="#fff"/>
    <path id="Path_15004" data-name="Path 15004" d="M622.483,1861.263c0,.2-.65.4-1.889.586-8.72,1.333-46.6,2.337-92.008,2.337-39.729,0-73.7-.768-87.411-1.854-4.187-.331-6.487-.692-6.487-1.07s2.314-.741,6.526-1.073c13.74-1.084,47.68-1.851,87.372-1.851,45.371,0,83.226,1,91.987,2.334C621.825,1860.864,622.483,1861.06,622.483,1861.263Z" transform="translate(-431.644 -1759.436)" fill="#dfdfde"/>
    <ellipse id="Ellipse_520" data-name="Ellipse 520" cx="17.815" cy="0.574" rx="17.815" ry="0.574" transform="translate(142.852 100.023)" fill="#030504" opacity="0.1"/>
    <g id="Group_10566" data-name="Group 10566" transform="translate(131.062 38.623)">
      <circle id="Ellipse_521" data-name="Ellipse 521" cx="30.916" cy="30.916" r="30.916" fill="#224454"/>
      <circle id="Ellipse_522" data-name="Ellipse 522" cx="26.841" cy="26.841" r="26.841" transform="translate(4.075 4.075)" fill="#1f3c4a"/>
      <circle id="Ellipse_523" data-name="Ellipse 523" cx="26.079" cy="26.079" r="26.079" transform="translate(4.837 4.837)" fill="#dfa323"/>
      <circle id="Ellipse_524" data-name="Ellipse 524" cx="25.038" cy="25.038" r="25.038" transform="translate(5.878 5.878)" fill="#ffbf28"/>
      <circle id="Ellipse_525" data-name="Ellipse 525" cx="12.38" cy="12.38" r="12.38" transform="translate(13.408 30.916) rotate(-45)" fill="#fcdeb1"/>
      <circle id="Ellipse_526" data-name="Ellipse 526" cx="7.576" cy="7.576" r="7.576" transform="translate(23.34 23.34)" fill="#ffb937"/>
      <path id="Path_15005" data-name="Path 15005" d="M3062.186,1068.278a2.018,2.018,0,0,0-3.6-1.652l10.454-18.029Z" transform="translate(-3029.258 -1036.874)" fill="#c33321"/>
      <path id="Path_15006" data-name="Path 15006" d="M2947.777,1362.486l-10.56,18.257,6.958-19.91a2.018,2.018,0,0,0,3.6,1.653Z" transform="translate(-2915.167 -1330.387)" fill="#224454"/>
      <path id="Path_15007" data-name="Path 15007" d="M3055.461,1337.04l-.036.38a2.018,2.018,0,0,1-3.963,0l-.036-.38.037-.385a2.017,2.017,0,0,1,3.961,0Z" transform="translate(-3022.527 -1306.123)" fill="#f5dfb5"/>
      <path id="Path_15008" data-name="Path 15008" d="M3055.461,1337.04a2.018,2.018,0,1,1-.037-.385A2.012,2.012,0,0,1,3055.461,1337.04Z" transform="translate(-3022.527 -1306.123)" fill="#f1f1f2"/>
      <path id="Path_15009" data-name="Path 15009" d="M3068.876,1351.369a1.1,1.1,0,1,1-.02-.211A1.089,1.089,0,0,1,3068.876,1351.369Z" transform="translate(-3036.857 -1320.453)" fill="#747682"/>
      <g id="Group_10559" data-name="Group 10559" transform="translate(29.404 8.995)">
        <g id="Group_10558" data-name="Group 10558">
          <path id="Path_15010" data-name="Path 15010" d="M3059.85,1006.864v-3.746h.989l.778,1.373a10.856,10.856,0,0,1,.611,1.284h.017a13.885,13.885,0,0,1-.072-1.562v-1.095h.778v3.746h-.889l-.8-1.445a14.012,14.012,0,0,1-.65-1.323l-.016.006c.022.495.033,1.023.033,1.634v1.128Z" transform="translate(-3059.85 -1003.118)" fill="#fcdeb1"/>
        </g>
      </g>
      <g id="Group_10561" data-name="Group 10561" transform="translate(29.605 48.766)">
        <g id="Group_10560" data-name="Group 10560">
          <path id="Path_15011" data-name="Path 15011" d="M3063.372,1669.27a2.164,2.164,0,0,0,.939.233c.389,0,.595-.161.595-.406s-.178-.367-.628-.528c-.623-.217-1.028-.562-1.028-1.106,0-.639.533-1.128,1.417-1.128a2.3,2.3,0,0,1,.957.189l-.189.684a1.778,1.778,0,0,0-.783-.178c-.367,0-.545.167-.545.361,0,.239.211.345.695.528.661.245.973.589.973,1.117,0,.628-.483,1.162-1.512,1.162a2.448,2.448,0,0,1-1.062-.228Z" transform="translate(-3063.2 -1666.335)" fill="#fcdeb1"/>
        </g>
      </g>
      <g id="Group_10563" data-name="Group 10563" transform="translate(9.346 29.306)">
        <g id="Group_10562" data-name="Group 10562">
          <path id="Path_15012" data-name="Path 15012" d="M2726.252,1345.565l-.889-3.746h.906l.284,1.545c.083.445.161.928.222,1.306h.011c.061-.406.15-.856.245-1.317l.317-1.534h.9l.3,1.579c.083.439.145.839.2,1.256h.011c.056-.417.139-.856.217-1.3l.306-1.534h.861l-.967,3.746h-.917l-.317-1.612c-.072-.378-.133-.728-.178-1.156h-.011c-.067.422-.128.778-.217,1.156l-.355,1.612Z" transform="translate(-2725.362 -1341.819)" fill="#fcdeb1"/>
        </g>
      </g>
      <g id="Group_10565" data-name="Group 10565" transform="translate(50.346 29.187)">
        <g id="Group_10564" data-name="Group 10564">
          <path id="Path_15013" data-name="Path 15013" d="M3411.314,1342h-1.378v.889h1.54v.695h-2.39v-3.746h2.312v.695h-1.462v.778h1.378Z" transform="translate(-3409.085 -1339.833)" fill="#fcdeb1"/>
        </g>
      </g>
      <path id="Path_15014" data-name="Path 15014" d="M3061.462,950.075l1.552,2.469,1.971-2.469Z" transform="translate(-3031.962 -944.261)" fill="#dfa323"/>
      <path id="Path_15015" data-name="Path 15015" d="M3055.7,1750.5l1.551-2.469,1.971,2.469Z" transform="translate(-3026.541 -1694.365)" fill="#dfa323"/>
      <path id="Path_15016" data-name="Path 15016" d="M2665.71,1342.284l2.469-1.551-2.469-1.971Z" transform="translate(-2659.942 -1309.639)" fill="#dfa323"/>
      <path id="Path_15017" data-name="Path 15017" d="M3469.193,1342.284l-2.469-1.551,2.469-1.971Z" transform="translate(-3412.921 -1309.639)" fill="#dfa323"/>
    </g>
    <rect id="Rectangle_1149" data-name="Rectangle 1149" width="3.436" height="29.026" transform="translate(61.706 71.938)" fill="#af7a31"/>
    <rect id="Rectangle_1150" data-name="Rectangle 1150" width="3.436" height="29.026" transform="translate(130.428 71.938)" fill="#af7a31"/>
    <g id="Group_10582" data-name="Group 10582" transform="translate(0 54.485)">
      <g id="Group_10573" data-name="Group 10573">
        <path id="Path_15018" data-name="Path 15018" d="M408.962,1138.578c-.906.473-4.059,4.024-4.4,1.182s1.78-2.123,1.78-2.123c3.122.843,5.4-2.56,5.4-2.56a5.838,5.838,0,0,0-.556-2.238c-.025-.06-.05-.12-.076-.179a23.479,23.479,0,0,0-1.834-3.3c-1.28,2.4-6.713,6.65-7.244,5.37s.906-1.717.906-1.717c5.058-1.061,5.245-4.776,5.245-4.776a2.665,2.665,0,0,0-.522-.786c-.042-.046-.085-.093-.13-.14a20.681,20.681,0,0,0-4.062-2.852,5.883,5.883,0,0,1-2.123,4.184c-3.341.187-1.561-1.9-1.561-1.9a3.1,3.1,0,0,0,2.373-3.216,1.753,1.753,0,0,1-.73-.258c-.05-.027-.1-.056-.155-.088a22.191,22.191,0,0,1-2.768-2.121c-.123,1.107-1.4,1.487-1.435,1.5.343-.191.5-1.872.5-1.872a2.1,2.1,0,0,1-.349-.205c-.047-.033-.1-.069-.147-.108a27.61,27.61,0,0,1-2.588-2.442c-.18-.189-.289-.305-.289-.305a.54.54,0,0,1,.021.16,1.389,1.389,0,0,1-.051.34,14.058,14.058,0,0,1-1.573,3.072c-.035.057-.07.112-.105.166-.376.592-.664,1.008-.664,1.008.968,2.435,5.089,1.655,3.341,3.768s-4.246-2.394-4.246-2.394a2.981,2.981,0,0,1-.651,1.474c-.036.055-.072.11-.11.166-.3.454-.666.938-1.014,1.387l-.115.148c-.686.872-1.294,1.571-1.294,1.571s.312,2.591,4,3.465,3.154,1.592,3.154,1.592c-3.622,1.561-7.431-4.059-7.431-4.059a10.979,10.979,0,0,0-1.837,2.976q-.04.09-.078.18a23.413,23.413,0,0,0-1.332,4.293c3.465,4.762,5.4,2.324,7.087,2.324s2.529.5,2.529.968-.406,2.029-3.684,2.029-6.213-3.341-6.213-3.341a33.1,33.1,0,0,0,1.062,4.695l.063.2c3.952,12.22,12.729,3.9,13.864,2.757.08-.08.122-.125.122-.125a1.713,1.713,0,0,0,.055.273h0a2.436,2.436,0,0,0,.162.426,0,0,0,0,0,0,0,2.585,2.585,0,0,0,1.219,1.2c3.254,1.594,11.021-.562,10.677-4.409a10.08,10.08,0,0,1,.029-2.032c.007-.066.016-.132.024-.2a12.436,12.436,0,0,1,1.7-4.772S409.867,1138.106,408.962,1138.578Zm-5.869,1.206c-.153.292-.7.308-1.213.037s-.812-.727-.66-1.019.7-.308,1.213-.036S403.245,1139.493,403.093,1139.784Zm-6.183-.57c-.754.374-1.551.3-1.78-.156s.2-1.137.953-1.511,1.552-.3,1.78.156S397.664,1138.84,396.909,1139.214Zm-.715-5.658c-.027-.3.468-.592,1.105-.648s1.175.142,1.2.444-.467.592-1.1.648S396.222,1133.858,396.195,1133.556Zm7.064-6.112c.242-.592.666-.979.948-.864s.313.688.072,1.28-.666.979-.948.863S403.017,1128.036,403.258,1127.444Zm-8.913,18.991c-1.193.488-2.311.516-2.5.062s.631-1.22,1.824-1.708,2.311-.516,2.5-.062S395.539,1145.946,394.345,1146.435Zm9.912-2.263a1.124,1.124,0,0,1-1.423.627c-.67-.155-1.12-.686-1-1.187a1.123,1.123,0,0,1,1.423-.627C403.923,1143.14,404.372,1143.671,404.257,1144.172Z" transform="translate(-383.923 -1117.625)" fill="#528530"/>
        <g id="Group_10567" data-name="Group 10567" transform="translate(1.062 23.079)" opacity="0.3">
          <path id="Path_15019" data-name="Path 15019" d="M427.849,1503.493c-.009.065-.017.131-.024.2a18.859,18.859,0,0,1-7.975.441,10.239,10.239,0,0,1-3.59-1.291c-.072-.046-.127-.084-.166-.111-.069.063-.138.125-.209.186a11.628,11.628,0,0,1-4.534,2.345,19.766,19.766,0,0,1-5.184.671h-.174a28.521,28.521,0,0,1-4.3-.337l-.063-.2a28.265,28.265,0,0,0,4.536.349c2.91-.021,6.939-.578,9.728-3.089l.125-.116.057-.054.062.048s.045.034.127.088a9.953,9.953,0,0,0,3.627,1.327A18.73,18.73,0,0,0,427.849,1503.493Z" transform="translate(-401.633 -1502.489)" fill="#fff"/>
        </g>
        <g id="Group_10568" data-name="Group 10568" transform="translate(1.613 14.84)" opacity="0.3">
          <path id="Path_15020" data-name="Path 15020" d="M436.467,1365.463a19.442,19.442,0,0,1-2.958,1.956,13.189,13.189,0,0,1-4.568,1.5,8.456,8.456,0,0,1-3.925-.355c-.092-.035-.157-.062-.194-.079l-.177.059a13.949,13.949,0,0,1-4.307.7,12.57,12.57,0,0,1-1.87-.139,13.516,13.516,0,0,1-4.833-1.731,15.95,15.95,0,0,1-2.816-2.107q.038-.09.078-.18a15.8,15.8,0,0,0,2.839,2.13,13.034,13.034,0,0,0,10.906,1.13l.157-.052.036-.012.035.017s.051.025.144.061a8.294,8.294,0,0,0,3.921.371,15.043,15.043,0,0,0,7.458-3.448Q436.43,1365.373,436.467,1365.463Z" transform="translate(-410.818 -1365.088)" fill="#fff"/>
        </g>
        <g id="Group_10569" data-name="Group 10569" transform="translate(5.103 9.146)" opacity="0.3">
          <path id="Path_15021" data-name="Path 15021" d="M487.652,1270.831a10.983,10.983,0,0,1-1.242,1.209,9.692,9.692,0,0,1-6.216,2.255,8.36,8.36,0,0,1-1.1-.069c-.124-.017-.2-.032-.227-.037l-.162,0a14.221,14.221,0,0,1-8.222-2.625,11.729,11.729,0,0,1-1.459-1.265l.115-.148a11.549,11.549,0,0,0,1.462,1.269,14.022,14.022,0,0,0,8.06,2.583l.218,0,.018,0s.056.012.153.027a9.239,9.239,0,0,0,3.76-.287,9.882,9.882,0,0,0,4.718-3.054C487.567,1270.738,487.61,1270.785,487.652,1270.831Z" transform="translate(-469.019 -1270.148)" fill="#fff"/>
        </g>
        <g id="Group_10570" data-name="Group 10570" transform="translate(6.232 5.555)" opacity="0.3">
          <path id="Path_15022" data-name="Path 15022" d="M499.122,1210.355a4.8,4.8,0,0,1-1.769,1.94,5.225,5.225,0,0,1-2,.722c-.077.01-.135.015-.171.018-.051.058-.1.115-.156.17a4.117,4.117,0,0,1-3.009,1.467c-.078,0-.156,0-.234-.008a6.484,6.484,0,0,1-3.932-2.193c.038-.056.074-.111.11-.166a6.383,6.383,0,0,0,3.834,2.174,3.9,3.9,0,0,0,3.161-1.473c.037-.04.074-.081.11-.122l.026-.03.04,0s.059,0,.158-.015a5.088,5.088,0,0,0,1.972-.7,4.58,4.58,0,0,0,1.7-1.866C499.02,1210.3,499.072,1210.328,499.122,1210.355Z" transform="translate(-487.852 -1210.267)" fill="#fff"/>
        </g>
        <g id="Group_10571" data-name="Group 10571" transform="translate(8.563 2.747)" opacity="0.3">
          <path id="Path_15023" data-name="Path 15023" d="M531.447,1163.544a4.215,4.215,0,0,1-1.29.843c-.08.033-.138.053-.163.062a1.527,1.527,0,0,1-.17.1,2.446,2.446,0,0,1-1.158.254,6.292,6.292,0,0,1-1.952-.378c.035-.054.07-.109.105-.166a3.924,3.924,0,0,0,2.934.117,1.5,1.5,0,0,0,.145-.09l.012-.009.014,0s.062-.019.162-.06a4,4,0,0,0,1.06-.643c.053-.044.1-.09.152-.136C531.351,1163.474,531.4,1163.51,531.447,1163.544Z" transform="translate(-526.715 -1163.436)" fill="#fff"/>
        </g>
        <g id="Group_10572" data-name="Group 10572" transform="translate(10.241)">
          <path id="Path_15024" data-name="Path 15024" d="M560.16,1140.84c0,.072-.007.144-.011.216-.059,1.175-.133,2.349-.2,3.473-.056.891-.111,1.77-.156,2.613a0,0,0,0,0,0,0c-.161,2.947-.213,5.447.2,6.4l-.341.146c-.47-1.094-.391-3.809-.2-7.127.038-.665.082-1.355.126-2.061.068-1.093.14-2.234.2-3.375l.013-.258c.086-1.714.141-3.419.113-4.955,0-.065,0-.129,0-.193-.009-.405-.025-.8-.047-1.176a22.407,22.407,0,0,0-.6-3.74c-.014-.062-.029-.124-.044-.187-.357-1.474-.826-3.015-1.333-4.5l-.069-.2c-.547-1.593-1.134-3.12-1.666-4.433l-.07-.172c-.556-1.365-1.046-2.485-1.361-3.189a1.389,1.389,0,0,0,.051-.34.541.541,0,0,0-.021-.16s.109.117.289.305c.314.7.811,1.833,1.375,3.221.024.057.047.114.07.171.531,1.311,1.117,2.835,1.666,4.428l.062.18c.532,1.56,1.026,3.18,1.4,4.725.015.065.031.129.046.193a22.469,22.469,0,0,1,.584,3.678c.023.388.039.792.048,1.21l0,.2C560.3,1137.463,560.244,1139.147,560.16,1140.84Z" transform="translate(-554.702 -1117.625)" fill="#3e6127"/>
        </g>
      </g>
      <g id="Group_10580" data-name="Group 10580" transform="translate(7.903 1.041)">
        <path id="Path_15025" data-name="Path 15025" d="M515.71,1150.645a12.436,12.436,0,0,1,.817,5c0,.066-.007.132-.011.2a10.083,10.083,0,0,1-.334,2c-1.024,3.724,6.234,7.23,9.72,6.242a2.584,2.584,0,0,0,1.414-.966s0,0,0,0a2.439,2.439,0,0,0,.235-.391h0a1.707,1.707,0,0,0,.1-.259s.033.052.1.145c.913,1.328,8.066,11.079,14.133-.241l.1-.183a33.116,33.116,0,0,0,1.882-4.43s-3.484,2.764-6.709,2.179-3.346-2.193-3.263-2.654,1-.8,2.661-.5,3.128,3.045,7.387-1.024a23.4,23.4,0,0,0-.545-4.461c-.014-.064-.029-.127-.045-.191a10.978,10.978,0,0,0-1.277-3.256s-4.75,4.851-8.036,2.669c0,0-.394-.8,3.387-1s4.55-2.7,4.55-2.7-.474-.8-.993-1.776l-.087-.166c-.263-.5-.532-1.045-.751-1.546q-.041-.092-.079-.183a2.982,2.982,0,0,1-.378-1.567s-3.262,3.989-4.6,1.6,2.572-.888,3.959-3.112c0,0-.209-.461-.474-1.11-.025-.059-.049-.12-.074-.183a14.05,14.05,0,0,1-1-3.3,1.391,1.391,0,0,1,.01-.344.543.543,0,0,1,.049-.153s-.128.1-.338.249a27.617,27.617,0,0,1-2.982,1.941c-.057.029-.112.055-.164.08a2.077,2.077,0,0,1-.38.14s-.147,1.682.156,1.931a2.019,2.019,0,0,1-1.145-1.73,22.215,22.215,0,0,1-3.1,1.593c-.057.022-.114.041-.168.059a1.751,1.751,0,0,1-.764.123,3.1,3.1,0,0,0,1.761,3.587s1.378,2.376-1.875,1.6a5.883,5.883,0,0,1-1.343-4.5,20.682,20.682,0,0,0-4.505,2.082l-.153.114a2.665,2.665,0,0,0-.654.68s-.478,3.689,4.309,5.635c0,0,1.335.687.585,1.851s-5.339-3.981-6.17-6.575a23.488,23.488,0,0,0-2.392,2.916q-.054.081-.107.163a5.834,5.834,0,0,0-.946,2.1s1.636,3.755,4.858,3.482c0,0,2.217-.328,1.372,2.407s-3.314-1.322-4.121-1.949S515.71,1150.645,515.71,1150.645Zm9.969,3.665c.558-.175,1.089-.062,1.188.252s-.273.71-.831.885-1.089.062-1.187-.252S525.122,1154.485,525.679,1154.31Zm4.688-.231c.306-.413,1.1-.339,1.779.164s.974,1.245.668,1.657-1.1.339-1.779-.164S530.059,1154.491,530.366,1154.079Zm1.118-3.56c-.617-.169-1.052-.543-.971-.835s.645-.392,1.262-.222,1.052.543.972.835S532.1,1150.688,531.484,1150.518Zm-4.9-6.249c-.3.063-.646-.393-.779-1.019s0-1.184.3-1.247.646.393.779,1.019S526.884,1144.206,526.587,1144.269Zm4.193,17.023c.264-.414,1.36-.188,2.446.506s1.754,1.591,1.49,2.006-1.36.187-2.446-.506S530.516,1161.707,530.78,1161.293Zm-6.659-2.977a1.124,1.124,0,0,1,1.288.871c.024.513-.513.956-1.2.989a1.124,1.124,0,0,1-1.288-.87C522.9,1158.791,523.433,1158.348,524.12,1158.316Z" transform="translate(-515.71 -1134.977)" fill="#6db22f"/>
        <g id="Group_10574" data-name="Group 10574" transform="translate(0.806 20.665)" opacity="0.3">
          <path id="Path_15026" data-name="Path 15026" d="M529.156,1479.591c0,.065-.007.132-.011.2a18.859,18.859,0,0,0,7.769,1.856,10.239,10.239,0,0,0,3.763-.63c.08-.033.14-.059.183-.079.056.074.114.148.172.22a11.63,11.63,0,0,0,4.043,3.116,19.785,19.785,0,0,0,4.981,1.585l.171.031a28.564,28.564,0,0,0,4.287.434l.1-.183a28.252,28.252,0,0,1-4.526-.465c-2.859-.539-6.725-1.805-9.021-4.773l-.1-.136-.047-.063-.07.036s-.05.026-.141.064a9.958,9.958,0,0,1-3.805.659A18.732,18.732,0,0,1,529.156,1479.591Z" transform="translate(-529.145 -1479.591)" fill="#fff"/>
        </g>
        <g id="Group_10575" data-name="Group 10575" transform="translate(2.414 11.778)" opacity="0.3">
          <path id="Path_15027" data-name="Path 15027" d="M555.971,1331.551a19.466,19.466,0,0,0,2.562,2.452,13.2,13.2,0,0,0,4.228,2.29,8.457,8.457,0,0,0,3.926.35c.1-.018.166-.033.205-.043l.164.089a13.951,13.951,0,0,0,4.112,1.46,12.588,12.588,0,0,0,1.865.2,13.52,13.52,0,0,0,5.065-.842,15.923,15.923,0,0,0,3.147-1.571q-.021-.1-.044-.191a15.817,15.817,0,0,1-3.173,1.589,13.034,13.034,0,0,1-10.932-.832l-.145-.08-.033-.018-.037.01s-.055.015-.153.034a8.3,8.3,0,0,1-3.924-.334,15.041,15.041,0,0,1-6.724-4.723Q556.024,1331.469,555.971,1331.551Z" transform="translate(-555.971 -1331.388)" fill="#fff"/>
        </g>
        <g id="Group_10576" data-name="Group 10576" transform="translate(6.843 7.157)" opacity="0.3">
          <path id="Path_15028" data-name="Path 15028" d="M629.828,1254.436a11,11,0,0,0,1.007,1.411,9.69,9.69,0,0,0,5.714,3.327,8.325,8.325,0,0,0,1.1.129c.125.005.2,0,.23,0l.16.026a14.22,14.22,0,0,0,8.558-1.117,11.738,11.738,0,0,0,1.662-.984l-.087-.166a11.557,11.557,0,0,1-1.665.988,14.023,14.023,0,0,1-8.391,1.1l-.215-.035h-.018s-.057,0-.155,0a9.236,9.236,0,0,1-3.648-.953,9.88,9.88,0,0,1-4.1-3.846C629.928,1254.36,629.878,1254.4,629.828,1254.436Z" transform="translate(-629.828 -1254.322)" fill="#fff"/>
        </g>
        <g id="Group_10577" data-name="Group 10577" transform="translate(13.723 4.205)" opacity="0.3">
          <path id="Path_15029" data-name="Path 15029" d="M744.56,1205.151a4.8,4.8,0,0,0,1.395,2.225,5.226,5.226,0,0,0,1.84,1.067c.074.023.13.039.165.048.04.066.081.131.123.195a4.118,4.118,0,0,0,2.7,1.98c.077.014.154.025.231.034a6.483,6.483,0,0,0,4.26-1.457q-.041-.092-.079-.183a6.383,6.383,0,0,1-4.161,1.456,3.906,3.906,0,0,1-2.848-2.013c-.029-.046-.058-.093-.086-.14l-.02-.034-.039-.009s-.058-.014-.152-.043a5.088,5.088,0,0,1-1.815-1.044,4.58,4.58,0,0,1-1.345-2.14C744.67,1205.114,744.614,1205.133,744.56,1205.151Z" transform="translate(-744.56 -1205.092)" fill="#fff"/>
        </g>
        <g id="Group_10578" data-name="Group 10578" transform="translate(18.361 2.19)" opacity="0.3">
          <path id="Path_15030" data-name="Path 15030" d="M821.9,1171.581a4.214,4.214,0,0,0,1.119,1.059c.073.047.126.077.15.09a1.548,1.548,0,0,0,.149.131,2.447,2.447,0,0,0,1.094.457,6.3,6.3,0,0,0,1.988-.024c-.024-.059-.049-.12-.074-.182a3.924,3.924,0,0,1-2.908-.408,1.561,1.561,0,0,1-.127-.114l-.011-.011-.013-.007s-.057-.03-.149-.088a4,4,0,0,1-.929-.822c-.044-.053-.085-.107-.125-.161C822,1171.53,821.948,1171.556,821.9,1171.581Z" transform="translate(-821.896 -1171.501)" fill="#fff"/>
        </g>
        <g id="Group_10579" data-name="Group 10579" transform="translate(10.268)">
          <path id="Path_15031" data-name="Path 15031" d="M689.031,1156.852c-.009.072-.019.143-.028.214-.151,1.166-.288,2.335-.419,3.454-.1.886-.207,1.762-.312,2.6,0,0,0,0,0,0-.367,2.929-.762,5.4-1.338,6.266l.309.2c.658-.992,1.064-3.678,1.466-6.978.081-.661.161-1.348.244-2.05.128-1.088.261-2.223.407-3.356l.033-.256c.221-1.7.471-3.39.772-4.9.013-.064.026-.127.039-.19.081-.4.167-.781.256-1.148a22.412,22.412,0,0,1,1.26-3.572c.025-.059.051-.117.077-.176.614-1.387,1.351-2.819,2.115-4.194l.1-.184c.822-1.47,1.672-2.868,2.43-4.065l.1-.157c.79-1.244,1.472-2.259,1.908-2.9a1.388,1.388,0,0,1,.01-.344.541.541,0,0,1,.049-.153s-.128.1-.338.249c-.434.633-1.125,1.659-1.928,2.924l-.1.156c-.756,1.2-1.6,2.59-2.429,4.06l-.093.167c-.8,1.44-1.577,2.946-2.215,4.4-.027.061-.054.122-.08.182a22.492,22.492,0,0,0-1.231,3.515c-.092.378-.18.773-.263,1.182l-.04.2C689.5,1153.5,689.251,1155.172,689.031,1156.852Z" transform="translate(-686.934 -1134.977)" fill="#568a30"/>
        </g>
      </g>
      <g id="Group_10581" data-name="Group 10581" transform="translate(7.579 34.834)">
        <path id="Path_15032" data-name="Path 15032" d="M547.13,1710.945H535.824a1.159,1.159,0,0,1-1.152-1.033l-1.1-10.108a1.159,1.159,0,0,1,1.152-1.285h13.509a1.159,1.159,0,0,1,1.152,1.285l-1.1,10.108A1.159,1.159,0,0,1,547.13,1710.945Z" transform="translate(-532.169 -1698.519)" fill="#d17d18"/>
        <rect id="Rectangle_1151" data-name="Rectangle 1151" width="18.779" height="3.338" rx="1.669" fill="#ff9d00"/>
      </g>
    </g>
    <g id="old-maps" transform="translate(49.958 22.455)">
      <g id="Group_10583" data-name="Group 10583">
        <rect id="Rectangle_1152" data-name="Rectangle 1152" width="93.905" height="60.442" rx="21.552" fill="#cc8d39"/>
      </g>
      <g id="Group_10584" data-name="Group 10584" transform="translate(1.758 1.596)">
        <path id="Rectangle_1153" data-name="Rectangle 1153" d="M9.631,0H80.758a9.631,9.631,0,0,1,9.631,9.631v37.99a9.631,9.631,0,0,1-9.631,9.631H9.63A9.63,9.63,0,0,1,0,47.621V9.631A9.631,9.631,0,0,1,9.631,0Z" fill="#e9c696"/>
      </g>
      <g id="wind-arrow-symbol" transform="translate(35.966 45.771)">
        <g id="Group_10593" data-name="Group 10593" transform="translate(0 3.44)">
          <g id="Group_10585" data-name="Group 10585" transform="translate(0 0.014)">
            <path id="Path_15033" data-name="Path 15033" d="M1820.234,1404.892h-3.444l3.076-.517.255.358Z" transform="translate(-1816.79 -1404.375)" fill="#c6976e"/>
          </g>
          <g id="Group_10586" data-name="Group 10586" transform="translate(3.969)">
            <path id="Path_15034" data-name="Path 15034" d="M1882.978,1404.136v0l0,0Z" transform="translate(-1882.975 -1404.136)" fill="#080808"/>
          </g>
          <g id="Group_10587" data-name="Group 10587" transform="translate(4.495 0.529)">
            <path id="Path_15035" data-name="Path 15035" d="M1891.754,1412.953h0l0,0Z" transform="translate(-1891.75 -1412.95)" fill="#080808"/>
          </g>
          <g id="Group_10588" data-name="Group 10588" transform="translate(3.972 1.061)">
            <path id="Path_15036" data-name="Path 15036" d="M1883.538,1422.188l-.517,3.076v-3.44l0,0,.156.111Z" transform="translate(-1883.021 -1421.822)" fill="#ffe5c5"/>
          </g>
          <g id="Group_10589" data-name="Group 10589" transform="translate(0 0.531)">
            <path id="Path_15037" data-name="Path 15037" d="M1820.236,1413l-.114.164-.245.352-3.087-.519h3.444Z" transform="translate(-1816.79 -1412.996)" fill="#ffe5c5"/>
          </g>
          <g id="Group_10590" data-name="Group 10590" transform="translate(3.444 0.531)">
            <path id="Path_15038" data-name="Path 15038" d="M1874.232,1413l0,0,0,0Z" transform="translate(-1874.228 -1412.996)" fill="#ffe5c5"/>
          </g>
          <g id="Group_10591" data-name="Group 10591" transform="translate(3.972 0.531)">
            <rect id="Rectangle_1154" data-name="Rectangle 1154" fill="#ffe5c5"/>
          </g>
          <g id="Group_10592" data-name="Group 10592" transform="translate(3.972 1.059)">
            <path id="Path_15039" data-name="Path 15039" d="M1883.024,1421.791l0,0v0Z" transform="translate(-1883.021 -1421.789)" fill="#ffe5c5"/>
          </g>
        </g>
        <g id="Group_10604" data-name="Group 10604" transform="translate(3.444)">
          <g id="Group_10594" data-name="Group 10594" transform="translate(0.527)">
            <path id="Path_15040" data-name="Path 15040" d="M1883.536,1349.831l-.363.265-.152.11v-3.44Z" transform="translate(-1883.021 -1346.766)" fill="#c6976e"/>
          </g>
          <g id="Group_10595" data-name="Group 10595" transform="translate(1.088 3.39)">
            <path id="Path_15041" data-name="Path 15041" d="M1892.389,1403.3l-.01,0,.009-.009Z" transform="translate(-1892.378 -1403.292)" fill="#080808"/>
          </g>
          <g id="Group_10596" data-name="Group 10596" transform="translate(1.053 3.453)">
            <path id="Path_15042" data-name="Path 15042" d="M1895.227,1404.865h-3.444l0,0,.114-.164.245-.352Z" transform="translate(-1891.781 -1404.346)" fill="#ffe5c5"/>
          </g>
          <g id="Group_10597" data-name="Group 10597" transform="translate(1.055 3.972)">
            <path id="Path_15043" data-name="Path 15043" d="M1895.258,1413l-3.076.517-.255-.358-.114-.159Z" transform="translate(-1891.814 -1412.996)" fill="#c6976e"/>
          </g>
          <g id="Group_10598" data-name="Group 10598" transform="translate(1.051 3.969)">
            <path id="Path_15044" data-name="Path 15044" d="M1891.754,1412.953h0l0,0Z" transform="translate(-1891.75 -1412.95)" fill="#080808"/>
          </g>
          <g id="Group_10599" data-name="Group 10599" transform="translate(0.527 3.972)">
            <rect id="Rectangle_1155" data-name="Rectangle 1155" fill="#080808"/>
          </g>
          <g id="Group_10600" data-name="Group 10600" transform="translate(0.527 4.499)">
            <path id="Path_15045" data-name="Path 15045" d="M1883.024,1421.791l0,0v0Z" transform="translate(-1883.021 -1421.789)" fill="#080808"/>
          </g>
          <g id="Group_10601" data-name="Group 10601" transform="translate(0 3.972)">
            <path id="Path_15046" data-name="Path 15046" d="M1874.232,1413l0,0,0,0Z" transform="translate(-1874.228 -1412.996)" fill="#ffe5c5"/>
          </g>
          <g id="Group_10602" data-name="Group 10602" transform="translate(0.01)">
            <path id="Path_15047" data-name="Path 15047" d="M1874.916,1346.766v3.444l0,0-.157-.112-.358-.255Z" transform="translate(-1874.399 -1346.766)" fill="#ffe5c5"/>
          </g>
          <g id="Group_10603" data-name="Group 10603" transform="translate(0.525 3.44)">
            <path id="Path_15048" data-name="Path 15048" d="M1882.978,1404.136v0l0,0Z" transform="translate(-1882.975 -1404.136)" fill="#ffe5c5"/>
          </g>
        </g>
        <g id="Group_10610" data-name="Group 10610" transform="translate(2.139 2.139)">
          <g id="Group_10605" data-name="Group 10605">
            <path id="Path_15049" data-name="Path 15049" d="M1854.3,1383.746v.527l-.307-.307-.264-.264-1.261-1.261,1.315.937.358.255.156.112Z" transform="translate(-1852.466 -1382.441)" fill="#c6976e"/>
          </g>
          <g id="Group_10606" data-name="Group 10606" transform="translate(1.832 1.832)">
            <rect id="Rectangle_1156" data-name="Rectangle 1156" fill="#080808"/>
          </g>
          <g id="Group_10607" data-name="Group 10607" transform="translate(2.356 1.83)">
            <path id="Path_15050" data-name="Path 15050" d="M1891.754,1412.953h0l0,0Z" transform="translate(-1891.75 -1412.95)" fill="#080808"/>
          </g>
          <g id="Group_10608" data-name="Group 10608">
            <path id="Path_15051" data-name="Path 15051" d="M1854.3,1384.274h-.527l-.114-.159-.255-.358-.937-1.315,1.261,1.261.264.264Z" transform="translate(-1852.466 -1382.441)" fill="#ffe5c5"/>
          </g>
          <g id="Group_10609" data-name="Group 10609" transform="translate(1.305 1.832)">
            <path id="Path_15052" data-name="Path 15052" d="M1874.232,1413l0,0,0,0Z" transform="translate(-1874.228 -1412.996)" fill="#ffe5c5"/>
          </g>
        </g>
        <g id="Group_10621" data-name="Group 10621" transform="translate(2.159 2.12)">
          <g id="Group_10611" data-name="Group 10611" transform="translate(1.813)">
            <path id="Path_15053" data-name="Path 15053" d="M1884.835,1382.119l-.928,1.333-.245.352-.114.164,0,0h-.523l.3-.311.257-.262.01,0,0-.011Z" transform="translate(-1883.022 -1382.119)" fill="#c6976e"/>
          </g>
          <g id="Group_10612" data-name="Group 10612" transform="translate(1.813 1.852)">
            <path id="Path_15054" data-name="Path 15054" d="M1884.854,1414.829l-1.832-1.832h.527l.113.159.255.358Z" transform="translate(-1883.022 -1412.996)" fill="#ffe5c5"/>
          </g>
          <g id="Group_10613" data-name="Group 10613" transform="translate(1.813 1.852)">
            <path id="Path_15055" data-name="Path 15055" d="M1884.853,1414.83l-1.315-.937-.358-.255-.156-.111,0,0V1413h0Z" transform="translate(-1883.021 -1412.998)" fill="#c6976e"/>
          </g>
          <g id="Group_10614" data-name="Group 10614" transform="translate(1.298 2.383)">
            <path id="Path_15056" data-name="Path 15056" d="M1874.946,1421.857v3.44l-.515-3.065.363-.265Z" transform="translate(-1874.431 -1421.857)" fill="#c6976e"/>
          </g>
          <g id="Group_10615" data-name="Group 10615" transform="translate(0 1.852)">
            <path id="Path_15057" data-name="Path 15057" d="M1854.6,1413v.531l-.152.111-.363.264-1.3.945,1.243-1.27.009-.009.257-.263Z" transform="translate(-1852.791 -1412.998)" fill="#ffe5c5"/>
          </g>
          <g id="Group_10616" data-name="Group 10616" transform="translate(1.813 2.379)">
            <path id="Path_15058" data-name="Path 15058" d="M1883.024,1421.791l0,0v0Z" transform="translate(-1883.021 -1421.789)" fill="#080808"/>
          </g>
          <g id="Group_10617" data-name="Group 10617" transform="translate(2.374 1.27)">
            <path id="Path_15059" data-name="Path 15059" d="M1892.389,1403.3l-.01,0,.009-.009Z" transform="translate(-1892.378 -1403.292)" fill="#080808"/>
          </g>
          <g id="Group_10618" data-name="Group 10618" transform="translate(1.813)">
            <path id="Path_15060" data-name="Path 15060" d="M1884.833,1382.119l-1.243,1.27-.009.009-.257.262-.3.311h0v-.531l.152-.111.363-.265Z" transform="translate(-1883.021 -1382.119)" fill="#ffe5c5"/>
          </g>
          <g id="Group_10619" data-name="Group 10619" transform="translate(0 1.852)">
            <path id="Path_15061" data-name="Path 15061" d="M1854.6,1413h0l-.3.311-.257.263-.009.009-1.243,1.27.928-1.333.245-.352.114-.164,0,0Z" transform="translate(-1852.791 -1412.996)" fill="#c6976e"/>
          </g>
          <g id="Group_10620" data-name="Group 10620" transform="translate(1.813 1.852)">
            <rect id="Rectangle_1157" data-name="Rectangle 1157" fill="#ffe5c5"/>
          </g>
        </g>
      </g>
      <g id="Group_10622" data-name="Group 10622" transform="translate(34.87 44.669)">
        <path id="Path_15062" data-name="Path 15062" d="M1803.574,1338.523a5.066,5.066,0,1,1,5.066-5.066A5.072,5.072,0,0,1,1803.574,1338.523Zm0-9.839a4.773,4.773,0,1,0,4.773,4.773A4.778,4.778,0,0,0,1803.574,1328.684Z" transform="translate(-1798.508 -1328.391)" fill="#d3a075"/>
      </g>
      <g id="Group_10647" data-name="Group 10647" transform="translate(1.758 1.596)">
        <g id="Group_10624" data-name="Group 10624" transform="translate(0 48.022)">
          <g id="Group_10623" data-name="Group 10623">
            <rect id="Rectangle_1158" data-name="Rectangle 1158" width="30.929" height="0.235" fill="#d3a075"/>
          </g>
        </g>
        <g id="Group_10626" data-name="Group 10626" transform="translate(45.444 48.022)">
          <g id="Group_10625" data-name="Group 10625">
            <rect id="Rectangle_1159" data-name="Rectangle 1159" width="44.944" height="0.235" fill="#d3a075"/>
          </g>
        </g>
        <g id="Group_10628" data-name="Group 10628" transform="translate(38.065 55.331)">
          <g id="Group_10627" data-name="Group 10627" transform="translate(0 0)">
            <rect id="Rectangle_1160" data-name="Rectangle 1160" width="0.235" height="1.92" fill="#d3a075"/>
          </g>
        </g>
        <g id="Group_10630" data-name="Group 10630" transform="translate(38.065)">
          <g id="Group_10629" data-name="Group 10629">
            <rect id="Rectangle_1161" data-name="Rectangle 1161" width="0.235" height="40.816" fill="#d3a075"/>
          </g>
        </g>
        <g id="Group_10632" data-name="Group 10632" transform="translate(41.959 54.392)">
          <g id="Group_10631" data-name="Group 10631">
            <path id="Path_15063" data-name="Path 15063" d="M1948.106,1520h-.28l-1.783-2.732.1-.064.1-.064Z" transform="translate(-1946.043 -1517.137)" fill="#d3a075"/>
          </g>
        </g>
        <g id="Group_10634" data-name="Group 10634" transform="translate(6.371)">
          <g id="Group_10633" data-name="Group 10633">
            <path id="Path_15064" data-name="Path 15064" d="M1380.429,652.337l-.1.065-.1.064L1352.579,610.1h.28Z" transform="translate(-1352.579 -610.1)" fill="#d3a075"/>
          </g>
        </g>
        <g id="Group_10636" data-name="Group 10636" transform="translate(44.971 51.386)">
          <g id="Group_10635" data-name="Group 10635" transform="translate(0 0)">
            <path id="Path_15065" data-name="Path 15065" d="M2006.55,1472.872h-.469l-9.809-5.663.117-.2Z" transform="translate(-1996.272 -1467.007)" fill="#d3a075"/>
          </g>
        </g>
        <g id="Group_10638" data-name="Group 10638" transform="translate(0 25.357)">
          <g id="Group_10637" data-name="Group 10637">
            <path id="Path_15066" data-name="Path 15066" d="M1278.856,1051.728l-.117.2-32.4-18.7v-.271Z" transform="translate(-1246.339 -1032.956)" fill="#d3a075"/>
          </g>
        </g>
        <g id="Group_10640" data-name="Group 10640" transform="translate(44.638 17.252)">
          <g id="Group_10639" data-name="Group 10639">
            <path id="Path_15067" data-name="Path 15067" d="M2036.465,897.791v.274l-45.63,27.358-.061-.1-.06-.1Z" transform="translate(-1990.714 -897.791)" fill="#d3a075"/>
          </g>
        </g>
        <g id="Group_10642" data-name="Group 10642" transform="translate(23.676 52.147)">
          <g id="Group_10641" data-name="Group 10641">
            <path id="Path_15068" data-name="Path 15068" d="M1649.793,1479.91l-8.177,4.9h-.456l8.513-5.1.06.1Z" transform="translate(-1641.16 -1479.708)" fill="#d3a075"/>
          </g>
        </g>
        <g id="Group_10644" data-name="Group 10644" transform="translate(41.746)">
          <g id="Group_10643" data-name="Group 10643">
            <path id="Path_15069" data-name="Path 15069" d="M1968.975,610.1l-26.285,41.763-.2-.125L1968.7,610.1Z" transform="translate(-1942.491 -610.1)" fill="#d3a075"/>
          </g>
        </g>
        <g id="Group_10646" data-name="Group 10646" transform="translate(31.919 53.922)">
          <g id="Group_10645" data-name="Group 10645">
            <path id="Path_15070" data-name="Path 15070" d="M1780.918,1509.434l-2.016,3.2h-.277l2.095-3.329.1.063Z" transform="translate(-1778.625 -1509.309)" fill="#d3a075"/>
          </g>
        </g>
      </g>
      <g id="Group_10660" data-name="Group 10660" transform="translate(6.92 9.011)">
        <g id="Group_10648" data-name="Group 10648" transform="translate(14.305 21.736)">
          <path id="Path_15071" data-name="Path 15071" d="M1579.943,1119.641s-2.931.084-3.685-9.881a8.253,8.253,0,0,1-3.015-5.108c-.335-3.1-.586-6.2,1.256-6.448s6.2,1.675,6.615,2.512,4.857,2.094,4.605,2.931-.837,6.783-4.522,8.96S1579.943,1119.641,1579.943,1119.641Z" transform="translate(-1572.886 -1098.065)" fill="#ffdbb1"/>
          <path id="Path_15072" data-name="Path 15072" d="M1578.019,1117.929c-.207,0-3.045-.183-3.793-9.938a8.392,8.392,0,0,1-3.018-5.156c-.3-2.806-.681-6.3,1.357-6.577a8.987,8.987,0,0,1,3.9.855,7.045,7.045,0,0,1,2.835,1.721,6.568,6.568,0,0,0,2.167,1.259c1.4.644,2.614,1.2,2.446,1.758-.034.114-.078.345-.134.637-.339,1.777-1.239,6.5-4.441,8.39a4.042,4.042,0,0,0-1.953,4.221,8.59,8.59,0,0,0,.742,2.659l.082.165-.184.005Zm-5.085-21.459a2.519,2.519,0,0,0-.338.021c-1.675.228-1.514,3-1.155,6.319a8.192,8.192,0,0,0,2.969,5.026l.042.032,0,.053c.384,5.074,1.341,7.465,2.076,8.578a2.627,2.627,0,0,0,1.289,1.154,8.777,8.777,0,0,1-.668-2.531,4.31,4.31,0,0,1,2.067-4.446c3.11-1.838,4-6.484,4.329-8.232.059-.31.1-.535.14-.661.108-.362-1.295-1.007-2.32-1.478a6.025,6.025,0,0,1-2.279-1.367C1578.716,1098.19,1574.857,1096.471,1572.934,1096.471Z" transform="translate(-1570.967 -1096.236)" fill="#d3a075"/>
        </g>
        <g id="Group_10649" data-name="Group 10649" transform="translate(0 2.589)">
          <path id="Path_15073" data-name="Path 15073" d="M1347.593,798.053s-.084-2.908-1.172-2.908-3.182-1.256-.921-3.1,3.014.67,4.271-.335,1.256-2.261,2.428-3.015,3.768-1.172,3.517-2.261,1.758-.335,2.261-1-1.817-3.852-2.918-3.6-1.52,3.182-2.442,2.847-3.032-1.954-1.348-2.861,3.191-2,2.437-2.414-4.941,1.256-8.039,0-9.295-.084-10.886,3.1,2.093-.5,3.1-.419,3.936.837,2.093,4.438,1.256,9.379,3.433,9.965,3.029,2.983,3.768,2.345A.954.954,0,0,0,1347.593,798.053Z" transform="translate(-1334.271 -778.789)" fill="#ffdbb1"/>
          <path id="Path_15074" data-name="Path 15074" d="M1345.068,797.209c-.332,0-.682-.36-1.1-.786a5.418,5.418,0,0,0-2.441-1.673c-1.064-.287-2.348-1.761-3.194-3.669a10.185,10.185,0,0,1-.863-3.271,5.9,5.9,0,0,1,.55-3.191,3.2,3.2,0,0,0,.34-3,3,3,0,0,0-2.338-1.265,4.8,4.8,0,0,0-1.746.9c-.953.627-1.5.97-1.757.746-.192-.17-.1-.575.31-1.4.739-1.479,2.545-2.673,4.954-3.275a10.518,10.518,0,0,1,6.081.12c1.963.8,4.431.387,6.064.116a4.169,4.169,0,0,1,1.987-.11.439.439,0,0,1,.26.4c0,.673-1.692,1.683-2.7,2.225-.4.216-.591.484-.568.8.056.77,1.285,1.626,1.9,1.85.374.136.7-.514,1.036-1.2.368-.744.748-1.513,1.339-1.648.791-.18,1.946,1.092,2.529,1.991.259.4.826,1.371.509,1.795-.251.335-.778.359-1.287.382-.389.017-.791.036-.922.208a.374.374,0,0,0-.032.319c.19.825-.974,1.279-2.1,1.717a8.939,8.939,0,0,0-1.468.669,3.6,3.6,0,0,0-1.163,1.405,5.016,5.016,0,0,1-1.255,1.6c-.592.473-1.086.24-1.609-.007a2.1,2.1,0,0,0-2.66.341c-.79.643-1.1,1.273-.909,1.821a2.01,2.01,0,0,0,1.756,1.069c1.164,0,1.28,2.689,1.289,3.018a1.083,1.083,0,0,1-.459.872A.509.509,0,0,1,1345.068,797.209ZM1336,780.115l.044,0a3.3,3.3,0,0,1,2.524,1.385,3.408,3.408,0,0,1-.336,3.224,7.515,7.515,0,0,0,.319,6.26c.819,1.847,2.041,3.268,3.04,3.537a5.691,5.691,0,0,1,2.549,1.736c.553.569.854.856,1.112.633.409-.353.38-.66.379-.673v-.011c-.023-.777-.256-2.794-1.055-2.794a2.233,2.233,0,0,1-1.977-1.225c-.161-.453-.122-1.182.982-2.082a2.319,2.319,0,0,1,2.909-.372c.494.233.885.418,1.362.036a4.823,4.823,0,0,0,1.2-1.535,3.782,3.782,0,0,1,1.24-1.487,9.086,9.086,0,0,1,1.509-.69c1.033-.4,2.1-.819,1.957-1.446a.6.6,0,0,1,.073-.513c.2-.26.635-.28,1.1-.3s.925-.042,1.11-.288c.126-.168.015-.706-.518-1.526-.67-1.032-1.706-2.02-2.28-1.89-.482.11-.853.861-1.181,1.523-.388.785-.755,1.527-1.327,1.32-.683-.248-1.991-1.173-2.055-2.053a1.074,1.074,0,0,1,.691-1.022c1.586-.854,2.572-1.628,2.575-2.02,0-.048-.014-.119-.139-.189a4.72,4.72,0,0,0-1.835.136c-1.659.275-4.167.691-6.191-.13a10.278,10.278,0,0,0-5.936-.11c-2.342.586-4.092,1.734-4.8,3.152-.493.987-.369,1.113-.364,1.118s.076.061.476-.149c.283-.148.63-.376,1-.618A4.887,4.887,0,0,1,1336,780.115Z" transform="translate(-1332.425 -776.941)" fill="#d3a075"/>
        </g>
        <g id="Group_10650" data-name="Group 10650" transform="translate(25.649 0.154)">
          <path id="Path_15075" data-name="Path 15075" d="M1772.182,738.314c-.257,0-1.716,3.346-3.432,3.689s-4.69,2.831-5.262,1.887.486-2.067,0-3.178-2.116-1.026-1-1.626,3.775-.686,5.148-.772S1772.182,738.314,1772.182,738.314Z" transform="translate(-1761.987 -738.158)" fill="#ffdbb1"/>
          <path id="Path_15076" data-name="Path 15076" d="M1762.079,742.387a.572.572,0,0,1-.531-.271,2.068,2.068,0,0,1-.04-1.638,2.369,2.369,0,0,0,.033-1.554,2.03,2.03,0,0,0-.949-.891c-.259-.148-.446-.255-.444-.438,0-.149.131-.278.444-.447,1.018-.548,3.239-.674,4.71-.758l.486-.028c1.362-.085,4.526,0,4.558,0l0,.235a.067.067,0,0,0,.034-.008,4.289,4.289,0,0,0-.445.653c-.648,1.043-1.734,2.789-3,3.041a10.3,10.3,0,0,0-2.443,1.1A6.7,6.7,0,0,1,1762.079,742.387Zm5.5-5.829c-.671,0-1.325.009-1.777.038l-.488.029c-1.45.082-3.64.207-4.612.73-.316.17-.321.243-.321.243,0,.046.2.162.325.232a2.223,2.223,0,0,1,1.048,1,2.546,2.546,0,0,1-.02,1.7,1.871,1.871,0,0,0,.013,1.46c.281.463,1.474-.189,2.629-.819a10.426,10.426,0,0,1,2.51-1.123c1.164-.233,2.257-1.991,2.844-2.935.15-.242.257-.412.339-.528C1769.6,736.578,1768.569,736.557,1767.58,736.557Z" transform="translate(-1760.148 -736.323)" fill="#d3a075"/>
        </g>
        <g id="Group_10651" data-name="Group 10651" transform="translate(20.018 2.193)">
          <path id="Path_15077" data-name="Path 15077" d="M1668.234,772.688s-.288.333.974.477,1.767.829,1.262.9-1.046.9-.288,1.154,2.633-.685,1.912-1.623a3.407,3.407,0,0,0-2.272-1.3A4.066,4.066,0,0,0,1668.234,772.688Z" transform="translate(-1668.088 -772.174)" fill="#ffdbb1"/>
          <path id="Path_15078" data-name="Path 15078" d="M1668.629,773.54a1.041,1.041,0,0,1-.327-.047.57.57,0,0,1-.453-.594.967.967,0,0,1,.763-.787c.035,0,.093-.02.093-.043,0-.13-.42-.519-1.352-.626-.661-.075-1.006-.208-1.089-.419a.25.25,0,0,1,.039-.251l.017-.019.023-.011a4.1,4.1,0,0,1,1.651-.4,3.554,3.554,0,0,1,2.351,1.344.8.8,0,0,1,.009,1.016A2.387,2.387,0,0,1,1668.629,773.54Zm-2.148-2.6v0c.008.018.1.179.9.269.957.109,1.555.529,1.56.855,0,.055-.018.239-.294.279a.744.744,0,0,0-.562.576c-.015.163.084.281.294.351a2.021,2.021,0,0,0,1.785-.7.567.567,0,0,0,0-.737,3.315,3.315,0,0,0-2.194-1.254A3.766,3.766,0,0,0,1666.482,770.937Z" transform="translate(-1666.246 -770.335)" fill="#d3a075"/>
        </g>
        <g id="Group_10652" data-name="Group 10652" transform="translate(21.33)">
          <path id="Path_15079" data-name="Path 15079" d="M1690.227,737.481c.108,0,2.633-.685,4-1.046s1.623-.721.83-.721-4.473-.036-4.833.4S1690.227,737.481,1690.227,737.481Z" transform="translate(-1689.95 -735.596)" fill="#ffdbb1"/>
          <path id="Path_15080" data-name="Path 15080" d="M1688.4,735.763h-.081l-.029-.075c-.016-.041-.381-1.008.019-1.488.259-.311,1.724-.445,4.75-.44h.173c.229,0,.537.024.563.227.03.235-.428.479-1.363.726-.4.105-.9.238-1.4.373C1689.124,735.594,1688.477,735.763,1688.4,735.763Zm4.463-1.768c-3.542,0-4.261.221-4.373.355-.232.279-.109.866-.013,1.161.334-.077,1.519-.393,2.493-.652l1.4-.373a3.2,3.2,0,0,0,1.167-.458,1.022,1.022,0,0,0-.307-.033h-.37Z" transform="translate(-1688.122 -733.76)" fill="#d3a075"/>
        </g>
        <g id="Group_10653" data-name="Group 10653" transform="translate(12.563 1.792)">
          <path id="Path_15081" data-name="Path 15081" d="M1545.966,766.181a2.71,2.71,0,0,1,1.334.541,3.593,3.593,0,0,0,2.814.145C1550.619,766.505,1547.409,764.666,1545.966,766.181Z" transform="translate(-1545.724 -765.474)" fill="#ffdbb1"/>
          <path id="Path_15082" data-name="Path 15082" d="M1545.141,765.373a2.8,2.8,0,0,1-1.725-.407,2.5,2.5,0,0,0-1.26-.5l-.225-.032.157-.165a2.654,2.654,0,0,1,2.79-.436c.835.259,1.558.735,1.61,1.061a.236.236,0,0,1-.1.237A2.46,2.46,0,0,1,1545.141,765.373Zm-2.717-1.095a2.288,2.288,0,0,1,1.173.54,2.265,2.265,0,0,0,1.255.314,2.738,2.738,0,0,0,1.4-.19l.005,0c.009-.059-.2-.324-.78-.611A2.991,2.991,0,0,0,1542.425,764.278Z" transform="translate(-1541.93 -763.645)" fill="#d3a075"/>
        </g>
        <g id="Group_10654" data-name="Group 10654" transform="translate(32.532 1.24)">
          <path id="Path_15083" data-name="Path 15083" d="M1887.651,791.5c-1.359-2.346-2.067-7.977-2.66-9.493s-.989-3.23-2.044-3.23-6.065.765-6.065-3.079,3.188-7.4,5.385-7.008,3.45,2.7,4.57,2.11,3.164-.132,3.89-.527.659-1.115-.33-1.612-.725-2.014-.066-1.882,2.9.33,1.648-1.319-3.909,3.033-4.328,2.7-4.045-3.1-5.429-1.45-1.522,2.242-2.146,1.582-.162-2.307.761-2.307,2.242-3.428,3.362-3.428,3.494.112,4.351-1.394-1.714-1.9-2.044-1.177-.329,1.516-1.055,1.648-2.7-.2-2.109-.857,2.835-3.407,6-2.528-.527,1.671.725,1.8,1.45-.593,2.439-.923,3.494-1.846,4.021-1.582,6.395-1.846,7.582-.857,10.021,1.207,11.735,1.56,6.659.484,6.659,1.143-2.11,2.176-2.505,2.176,1.516,1.846.857,1.978-1.714-1.648-2.637-2.044-.725,3.3-1.45,4.219.132,3.1-.2,3.23-3.033-1.714-3.033-1.714a12.511,12.511,0,0,0,1.582,3.56c.989,1.319-2.967,2.569-2.967,3.164s.989,3.363.066,3.5-3.231-2.11-4.483-3.89-3.23,4.615-3.824,4.022-1.714-4.483-2.9-4.879-1.912.264-2.637-.264-3.032-1.978-3.1-1.384,1.253,1.187,1.912,1.516,1.121,1.582-.329,2.439-2.373,2.439-5.736-3.692c0,0,1.319,5.01,2.373,5.406s2.308.066,2.308.725-3.56,4.087-3.23,5.208,1.45,1.78.725,2.241S1889.249,794.255,1887.651,791.5Z" transform="translate(-1876.765 -756.303)" fill="#ffdbb1"/>
          <path id="Path_15084" data-name="Path 15084" d="M1886.535,790.285a.977.977,0,0,1-.825-.588c-.879-1.518-1.48-4.357-1.964-6.638a24.141,24.141,0,0,0-.7-2.872c-.1-.265-.2-.538-.3-.8-.436-1.21-.848-2.353-1.637-2.353-.114,0-.275.009-.479.021-1.157.066-3.564.2-4.849-1.011a2.9,2.9,0,0,1-.855-2.206,8.456,8.456,0,0,1,2.859-6.155,3.4,3.4,0,0,1,2.663-.968,6.388,6.388,0,0,1,2.67,1.395c.734.557,1.313,1,1.825.726a5.454,5.454,0,0,1,2.37-.354,3.944,3.944,0,0,0,1.518-.173.68.68,0,0,0,.425-.572c0-.291-.279-.595-.751-.832a1.356,1.356,0,0,1-.65-1.629c.12-.349.373-.53.66-.473.629.126,1.613.145,1.833-.207.15-.24-.081-.636-.3-.926a.681.681,0,0,0-.534-.306h-.021c-.759,0-1.784,1.192-2.535,2.065-.657.764-.987,1.147-1.217.966a13.163,13.163,0,0,0-2.33-1.453c-1.406-.655-2.394-.66-2.937-.014-.307.366-.556.684-.757.939-.487.622-.732.934-1.028.948-.169.008-.329-.082-.536-.3A1.669,1.669,0,0,1,1878,764.8a1.147,1.147,0,0,1,1-.791c.377,0,.91-.782,1.425-1.538.633-.929,1.288-1.89,1.937-1.89h.22c1.138.007,3.259.019,4.029-1.336a.8.8,0,0,0,.063-.85,1.47,1.47,0,0,0-1.284-.5c-.314.021-.543.126-.613.28a5.354,5.354,0,0,0-.212.58c-.171.528-.331,1.027-.928,1.135-.613.111-2.039-.072-2.309-.557a.4.4,0,0,1,.091-.494l.093-.1c.726-.82,2.938-3.316,6.025-2.458.9.25,1.345.517,1.4.84s-.315.591-.613.8c-.066.045-.149.1-.2.145a1.164,1.164,0,0,0,.121.018,1.9,1.9,0,0,0,1.489-.435,3.449,3.449,0,0,1,.9-.483,14.546,14.546,0,0,0,1.448-.657c1.372-.674,2.3-1.1,2.664-.919a9.185,9.185,0,0,0,2.064-.384c2.108-.5,4.731-1.133,5.54-.459.763.636,5.028.958,8.142,1.193,1.59.12,2.964.224,3.541.342s1.562.216,2.593.316c2.828.275,4.16.458,4.16.942,0,.709-1.959,2.128-2.537,2.28a5.442,5.442,0,0,0,.37.538c.451.609.739,1.028.64,1.284a.268.268,0,0,1-.214.167c-.423.084-.9-.414-1.455-.991a4.73,4.73,0,0,0-1.251-1.06.161.161,0,0,0-.155,0c-.274.153-.416,1.089-.542,1.916a5.8,5.8,0,0,1-.615,2.27,3.3,3.3,0,0,0-.165,2.252c.083.579.133.929-.081,1.014-.091.036-.261.1-1.745-.817-.438-.272-.864-.552-1.128-.728a11.6,11.6,0,0,0,1.473,3.212.8.8,0,0,1,.166.662c-.139.69-1.155,1.283-2.051,1.807-.447.261-1.059.619-1.059.765a5.662,5.662,0,0,0,.16.852c.21.924.472,2.075.147,2.547a.484.484,0,0,1-.342.213c-1.027.148-3.369-2.2-4.6-3.938a.489.489,0,0,0-.417-.263c-.607.038-1.413,1.558-2,2.667-.578,1.089-.893,1.66-1.186,1.7a.237.237,0,0,1-.207-.071,7.22,7.22,0,0,1-.861-1.67c-.544-1.243-1.289-2.945-1.994-3.18a2.981,2.981,0,0,0-1.4-.082,1.631,1.631,0,0,1-1.271-.2c-.955-.694-2.592-1.627-2.9-1.492-.008,0-.013.006-.015.026-.051.463,1.07,1.015,1.673,1.312l.175.087a1.327,1.327,0,0,1,.691,1.124,1.709,1.709,0,0,1-1.013,1.522c-.147.087-.292.183-.431.276a2.1,2.1,0,0,1-1.715.537c-.9-.22-1.922-1.369-3.269-3.691.494,1.649,1.365,4.13,2.034,4.381a4.757,4.757,0,0,0,1.245.23c.611.056,1.139.1,1.139.605,0,.288-.448.86-1.239,1.845-.919,1.144-2.178,2.712-2,3.33a3.93,3.93,0,0,0,.579,1.089c.245.359.438.643.381.919a.575.575,0,0,1-.284.365,10.369,10.369,0,0,0-1.126,1.966c-1.107,2.17-2.624,5.142-3.839,5.175Zm-5.427-13.488c.953,0,1.393,1.218,1.858,2.508.095.263.193.534.3.8a24.107,24.107,0,0,1,.715,2.909c.48,2.265,1.077,5.083,1.937,6.569.188.323.4.479.637.471,1.075-.029,2.616-3.048,3.636-5.047a8.061,8.061,0,0,1,1.209-2.057.358.358,0,0,0,.18-.215c.037-.179-.14-.438-.345-.739a4.172,4.172,0,0,1-.61-1.155c-.216-.735.982-2.227,2.038-3.543a7.1,7.1,0,0,0,1.187-1.7c0-.261-.268-.311-.926-.371a4.941,4.941,0,0,1-1.306-.244c-1.08-.405-2.309-4.967-2.446-5.486l-.243-.925.46.838c1.535,2.8,2.68,4.209,3.6,4.435a1.9,1.9,0,0,0,1.529-.5c.142-.095.289-.193.442-.283a1.533,1.533,0,0,0,.9-1.312,1.1,1.1,0,0,0-.562-.922l-.174-.086c-.745-.367-1.872-.922-1.8-1.548a.255.255,0,0,1,.154-.215c.6-.265,3.106,1.5,3.131,1.517a1.412,1.412,0,0,0,1.105.155,3.179,3.179,0,0,1,1.5.093c.8.268,1.542,1.954,2.134,3.309a7.7,7.7,0,0,0,.812,1.6l.006.005h0c.173,0,.677-.952,1.012-1.582.682-1.287,1.455-2.745,2.193-2.791a.711.711,0,0,1,.624.363c1.285,1.826,3.555,3.956,4.37,3.841a.25.25,0,0,0,.182-.113c.267-.388,0-1.576-.182-2.362a5.48,5.48,0,0,1-.166-.9c0-.268.4-.516,1.175-.968.811-.474,1.821-1.064,1.939-1.651a.573.573,0,0,0-.124-.475,12.457,12.457,0,0,1-1.6-3.6l-.081-.3.26.178a14.6,14.6,0,0,0,2.915,1.7h0a2.8,2.8,0,0,0-.056-.763,3.434,3.434,0,0,1,.213-2.43,5.875,5.875,0,0,0,.567-2.16c.153-1.007.285-1.877.66-2.085a.4.4,0,0,1,.361-.009,4.859,4.859,0,0,1,1.328,1.113c.464.483.943.982,1.24.924.024,0,.038-.012.042-.021.06-.155-.376-.744-.61-1.06-.351-.475-.49-.673-.42-.812a.163.163,0,0,1,.154-.087c.315,0,2.388-1.472,2.388-2.058,0-.008-.014-.189-1.2-.388-.767-.128-1.773-.226-2.747-.321-1.038-.1-2.017-.2-2.618-.32-.562-.116-1.929-.219-3.511-.338-3.321-.251-7.454-.562-8.275-1.247-.719-.6-3.5.066-5.335.507a5.966,5.966,0,0,1-2.224.365c-.289-.145-1.541.47-2.455.919a14.608,14.608,0,0,1-1.477.669,3.205,3.205,0,0,0-.842.454,2.122,2.122,0,0,1-1.647.475c-.173-.018-.337-.053-.37-.184-.037-.147.114-.251.342-.407s.545-.373.514-.563c-.02-.122-.207-.368-1.23-.653-2.947-.819-5.084,1.594-5.787,2.388l-.094.106c-.114.127-.077.194-.061.223.19.341,1.5.542,2.062.44.458-.083.586-.477.747-.976a5.545,5.545,0,0,1,.222-.6.9.9,0,0,1,.811-.417,1.692,1.692,0,0,1,1.5.609,1.007,1.007,0,0,1-.058,1.091c-.839,1.474-3.048,1.461-4.234,1.454h-.219c-.526,0-1.172.95-1.743,1.787-.6.88-1.118,1.641-1.619,1.641a.924.924,0,0,0-.784.649,1.43,1.43,0,0,0,.108,1.461c.152.161.263.231.354.227.189-.009.44-.329.855-.859.2-.257.452-.577.762-.946,1.445-1.72,5.1,1.051,5.579,1.424a4.786,4.786,0,0,0,.906-.925c.833-.968,1.867-2.172,2.741-2.146a.913.913,0,0,1,.714.4c.386.508.491.909.314,1.192-.4.64-2.062.316-2.078.312-.245-.049-.362.232-.392.319a1.121,1.121,0,0,0,.534,1.343c.561.282.874.651.881,1.038a.9.9,0,0,1-.548.782,3.935,3.935,0,0,1-1.629.2,5.307,5.307,0,0,0-2.262.326c-.644.341-1.308-.163-2.077-.747a6.114,6.114,0,0,0-2.569-1.351,3.175,3.175,0,0,0-2.471.918,8.208,8.208,0,0,0-2.775,5.975,2.676,2.676,0,0,0,.781,2.035c1.211,1.144,3.55,1.011,4.674.947C1880.823,776.806,1880.987,776.8,1881.108,776.8Z" transform="translate(-1874.925 -754.444)" fill="#d3a075"/>
        </g>
        <g id="Group_10655" data-name="Group 10655" transform="translate(49.716 29.471)">
          <path id="Path_15085" data-name="Path 15085" d="M2163.584,1231.294c-.294-1.218,0-3.823,1.554-4.117S2163.584,1231.294,2163.584,1231.294Z" transform="translate(-2163.362 -1227.045)" fill="#ffdbb1"/>
          <path id="Path_15086" data-name="Path 15086" d="M2161.649,1229.738l-.061-.252a5,5,0,0,1,.5-3.433,1.739,1.739,0,0,1,1.146-.828c.3-.057.44.051.5.151.131.2.19.672-.807,2.38-.534.916-1.129,1.761-1.135,1.769Zm1.744-4.294a.626.626,0,0,0-.114.012,1.512,1.512,0,0,0-.992.724,4.8,4.8,0,0,0-.522,2.981c.212-.312.6-.9.966-1.524.938-1.607.88-2.028.811-2.134A.165.165,0,0,0,2163.393,1225.444Z" transform="translate(-2161.481 -1225.21)" fill="#d3a075"/>
        </g>
        <g id="Group_10656" data-name="Group 10656" transform="translate(64.521 23.591)">
          <path id="Path_15087" data-name="Path 15087" d="M2411.095,1129.173s1.891,3.529,2.773,3.4S2412.313,1128.627,2411.095,1129.173Z" transform="translate(-2410.932 -1129.003)" fill="#ffdbb1"/>
          <path id="Path_15088" data-name="Path 15088" d="M2411.268,1130.86c-.416,0-1-.561-1.769-1.709-.58-.862-1.057-1.75-1.062-1.759l-.06-.111.115-.051c.376-.169.87,0,1.428.488.88.771,1.853,2.318,1.678,2.9a.314.314,0,0,1-.269.234A.435.435,0,0,1,2411.268,1130.86Zm-2.555-3.453c.731,1.338,2.017,3.3,2.584,3.216a.082.082,0,0,0,.077-.068c.122-.411-.689-1.857-1.608-2.661A1.469,1.469,0,0,0,2408.713,1127.407Z" transform="translate(-2408.378 -1127.166)" fill="#d3a075"/>
        </g>
        <g id="Group_10657" data-name="Group 10657" transform="translate(68.636 23.557)">
          <path id="Path_15089" data-name="Path 15089" d="M2480,1132.073s-3.151-1.577,1.429-2.952C2481.431,1129.121,2481.936,1132.451,2480,1132.073Z" transform="translate(-2478.829 -1128.97)" fill="#ffdbb1"/>
          <path id="Path_15090" data-name="Path 15090" d="M2478.455,1129.849a1.64,1.64,0,0,1-.314-.032l-.016,0-.014-.007c-.049-.024-1.189-.6-1.119-1.418.058-.668.921-1.257,2.566-1.751l.129-.039.02.134c.013.084.3,2.063-.492,2.823A1.06,1.06,0,0,1,2478.455,1129.849Zm-.252-.26a.91.91,0,0,0,.851-.2c.6-.572.489-2.031.439-2.483-1.81.564-2.233,1.128-2.266,1.506C2477.173,1129.024,2478.079,1129.524,2478.2,1129.589Z" transform="translate(-2476.989 -1126.598)" fill="#d3a075"/>
        </g>
        <g id="Group_10658" data-name="Group 10658" transform="translate(75.152 25.623)">
          <path id="Path_15091" data-name="Path 15091" d="M2587.6,1163.14s-.126.889,1.177,1.306-.388,1.383,1.822,1.215,2.3.627,2.043.019S2590.247,1162.426,2587.6,1163.14Z" transform="translate(-2587.481 -1162.901)" fill="#ffdbb1"/>
          <path id="Path_15092" data-name="Path 15092" d="M2590.917,1164.185a.294.294,0,0,1-.114-.033,3.9,3.9,0,0,0-2.017-.219c-.688.052-1.058,0-1.239-.163a.563.563,0,0,1-.142-.453c0-.241,0-.45-.487-.6-1.381-.442-1.258-1.424-1.257-1.434l.011-.077.075-.02c2.726-.736,4.917,1.972,5.181,2.608.028.067.051.116.068.152.033.07.068.142,0,.206A.113.113,0,0,1,2590.917,1164.185Zm-1.54-.51a3.971,3.971,0,0,1,1.324.183,5.463,5.463,0,0,0-1.573-1.693,3.947,3.947,0,0,0-3.236-.778c.007.208.118.788,1.1,1.1.646.207.648.565.65.827,0,.141,0,.224.066.282.122.112.479.146,1.062.1C2588.992,1163.682,2589.194,1163.675,2589.377,1163.675Z" transform="translate(-2585.659 -1161.056)" fill="#d3a075"/>
        </g>
        <g id="Group_10659" data-name="Group 10659" transform="translate(68.573 29.13)">
          <path id="Path_15093" data-name="Path 15093" d="M2477.983,1228.878s-.75-4.37,2.99-5.168c0,0,2.731-2.815,4.159-2.143s-.42,1.849.967,1.891,1.04-1.807,1.4-1.639,2.42,4.748.614,7.058-3.487,1.322-3.991.3S2480.455,1228.289,2477.983,1228.878Z" transform="translate(-2477.804 -1221.347)" fill="#ffdbb1"/>
          <path id="Path_15094" data-name="Path 15094" d="M2483.99,1228.584a1.881,1.881,0,0,1-.192-.01,2.131,2.131,0,0,1-1.633-1.165c-.208-.421-1-.665-2.229-.689a15.855,15.855,0,0,0-3.779.447l-.122.029-.021-.123a6.47,6.47,0,0,1,.094-2.331,3.725,3.725,0,0,1,2.952-2.964c.3-.3,2.84-2.814,4.269-2.141a.97.97,0,0,1,.549,1.363c-.049.17-.1.331-.042.406.033.046.132.1.413.11.807.023.953-.656,1.061-1.153.054-.251.09-.417.211-.477a.2.2,0,0,1,.176,0,6.409,6.409,0,0,1,1.16,2.7c.327,1.359.506,3.25-.5,4.54A3.084,3.084,0,0,1,2483.99,1228.584Zm-4.251-2.1.2,0c.934.018,2.116.175,2.435.82a1.89,1.89,0,0,0,1.447,1.035,2.8,2.8,0,0,0,2.347-1.359,4.812,4.812,0,0,0,.59-3.7,8.584,8.584,0,0,0-1.143-3.159,1.951,1.951,0,0,0-.078.3c-.111.512-.3,1.367-1.3,1.338-.31-.009-.5-.075-.6-.207-.122-.168-.06-.382.006-.609.111-.383.226-.779-.424-1.085-1.337-.629-4,2.091-4.025,2.118l-.025.026-.035.007a3.452,3.452,0,0,0-2.807,2.8,6.389,6.389,0,0,0-.108,2.114A16.318,16.318,0,0,1,2479.74,1226.484Z" transform="translate(-2475.951 -1219.523)" fill="#d3a075"/>
        </g>
      </g>
    </g>
    <ellipse id="Ellipse_527" data-name="Ellipse 527" cx="11.369" cy="0.848" rx="11.369" ry="0.848" transform="translate(110.716 101.181)" fill="#030504" opacity="0.1"/>
    <ellipse id="Ellipse_528" data-name="Ellipse 528" cx="10.784" cy="0.648" rx="10.784" ry="0.648" transform="translate(25.008 101.38)" fill="#030504" opacity="0.1"/>
    <g id="Globe" transform="translate(106.338 63.029)">
      <g id="Group_10661" data-name="Group 10661" transform="translate(12.947 32.019)">
        <path id="Path_15095" data-name="Path 15095" d="M2379.261,1798.9h-6.146l.654-4.84h4.84Z" transform="translate(-2373.115 -1794.061)" fill="#023"/>
      </g>
      <g id="Group_10662" data-name="Group 10662" transform="translate(11.413)">
        <path id="Path_15096" data-name="Path 15096" d="M2357.885,1292.96a.675.675,0,0,1-.645-.477l-9.686-31.5a.675.675,0,0,1,1.29-.4l9.686,31.5a.676.676,0,0,1-.645.873Z" transform="translate(-2347.524 -1260.111)" fill="#023"/>
      </g>
      <g id="Group_10664" data-name="Group 10664" transform="translate(3.15 3.958)">
        <g id="Group_10663" data-name="Group 10663">
          <path id="Path_15097" data-name="Path 15097" d="M2235.475,1338.991a12.828,12.828,0,1,1-.732-4.29A12.809,12.809,0,0,1,2235.475,1338.991Z" transform="translate(-2209.734 -1326.121)" fill="#0065a2"/>
        </g>
      </g>
      <g id="Group_10666" data-name="Group 10666" transform="translate(0 0.867)">
        <g id="Group_10665" data-name="Group 10665">
          <path id="Path_15098" data-name="Path 15098" d="M2173.229,1306.558a16.021,16.021,0,0,1-2.209-31.889l.668-.092.184,1.337-.668.092a14.672,14.672,0,0,0,2.025,29.2,14.523,14.523,0,0,0,6.488-1.509l.6-.3.6,1.21-.605.3a15.937,15.937,0,0,1-3.391,1.22A16.107,16.107,0,0,1,2173.229,1306.558Z" transform="translate(-2157.208 -1274.576)" fill="#042840"/>
        </g>
      </g>
      <g id="Group_10667" data-name="Group 10667" transform="translate(7.411 36.859)">
        <path id="Path_15099" data-name="Path 15099" d="M2286.328,1874.771s-5.536.62-5.536,2.14h8.61v-2.14Z" transform="translate(-2280.792 -1874.771)" fill="#042840"/>
      </g>
      <g id="Group_10668" data-name="Group 10668" transform="translate(16.02 36.859)">
        <path id="Path_15100" data-name="Path 15100" d="M2427.435,1874.771s5.537.62,5.537,2.14h-8.61v-2.14Z" transform="translate(-2424.362 -1874.771)" fill="#042840"/>
      </g>
      <path id="Path_15101" data-name="Path 15101" d="M2313,1567.057c-.309.661-3.967,2.115-4.5,3.129a11.1,11.1,0,0,0-.531,2.3,12.873,12.873,0,0,1-1.228-.712,7.893,7.893,0,0,1,.3-2.2c.353-.925,1.014-1.939.617-2.821s-.849-2.644-.4-3,1.592-1.454,1.592-1.454,2.6,2.456,2.688,2.947S2313.3,1566.4,2313,1567.057Z" transform="translate(-2297.774 -1544.176)" fill="#6db22f"/>
      <path id="Path_15102" data-name="Path 15102" d="M2476.677,1473.5a12.812,12.812,0,0,1-2.129,7.093c-1.1.64-2.594,1.5-3.086,1.695-.808.323-1.213,1.415-2.021,1.616s-2.3.526-2.062,0,.2-1.334.889-1.859,1.455-.93.646-1.617-1.536-.323-2.142-1.01c0,0-.687-1.135-.364-1.679s.606-1.878,1.5-2.161a5.474,5.474,0,0,0,1.536-.786s-.162-2.164.282-2.083,1.577-.445,1.375-1.01.849-1.617.849-1.617a2.327,2.327,0,0,1,0,1.9s1.334-.727,1.374-1.616c.025-.563,1.527-.948,2.624-1.155A12.845,12.845,0,0,1,2476.677,1473.5Z" transform="translate(-2447.786 -1456.671)" fill="#6db22f"/>
      <path id="Path_15103" data-name="Path 15103" d="M2285.019,1329.91l-2.377,2.248s-1.62.035-2.584.1-.93.724-1.309.792-.862-.792-.689-1.585a4.348,4.348,0,0,0-.176-2.619,2.458,2.458,0,0,0-2.339-.413c-.724.241,1.9,2.619,1.241,2.516s-.793.9-.793.9a14.465,14.465,0,0,1,.345,3.067c-.138.689-2.55-.034-3.583.345s-1.482,1.654-1.758,2.274-.138-.827-.344-1.378-1.447.414-1.812,1.034.916.482.916.482,1,2.481.311,3.067-2.171-2.86-2.378-3.2.1-1.9-.345-2.86a26.317,26.317,0,0,1-.914-4.4,12.87,12.87,0,0,1,18.591-.366Z" transform="translate(-2259.878 -1322.162)" fill="#6db22f"/>
    </g>
    <g id="Group_10676" data-name="Group 10676" transform="translate(23.117 26.701)">
      <g id="Group_10675" data-name="Group 10675">
        <rect id="Rectangle_1162" data-name="Rectangle 1162" width="13.776" height="2.908" rx="1.454" transform="translate(4.327 22.122)" fill="#311a0d"/>
        <path id="Rectangle_1163" data-name="Rectangle 1163" d="M6.139,0H6.98a6.139,6.139,0,0,1,6.139,6.139v0A6.139,6.139,0,0,1,6.98,12.278H6.139A6.139,6.139,0,0,1,0,6.139v0A6.139,6.139,0,0,1,6.139,0Z" transform="translate(5.149 28.168)" fill="#311a0d"/>
        <rect id="Rectangle_1164" data-name="Rectangle 1164" width="2.864" height="7.389" rx="1.432" transform="translate(4.327 33.308)" fill="#402111"/>
        <rect id="Rectangle_1165" data-name="Rectangle 1165" width="12.515" height="7.942" rx="3.971" transform="translate(5.533 22.122)" fill="#311a0d"/>
        <g id="Group_10671" data-name="Group 10671">
          <path id="Path_15104" data-name="Path 15104" d="M1042.748,1866.079s2.282.65,3.623-.417c0,0,2.068,2.168,4.285,2.332,0,0,.383.41,0,.492s-4.733.246-5.554-.356a2.87,2.87,0,0,1-2.353-.109C1042.175,1867.667,1042.748,1866.079,1042.748,1866.079Z" transform="translate(-1026.119 -1793.021)" fill="#171616"/>
          <path id="Path_15105" data-name="Path 15105" d="M813.934,1864.222s-2.223.633-3.529-.406c0,0-2.015,2.112-4.174,2.272,0,0-.373.4,0,.48s4.611.24,5.411-.346a2.8,2.8,0,0,0,2.292-.107C814.493,1865.768,813.934,1864.222,813.934,1864.222Z" transform="translate(-803.869 -1791.285)" fill="#171616"/>
          <path id="Path_15106" data-name="Path 15106" d="M875.759,1365.912l-1.234,30.015s2.472,1.157,3.775.266l.81-12.6,2.573-11.447,4.34,11.242-1.234,12.94s3.069.647,3.975-.451l1.467-13.336a3.06,3.06,0,0,0-.065-1.036l-3.443-14.523S878.862,1368.311,875.759,1365.912Z" transform="translate(-868.223 -1323.239)" fill="#553230"/>
          <path id="Path_15107" data-name="Path 15107" d="M960.83,996.2a2.147,2.147,0,0,0,1.323-.5l-.141,3.6h-3.427l-.452-4.233A3.521,3.521,0,0,0,960.83,996.2Z" transform="translate(-946.818 -974.643)" fill="#ffd5ab"/>
          <path id="Path_15108" data-name="Path 15108" d="M958.3,955.727l-.1,2.493a1.779,1.779,0,0,1-1.423.646,2.94,2.94,0,0,1-2.731-2.067l-.132-1.231Z" transform="translate(-942.855 -937.502)" fill="#f3dfc3"/>
          <path id="Path_15109" data-name="Path 15109" d="M950.078,889.2a1.779,1.779,0,0,1-1.424.646,2.94,2.94,0,0,1-2.731-2.067,10.06,10.06,0,0,1-.649-3.581l.591-.561,1.1-1.044,3.658-.449a20.29,20.29,0,0,1,.328,3.351A6,6,0,0,1,950.078,889.2Z" transform="translate(-934.729 -868.487)" fill="#ffd5ab"/>
          <path id="Path_15110" data-name="Path 15110" d="M960.264,977.524l-.013.345a2.147,2.147,0,0,1-1.323.5,3.521,3.521,0,0,1-2.7-1.126l-.121-1.138a2.94,2.94,0,0,0,2.731,2.067A1.779,1.779,0,0,0,960.264,977.524Z" transform="translate(-944.915 -956.806)" fill="#deb995"/>
          <path id="Path_15111" data-name="Path 15111" d="M950.078,912.6a1.779,1.779,0,0,1-1.424.646,2.94,2.94,0,0,1-2.731-2.067,10.059,10.059,0,0,1-.649-3.581l.591-.561,5.086,1.859A6.005,6.005,0,0,1,950.078,912.6Z" transform="translate(-934.729 -891.885)" fill="#ffd5ab"/>
          <path id="Path_15112" data-name="Path 15112" d="M932.281,860.857s4.431-.4,5.117-1.1c0,0-1.895-1.871-3.452-1.871a3.192,3.192,0,0,0-2.451,1.679s-2.139,1.3.812,5.79Z" transform="translate(-921.073 -845.68)" fill="#252626"/>
          <ellipse id="Ellipse_529" data-name="Ellipse 529" cx="0.597" cy="0.97" rx="0.597" ry="0.97" transform="matrix(0.817, -0.576, 0.576, 0.817, 9.841, 16.607)" fill="#ffd5ab"/>
          <path id="Path_15113" data-name="Path 15113" d="M899.049,1021.675l-.82.948-3.13.866v19.9s6.023,1.89,10.964,0v-19.8l-2.6-.768-.566-.906-1.952,1.87Z" transform="translate(-887.563 -999.645)" fill="#ffb33a"/>
          <path id="Path_15114" data-name="Path 15114" d="M1085.064,1063.772l-2.139,1.678s-.555.4-.951,0-4.038-5.606-4.038-5.606v-6.273s.566.35,2.065,2.815,3.069,4.942,3.069,4.942l.759-.433A6.921,6.921,0,0,0,1085.064,1063.772Z" transform="translate(-1059.435 -1029.628)" fill="#ffb33a"/>
          <path id="Path_15115" data-name="Path 15115" d="M776.965,1051.936v5.826s-4.16,3.132-4.234,5.376a2.71,2.71,0,0,0,.321,1.238,7.514,7.514,0,0,0-2.31,1.592l-.033-.043a5.009,5.009,0,0,1-1.06-4.808C771.5,1056.677,776.965,1051.936,776.965,1051.936Z" transform="translate(-769.429 -1028.091)" fill="#ffb33a"/>
          <path id="Path_15116" data-name="Path 15116" d="M1185.174,1087.445a2.845,2.845,0,0,1-.708,1.8,4.531,4.531,0,0,1-1.485.375l-5.541,4.346a6.926,6.926,0,0,1-1.236-2.877l5.12-2.924s.749-3.127,2.9-2.349A1.889,1.889,0,0,1,1185.174,1087.445Z" transform="translate(-1151.811 -1059.823)" fill="#ffd5ab"/>
          <path id="Path_15117" data-name="Path 15117" d="M949.859,1023.618l-1.356,1.31-1.211-2.3.82-.948Z" transform="translate(-936.626 -999.644)" fill="#ffd792"/>
          <path id="Path_15118" data-name="Path 15118" d="M995.1,1027.4l1.181,1.428,1.188-2.249-.566-.906Z" transform="translate(-981.569 -1003.403)" fill="#ffd792"/>
          <path id="Path_15119" data-name="Path 15119" d="M1163.656,1169.719v1.861a2.789,2.789,0,0,0,1.19,1.541l.8-.443.422-.522a5.934,5.934,0,0,1-1.053-1.553,2.6,2.6,0,0,1-.153-1.516Z" transform="translate(-1140.016 -1138.218)" fill="#ffd792"/>
          <g id="Group_10670" data-name="Group 10670" transform="translate(4.789)">
            <g id="Group_10669" data-name="Group 10669">
              <rect id="Rectangle_1166" data-name="Rectangle 1166" width="2.552" height="6.824" transform="matrix(0.588, 0.809, -0.809, 0.588, 27.606, 24.369)" fill="#f5711c"/>
              <path id="Path_15120" data-name="Path 15120" d="M1287.825,661.012a16.312,16.312,0,1,0-3.589,22.788A16.312,16.312,0,0,0,1287.825,661.012Zm-25.079,18.254a14.707,14.707,0,1,1,20.545,3.236A14.707,14.707,0,0,1,1262.746,679.266Z" transform="translate(-1233.794 -654.298)" fill="#0f3551"/>
              <circle id="Ellipse_530" data-name="Ellipse 530" cx="14.707" cy="14.707" r="14.707" transform="translate(26.135 1.606)" fill="#8bd5f0" opacity="0.5"/>
              <path id="Path_15121" data-name="Path 15121" d="M873.384,1116.946l-21.4,15.578a1.317,1.317,0,0,1-1.834-.289l-.614-.844a1.317,1.317,0,0,1,.289-1.834l21.4-15.578a1.312,1.312,0,0,1,1.185-.183l1.513,2.079A1.312,1.312,0,0,1,873.384,1116.946Z" transform="translate(-849.283 -1086.179)" fill="#0f3551"/>
            </g>
            <rect id="Rectangle_1167" data-name="Rectangle 1167" width="25.949" height="3.67" transform="matrix(0.809, -0.588, 0.588, 0.809, 0.78, 43.203)" fill="#0f3551"/>
          </g>
          <path id="Path_15122" data-name="Path 15122" d="M799.005,1267.667c-1.259.251-2.318-1.624-2.318-1.624a32.063,32.063,0,0,1-5.367-5.086,7.514,7.514,0,0,1,2.31-1.592c1.032,2.126,4.191,4.606,4.191,4.606l1.6.765A1.55,1.55,0,0,1,799.005,1267.667Z" transform="translate(-790.007 -1223.081)" fill="#ffd5ab"/>
        </g>
        <g id="Group_10672" data-name="Group 10672" transform="translate(8.059 30.104)">
          <path id="Path_15123" data-name="Path 15123" d="M907.333,1167.319a2.3,2.3,0,0,1-.936.188,5.189,5.189,0,0,1-1.332-.043,4.829,4.829,0,0,1-1.24-.358l.276-3.849h3.062Z" transform="translate(-903.825 -1162.842)" fill="#ffc05a"/>
          <path id="Path_15124" data-name="Path 15124" d="M925.842,1163.258v4.25a5.19,5.19,0,0,1-1.332-.043v-4.207Z" transform="translate(-923.27 -1162.842)" fill="#f7b755"/>
          <path id="Path_15125" data-name="Path 15125" d="M905.769,1156.313a8.733,8.733,0,0,0,3.392,0v.747l-1.623.766-1.769-.827Z" transform="translate(-905.652 -1156.313)" fill="#ffc05a"/>
          <path id="Path_15126" data-name="Path 15126" d="M932.938,1172.79a.182.182,0,1,1-.183-.182A.182.182,0,0,1,932.938,1172.79Z" transform="translate(-930.849 -1171.63)" fill="#505151"/>
        </g>
        <g id="Group_10673" data-name="Group 10673" transform="translate(14.856 29.713)">
          <path id="Path_15127" data-name="Path 15127" d="M1020.9,1160.877a2.3,2.3,0,0,1-.93.217,5.2,5.2,0,0,1-1.332,0,4.837,4.837,0,0,1-1.251-.32l.158-3.856,3.061-.094Z" transform="translate(-1017.376 -1156.401)" fill="#ffc05a"/>
          <path id="Path_15128" data-name="Path 15128" d="M1037.436,1157.213l.13,4.248a5.193,5.193,0,0,1-1.333,0l-.128-4.2Z" transform="translate(-1034.969 -1156.768)" fill="#f7b755"/>
          <path id="Path_15129" data-name="Path 15129" d="M1017.16,1149.9a8.73,8.73,0,0,0,3.39-.1l.023.746-1.6.815-1.793-.773Z" transform="translate(-1017.16 -1149.794)" fill="#ffc05a"/>
          <path id="Path_15130" data-name="Path 15130" d="M1044.905,1167.072a.182.182,0,1,1-.188-.177A.182.182,0,0,1,1044.905,1167.072Z" transform="translate(-1042.899 -1165.87)" fill="#505151"/>
        </g>
        <g id="Group_10674" data-name="Group 10674" transform="translate(13.326 24.139)">
          <rect id="Rectangle_1168" data-name="Rectangle 1168" width="0.116" height="20.47" transform="translate(0 0.001) rotate(-0.693)" fill="#c4882c"/>
        </g>
        <path id="Path_15131" data-name="Path 15131" d="M889.756,1042.99l.46,5.541-.868,5.78h.345l1.372-5.724.4-5.773Z" transform="translate(-882.156 -1019.515)" fill="#311a0d"/>
        <path id="Path_15132" data-name="Path 15132" d="M1049.825,1044.606l1.589,5.641.1,5.144.144-.015.337-1.1.147-4.027-1.157-5.3Z" transform="translate(-1033.011 -1021.2)" fill="#311a0d"/>
        <g id="hat-adventurer" transform="translate(7.535 10.258)">
          <path id="Path_15133" data-name="Path 15133" d="M897.039,875.029l-1.958,1.828s4.223.857,10.42-1.809l-2.242-1.1Z" transform="translate(-895.081 -871.035)" fill="#ffb13a"/>
          <path id="Path_15134" data-name="Path 15134" d="M932.334,828.275a20.28,20.28,0,0,1-6.22,1.08q-.026-.385-.052-.769c-.074-1.093.023-1.2-.051-2.288.806-.081,1.659-.193,2.554-.344,1.012-.171,1.959-.373,2.836-.591.307,1.086.443,1.18.75,2.265Z" transform="translate(-924.156 -825.361)" fill="#ffb13a"/>
          <path id="Path_15135" data-name="Path 15135" d="M933.129,863.781a20.279,20.279,0,0,1-6.22,1.08l-.052-.769a21.807,21.807,0,0,0,6.089-.959Z" transform="translate(-924.951 -860.867)" fill="#ee5743"/>
        </g>
      </g>
      <path id="Path_15136" data-name="Path 15136" d="M774.125,1240.746s2.455-1.631,2.455-1.631l-.288-1.378-2.558.505-.7.643a1.527,1.527,0,0,0,.24.876A6.414,6.414,0,0,0,774.125,1240.746Z" transform="translate(-772.813 -1202.75)" fill="#ffd792"/>
    </g>
    <g id="wind-arrow-symbol-2" data-name="wind-arrow-symbol" transform="translate(119.886)">
      <g id="Group_10677" data-name="Group 10677" transform="translate(0 20.11)">
        <path id="Path_15137" data-name="Path 15137" d="M2403.276,548.806h-20.134l17.981-3.022,1.489,2.091Z" transform="translate(-2383.143 -545.7)" fill="#0f3551"/>
        <path id="Path_15138" data-name="Path 15138" d="M2770.033,544.386v.024l-.016-.012Z" transform="translate(-2746.817 -544.386)" fill="#080808"/>
        <path id="Path_15139" data-name="Path 15139" d="M2821.333,595.927h-.022l.011-.016Z" transform="translate(-2795.035 -592.821)" fill="#080808"/>
        <path id="Path_15140" data-name="Path 15140" d="M2773.307,649.911l-3.022,17.982v-20.11l.017-.012.915.651Z" transform="translate(-2747.069 -641.571)" fill="#f1f1f2"/>
        <path id="Path_15141" data-name="Path 15141" d="M2403.287,596.2l-.667.958-1.434,2.058-18.044-3.033h20.134Z" transform="translate(-2383.143 -593.073)" fill="#f1f1f2"/>
        <path id="Path_15142" data-name="Path 15142" d="M2718.909,596.179l-.011.016-.011-.016Z" transform="translate(-2698.753 -593.073)" fill="#f1f1f2"/>
        <rect id="Rectangle_1169" data-name="Rectangle 1169" transform="translate(23.216 3.106)" fill="#f1f1f2"/>
        <path id="Path_15143" data-name="Path 15143" d="M2770.3,647.589l-.017.012v-.024Z" transform="translate(-2747.069 -641.389)" fill="#f1f1f2"/>
      </g>
      <g id="Group_10678" data-name="Group 10678" transform="translate(20.133)">
        <path id="Path_15144" data-name="Path 15144" d="M2773.3,226.954l-2.124,1.547-.887.646v-20.11Z" transform="translate(-2767.202 -209.037)" fill="#0f3551"/>
        <path id="Path_15145" data-name="Path 15145" d="M2825.045,539.518l-.061-.01.051-.051Z" transform="translate(-2818.622 -519.643)" fill="#080808"/>
        <path id="Path_15146" data-name="Path 15146" d="M2841.635,548.645H2821.5l-.012-.016.668-.959,1.433-2.058Z" transform="translate(-2815.337 -525.43)" fill="#f1f1f2"/>
        <path id="Path_15147" data-name="Path 15147" d="M2841.816,596.179l-17.981,3.022-1.489-2.091-.663-.931Z" transform="translate(-2815.518 -572.963)" fill="#0f3551"/>
        <path id="Path_15148" data-name="Path 15148" d="M2821.333,595.927h-.022l.011-.016Z" transform="translate(-2815.169 -572.712)" fill="#080808"/>
        <rect id="Rectangle_1170" data-name="Rectangle 1170" transform="translate(3.082 23.216)" fill="#080808"/>
        <path id="Path_15149" data-name="Path 15149" d="M2770.3,647.589l-.017.012v-.024Z" transform="translate(-2767.202 -621.279)" fill="#080808"/>
        <path id="Path_15150" data-name="Path 15150" d="M2718.909,596.179l-.011.016-.011-.016Z" transform="translate(-2718.886 -572.963)" fill="#f1f1f2"/>
        <path id="Path_15151" data-name="Path 15151" d="M2722.912,209.037V229.17l-.016-.012-.915-.652-2.091-1.489Z" transform="translate(-2719.83 -209.037)" fill="#f1f1f2"/>
        <path id="Path_15152" data-name="Path 15152" d="M2770.033,544.386v.024l-.016-.012Z" transform="translate(-2766.95 -524.277)" fill="#f1f1f2"/>
      </g>
      <g id="Group_10679" data-name="Group 10679" transform="translate(12.505 12.505)">
        <path id="Path_15153" data-name="Path 15153" d="M2602.391,425.2v3.082l-1.8-1.8-1.543-1.543-7.37-7.37,7.688,5.475,2.091,1.489.915.652Z" transform="translate(-2591.68 -417.575)" fill="#0f3551"/>
        <rect id="Rectangle_1171" data-name="Rectangle 1171" transform="translate(10.71 10.71)" fill="#080808"/>
        <path id="Path_15154" data-name="Path 15154" d="M2821.333,595.927h-.022l.011-.016Z" transform="translate(-2807.541 -585.217)" fill="#080808"/>
        <path id="Path_15155" data-name="Path 15155" d="M2602.391,428.285h-3.082l-.664-.931-1.489-2.091-5.476-7.688,7.37,7.37,1.543,1.543Z" transform="translate(-2591.68 -417.575)" fill="#f1f1f2"/>
        <path id="Path_15156" data-name="Path 15156" d="M2718.909,596.179l-.011.016-.011-.016Z" transform="translate(-2711.258 -585.469)" fill="#f1f1f2"/>
      </g>
      <g id="Group_10680" data-name="Group 10680" transform="translate(12.619 12.392)">
        <path id="Path_15157" data-name="Path 15157" d="M2780.888,415.694l-5.425,7.791-1.433,2.058-.668.959-.011.016h-3.059l1.778-1.816,1.5-1.534.06.01-.01-.062Z" transform="translate(-2759.695 -415.694)" fill="#0f3551"/>
        <path id="Path_15158" data-name="Path 15158" d="M2781,606.889l-10.71-10.71h3.082l.663.931,1.49,2.091Z" transform="translate(-2759.695 -585.356)" fill="#f1f1f2"/>
        <path id="Path_15159" data-name="Path 15159" d="M2781,606.9l-7.688-5.476-2.091-1.489-.915-.651-.017-.012v-3.082h0Z" transform="translate(-2759.688 -585.363)" fill="#0f3551"/>
        <path id="Path_15160" data-name="Path 15160" d="M2723.086,647.971v20.11l-3.011-17.917,2.123-1.546Z" transform="translate(-2712.49 -634.042)" fill="#0f3551"/>
        <path id="Path_15161" data-name="Path 15161" d="M2604.18,596.186v3.105l-.889.647-2.122,1.546-7.585,5.525,7.267-7.422.049-.05,1.5-1.535Z" transform="translate(-2593.583 -585.363)" fill="#f1f1f2"/>
        <path id="Path_15162" data-name="Path 15162" d="M2770.3,647.589l-.017.012v-.024Z" transform="translate(-2759.688 -633.672)" fill="#080808"/>
        <path id="Path_15163" data-name="Path 15163" d="M2825.045,539.518l-.061-.01.051-.051Z" transform="translate(-2811.108 -532.035)" fill="#080808"/>
        <path id="Path_15164" data-name="Path 15164" d="M2780.881,415.694l-7.266,7.422-.05.051-1.5,1.534-1.778,1.816h0v-3.106l.887-.647,2.124-1.547Z" transform="translate(-2759.688 -415.694)" fill="#f1f1f2"/>
        <path id="Path_15165" data-name="Path 15165" d="M2604.18,596.179h0l-1.778,1.815-1.5,1.535-.049.05L2593.583,607l5.425-7.79,1.433-2.058.667-.958.012-.016Z" transform="translate(-2593.583 -585.356)" fill="#0f3551"/>
        <rect id="Rectangle_1172" data-name="Rectangle 1172" transform="translate(10.596 10.823)" fill="#f1f1f2"/>
      </g>
    </g>
  </g>
</svg>
