<svg xmlns="http://www.w3.org/2000/svg" width="33.4" height="43.656" viewBox="0 0 33.4 43.656">
  <g id="vector_-_footsteps" data-name="vector - footsteps" transform="matrix(-0.469, 0.883, -0.883, -0.469, 40.873, 14.401)">
    <g id="Group_10772" data-name="Group 10772" transform="translate(18.732)">
      <g id="Group_10770" data-name="Group 10770" transform="translate(0.967 0)">
        <path id="Path_15336" data-name="Path 15336" d="M9.85,22.212a.48.48,0,0,1-.15-.024l-9.164-3a.482.482,0,0,1-.326-.536,21.872,21.872,0,0,0,.3-3.16h0A11.162,11.162,0,0,0,.34,13.416,21.247,21.247,0,0,1,.208,6.758C.233,6.6.848,2.947,3.491,1.016A5.377,5.377,0,0,1,9.718.97a8.734,8.734,0,0,1,3.557,6.163c.579,3.812-.424,8.787-2.981,14.785A.483.483,0,0,1,9.85,22.212ZM1.227,18.4l8.352,2.737c5.375-12.869,2.064-17.656-.41-19.368A4.411,4.411,0,0,0,4.06,1.8c-2.325,1.7-2.894,5.081-2.9,5.115a20.26,20.26,0,0,0,.13,6.341A12.134,12.134,0,0,1,1.474,15.5,22.32,22.32,0,0,1,1.227,18.4Z" fill="#a0d6d4"/>
      </g>
      <g id="Group_10771" data-name="Group 10771" transform="translate(0 20.973)">
        <path id="Path_15337" data-name="Path 15337" d="M4.254,9.2a5.508,5.508,0,0,1-.872-.071A4.037,4.037,0,0,1,.894,7.386C-.074,5.938-.257,3.873.351,1.249c.023-.1.051-.2.086-.318S.53.617.6.357A.483.483,0,0,1,1.216.024L9.83,2.847a.483.483,0,0,1,.291.654c-.2.462-.413.951-.619,1.455C8.954,6.291,7.4,9.2,4.254,9.2ZM1.394,1.1c-.012.043-.024.08-.034.112-.028.094-.051.178-.069.257-.542,2.341-.41,4.146.392,5.365A3.068,3.068,0,0,0,3.541,8.175,3.876,3.876,0,0,0,6.964,7.1,7.351,7.351,0,0,0,8.609,4.589c.138-.338.278-.669.416-.991Z" fill="#a0d6d4"/>
      </g>
    </g>
    <g id="Group_10775" data-name="Group 10775" transform="translate(0 8.463)">
      <g id="Group_10773" data-name="Group 10773" transform="translate(0 0)">
        <path id="Path_15338" data-name="Path 15338" d="M3.584,22.212a.483.483,0,0,1-.444-.293C.583,15.92-.42,10.946.159,7.133A8.735,8.735,0,0,1,3.716.97a5.377,5.377,0,0,1,6.227.046C12.586,2.947,13.2,6.6,13.226,6.757a21.252,21.252,0,0,1-.132,6.659,11.162,11.162,0,0,0-.169,2.072h0a21.856,21.856,0,0,0,.3,3.16.483.483,0,0,1-.326.536l-9.163,3A.482.482,0,0,1,3.584,22.212ZM6.813.965a4.474,4.474,0,0,0-2.547.8c-2.473,1.712-5.784,6.5-.41,19.368L12.207,18.4A22.309,22.309,0,0,1,11.96,15.5h0a12.14,12.14,0,0,1,.183-2.252,20.26,20.26,0,0,0,.13-6.341c-.005-.033-.582-3.422-2.9-5.115A4.333,4.333,0,0,0,6.813.965Z" fill="#a0d6d4"/>
      </g>
      <g id="Group_10774" data-name="Group 10774" transform="translate(4.239 20.973)">
        <path id="Path_15339" data-name="Path 15339" d="M5.907,9.2A4.78,4.78,0,0,1,2.535,7.8,8.32,8.32,0,0,1,.66,4.955C.454,4.452.246,3.962.041,3.5a.482.482,0,0,1,.291-.654L8.946.024a.483.483,0,0,1,.616.333c.07.26.127.456.163.574s.063.218.086.318c.608,2.624.425,4.689-.543,6.138a4.038,4.038,0,0,1-2.486,1.74A5.556,5.556,0,0,1,5.907,9.2ZM1.137,3.6c.138.322.278.653.416.991A7.353,7.353,0,0,0,3.2,7.1a3.878,3.878,0,0,0,3.429,1.07A3.071,3.071,0,0,0,8.479,6.831c.8-1.218.935-3.023.392-5.365C8.853,1.388,8.83,1.3,8.8,1.21L8.768,1.1Z" fill="#a0d6d4"/>
      </g>
    </g>
  </g>
</svg>
