<svg id="vector_-_dummy_2" data-name="vector - dummy 2" xmlns="http://www.w3.org/2000/svg" xmlns:xlink="http://www.w3.org/1999/xlink" width="495.479" height="276.309" viewBox="0 0 495.479 276.309">
  <defs>
    <linearGradient id="linear-gradient" x1="0.5" y1="-5.159" x2="0.499" y2="12.451" gradientUnits="objectBoundingBox">
      <stop offset="0" stop-color="#fff"/>
      <stop offset="1"/>
    </linearGradient>
  </defs>
  <g id="Group_10715" data-name="Group 10715" transform="translate(301.155 12.921)" opacity="0.8">
    <g id="Group_10714" data-name="Group 10714">
      <path id="Path_15166" data-name="Path 15166" d="M2739.09,1398.378c-.865,2.754-14.884,29.6-69.181,33.8,0,0,9.662-9.133,31.185-16.443,21.039-7.141,35.493-14.1,37.74-17.187a1.823,1.823,0,0,0,.136-.208C2739.13,1398.064,2739.181,1398.093,2739.09,1398.378Z" transform="translate(-2625.025 -1255.417)" fill="#3d897a"/>
      <path id="Path_15167" data-name="Path 15167" d="M2413.67,1241.961a.011.011,0,0,1-.006-.005c-.405-.367-26.5-23.886-30.548-32-4.22-8.454-6.762-20.438-9.4-29.194-1.359-4.5-2.744-8.153-4.4-10.029-.092-.109-.189-.211-.285-.307C2370.034,1171.406,2402.273,1202.937,2413.67,1241.961Z" transform="translate(-2368.295 -1061.113)" fill="#3d897a"/>
      <path id="Path_15168" data-name="Path 15168" d="M2787.99,1240.347s-10.9,4.206-13.629,6.99c-5.185,5.3-18.545,9.346-33.013,11.3-8.943,1.208-13.9,2.866-31.554,15.35a.289.289,0,0,0,.03-.03c.97-1.02,21.948-22.818,42.5-25.6,21.045-2.851,20.031-8.865,24.864-9.667S2787.99,1240.347,2787.99,1240.347Z" transform="translate(-2659.057 -1119.223)" fill="#3d897a"/>
      <path id="Path_15169" data-name="Path 15169" d="M2414.193,1118.521c-4.351-13.127-18.045-26.219-21.7-30.364s-7.381-12.767-9.87-22.279-18.6-17.746-18.6-17.746c17.236.625,28.034,13.143,29.728,19.215s5.97,14.72,13.106,24.069S2414.193,1118.521,2414.193,1118.521Z" transform="translate(-2364.024 -956.761)" fill="#3d897a"/>
      <path id="Path_15170" data-name="Path 15170" d="M2856.018,990.924c-2.955,8.6-16.865,25.541-36.3,28.589-19.127,3-40.746,14.449-41.417,14.8a.051.051,0,0,1,.019-.016c.245-.158.5-.345.766-.557,5.234-4.143,15.214-17.576,38.636-21.646A67.248,67.248,0,0,0,2856.018,990.924Z" transform="translate(-2717.515 -907.947)" fill="#3d897a"/>
      <path id="Path_15171" data-name="Path 15171" d="M2423.738,828.778c-.419-.177-.646-.261-.646-.261A2.851,2.851,0,0,1,2423.738,828.778Z" transform="translate(-2414.425 -769.371)" fill="#3d897a"/>
      <path id="Path_15172" data-name="Path 15172" d="M2477.908,903.34s-8.305,1.711-25.625-35.25c-11.606-24.774-19.152-33.44-22.793-36.451-.008-.009-.02-.016-.027-.026a11.2,11.2,0,0,0-1.882-1.291c4.061,1.707,25.8,11.78,31.712,34.085,6.522,24.613,14.689,34.694,18.6,38.922A.032.032,0,0,1,2477.908,903.34Z" transform="translate(-2418.254 -770.911)" fill="#3d897a"/>
      <path id="Path_15173" data-name="Path 15173" d="M2890.433,900.028s-.006.009-.007.012l-.031.033c-.848,1-14.6,17.129-24.357,24.108-9.987,7.15-37.016,13.93-37.44,14.035.226-.227,13.7-13.452,28.625-18.168S2890.154,900.265,2890.433,900.028Z" transform="translate(-2760.428 -830.389)" fill="#3d897a"/>
      <path id="Path_15174" data-name="Path 15174" d="M2581.765,700.1a.029.029,0,0,0-.015-.008c-.659-.322-21.876-10.817-31.6-37.827-9.885-27.439-1.281-26.852-10.658-44.666a.038.038,0,0,0,.011.01c.423.44,13.962,14.729,18.195,44.1C2557.694,661.707,2561.311,680.637,2581.765,700.1Z" transform="translate(-2513.741 -589.405)" fill="#3d897a"/>
      <path id="Path_15175" data-name="Path 15175" d="M2904.647,743.787c-7.078,3.9-25.828,14.028-28.986,15.732v0l-.016.006-.439.239s.044-.1.134-.286c1.086-2.314,9.009-18,26.219-24.337,18.311-6.742,29.832-22.971,30.19-23.478a.021.021,0,0,0,.007-.012C2927.681,726.891,2912.389,739.519,2904.647,743.787Z" transform="translate(-2800.197 -669.655)" fill="#3d897a"/>
      <path id="Path_15176" data-name="Path 15176" d="M2695.212,639.4a.073.073,0,0,1-.026-.018c-.8-.653-17.861-14.778-21.723-35.373-3.95-21.078-4.585-30.741-8.677-36.689h0c.442.47,14.608,15.7,17.208,41.294,0,0,1.475,9.613,13.177,30.722C2695.186,639.354,2695.2,639.379,2695.212,639.4Z" transform="translate(-2620.653 -546.501)" fill="#3d897a"/>
      <path id="Path_15177" data-name="Path 15177" d="M2812.331,546.982a91.7,91.7,0,0,1-12-34.324c-2.779-20.3-3.7-27.133-6.516-29.366a14.064,14.064,0,0,1,1.784,1.2c.032.023.066.052.1.078,3.96,3.08,12.783,12.186,13.025,32.232.223,18.347,2,25.939,3.021,28.8A8.8,8.8,0,0,0,2812.331,546.982Z" transform="translate(-2730.745 -474.803)" fill="#3d897a"/>
      <path id="Path_15178" data-name="Path 15178" d="M2920.729,918.488v0s0,0,0,0Z" transform="translate(-2839.038 -846.139)" fill="#3d897a"/>
      <path id="Path_15179" data-name="Path 15179" d="M3174.793,569.509c0,.018,0,.033.006.051C3174.795,569.527,3174.793,569.509,3174.793,569.509Z" transform="translate(-3055.824 -548.369)" fill="#3d897a"/>
      <path id="Path_15180" data-name="Path 15180" d="M2952.074,599.329c-17.532,12.937-20.421,15.134-20.5,15.2l0-.007a107.061,107.061,0,0,1,17.632-21.056c10.821-10.013,17.877-20.24,18.072-23.291,0-.028,0-.057,0-.085a1.155,1.155,0,0,0-.01-.229C2967.408,570.864,2969.307,586.614,2952.074,599.329Z" transform="translate(-2848.291 -548.668)" fill="#3d897a"/>
      <path id="Path_15181" data-name="Path 15181" d="M2641.933,893.442a7.449,7.449,0,0,1-.2-.852c-.058-.262-.076-.486-.109-.725l-.087-.707c-.02-.232-.029-.458-.044-.687-.021-.455-.067-.919-.065-1.367v-2.019c0-.224.021-.443.031-.665l.072-1.328c.029-.441.037-.887.084-1.324l.134-1.312.135-1.312c.044-.437.086-.875.156-1.306l.381-2.6.19-1.3.24-1.285.48-2.568.24-1.284.282-1.272.569-2.543c.193-.847.372-1.7.577-2.54l.65-2.519.649-2.518c.219-.839.423-1.682.674-2.51l1.444-4.989c3.93-13.277,8.688-26.259,13.772-39.092,2.5-6.437,5.138-12.8,7.671-19.209s5.065-12.819,7.475-19.273c.6-1.616,1.221-3.222,1.792-4.846l1.729-4.867c1.091-3.263,2.2-6.526,3.03-9.861.233-.828.4-1.67.574-2.51.2-.837.3-1.689.438-2.537.119-.851.205-1.706.294-2.562s.164-1.716.263-2.574a87.191,87.191,0,0,1,1.859-10.173,87,87,0,0,0-1.647,10.195c-.082.856-.147,1.715-.21,2.575s-.141,1.721-.242,2.579c-.121.856-.209,1.719-.389,2.565-.159.85-.31,1.7-.527,2.54-.765,3.375-1.812,6.668-2.839,9.963l-1.632,4.912c-.539,1.639-1.132,3.258-1.7,4.889-2.28,6.512-4.675,12.98-7.084,19.442s-4.911,12.9-7.274,19.359c-4.808,12.9-9.282,25.934-12.908,39.181l-1.329,4.973c-.232.826-.416,1.663-.616,2.5l-.591,2.5-.591,2.5c-.185.836-.344,1.676-.517,2.513l-.509,2.514-.252,1.257-.209,1.262-.419,2.523-.209,1.261-.159,1.264-.318,2.527c-.061.421-.092.842-.125,1.263l-.1,1.263-.1,1.262c-.038.421-.034.838-.053,1.257l-.043,1.255c0,.209-.019.419-.017.626l.012.62.024,1.239c.006.413.058.808.083,1.213.017.2.029.4.05.6l.084.574a5.574,5.574,0,0,0,.092.551c.034.154.083.387.092.407a1.7,1.7,0,1,1-3.114,1.38,1.761,1.761,0,0,1-.067-.177Z" transform="translate(-2600.724 -689.077)" fill="#3d897a"/>
      <path id="Path_15182" data-name="Path 15182" d="M2943.22,459.473c-7.223,16.413-8.472,24.515-8.58,25.276,0,.021,0,.038-.007.058,0,0-3.6-10.954,3.152-31.954,5.795-18.017,4.832-25.308,4.444-27.016-.013-.05-.026-.093-.035-.134s-.016-.065-.026-.093a1.156,1.156,0,0,0-.041-.139c0-.012-.007-.023-.009-.031C2942.423,426.025,2950.686,442.515,2943.22,459.473Z" transform="translate(-2850.088 -425.44)" fill="#3d897a"/>
      <path id="Path_15183" data-name="Path 15183" d="M2739.09,1399.507c-.865,2.754-14.884,29.6-69.181,33.8,0,0,56.4-14.427,68.925-33.629.048-.067.091-.14.136-.208Z" transform="translate(-2625.025 -1256.546)" fill="#3d897a" opacity="0.1"/>
      <path id="Path_15184" data-name="Path 15184" d="M2440.907,1302.062c-.405-.367-26.5-23.886-30.548-32-4.22-8.454-6.762-20.438-9.4-29.194A279.55,279.55,0,0,0,2440.907,1302.062Z" transform="translate(-2395.538 -1121.219)" fill="#3d897a" opacity="0.1"/>
      <path id="Path_15185" data-name="Path 15185" d="M2788.063,1250.265s-10.9,4.206-13.629,6.989c-5.185,5.3-18.545,9.346-33.013,11.3-8.943,1.208-13.9,2.866-31.554,15.35a.282.282,0,0,0,.03-.03c.985-.878,21.332-18.92,36.112-19.965,15.145-1.072,26.566-9.257,27.326-9.671S2781.4,1249.709,2788.063,1250.265Z" transform="translate(-2659.12 -1129.189)" fill="#3d897a" opacity="0.1"/>
      <path id="Path_15186" data-name="Path 15186" d="M2414.193,1118.521c-4.351-13.127-18.045-26.219-21.7-30.364s-7.381-12.767-9.87-22.279-18.6-17.746-18.6-17.746,17.221,5.624,19.019,12.8,9.406,21.788,16.783,28.241S2413.526,1115.237,2414.193,1118.521Z" transform="translate(-2364.024 -956.761)" fill="#3d897a" opacity="0.1"/>
      <path id="Path_15187" data-name="Path 15187" d="M2856.018,990.924c-2.955,8.6-16.865,25.541-36.3,28.589-19.127,3-40.746,14.449-41.417,14.8a.051.051,0,0,1,.019-.016c.091-.069.353-.261.766-.557,4.079-2.929,23-15.982,37.809-17.4C2833.591,1014.747,2853.113,998.508,2856.018,990.924Z" transform="translate(-2717.515 -907.947)" fill="#3d897a" opacity="0.1"/>
      <path id="Path_15188" data-name="Path 15188" d="M2890.395,900.338c-.848,1-14.6,17.129-24.357,24.108-9.987,7.15-37.016,13.93-37.44,14.035.349-.2,15.468-8.759,24.544-12.5C2862.305,922.215,2881.943,909.87,2890.395,900.338Z" transform="translate(-2760.428 -830.653)" fill="#3d897a" opacity="0.1"/>
      <path id="Path_15189" data-name="Path 15189" d="M2489.012,911s-8.305,1.711-25.626-35.25c-11.606-24.774-19.152-33.44-22.793-36.451,14.937,11.412,19.492,19.142,22.459,27.51,12.456,35.138,25.465,43.8,25.949,44.18A.035.035,0,0,1,2489.012,911Z" transform="translate(-2429.357 -778.571)" fill="#3d897a" opacity="0.1"/>
      <path id="Path_15190" data-name="Path 15190" d="M2875.34,1037.593l.3.047-.439.239S2875.25,1037.779,2875.34,1037.593Z" transform="translate(-2800.197 -947.768)" fill="#3d897a"/>
      <path id="Path_15191" data-name="Path 15191" d="M2907.3,743.787c-7.078,3.9-25.828,14.028-28.986,15.732.442-.454,14.711-15.041,26.278-18.556,11.741-3.566,23.641-16.915,29.811-29.3a.024.024,0,0,0,.007-.012C2930.33,726.891,2915.038,739.519,2907.3,743.787Z" transform="translate(-2802.845 -669.655)" fill="#3d897a" opacity="0.1"/>
      <path id="Path_15192" data-name="Path 15192" d="M2952.074,599.03c-17.532,12.937-20.421,15.134-20.5,15.2l0-.006c.367-.391,13.108-14.023,22.489-20.98,9.291-6.891,13.352-18.274,13.215-23.367,0-.028,0-.057,0-.085,0-.1-.011-.191-.016-.281,0,.018,0,.033.006.051C2967.408,570.565,2969.307,586.315,2952.074,599.03Z" transform="translate(-2848.291 -548.369)" fill="#3d897a" opacity="0.1"/>
      <path id="Path_15193" data-name="Path 15193" d="M2948.826,459.473c-7.223,16.413-8.472,24.515-8.58,25.276,2.088-19.567,5.89-25.556,9.347-33.257,3.151-7.023-.993-22.891-1.758-25.655-.014-.05-.026-.093-.035-.134a.828.828,0,0,1-.026-.093c-.018-.059-.031-.109-.04-.139,0-.012-.007-.023-.008-.031C2948.028,426.025,2956.291,442.515,2948.826,459.473Z" transform="translate(-2855.694 -425.44)" fill="#3d897a" opacity="0.1"/>
      <path id="Path_15194" data-name="Path 15194" d="M2581.75,700.1c-.659-.322-21.876-10.817-31.6-37.827-9.885-27.439-1.281-26.852-10.658-44.666a.038.038,0,0,0,.011.01c.343.494,10.346,14.938,16.458,48.314C2555.958,665.926,2562.945,687.6,2581.75,700.1Z" transform="translate(-2513.741 -589.405)" fill="#3d897a" opacity="0.1"/>
      <path id="Path_15195" data-name="Path 15195" d="M2695.185,639.382c-.8-.653-17.861-14.778-21.723-35.373-3.95-21.078-4.585-30.741-8.677-36.689h0c.361.457,10.773,13.8,13.2,36.926,2.475,23.533,17.182,35.09,17.182,35.09Z" transform="translate(-2620.653 -546.501)" fill="#3d897a" opacity="0.1"/>
      <path id="Path_15196" data-name="Path 15196" d="M2812.385,547.115v0s0,0,0,0,0,0-.005-.005l-.007-.013s0-.008,0-.009-.008-.009-.012-.018a.243.243,0,0,0-.021-.035.309.309,0,0,0-.024-.039.228.228,0,0,1-.028-.051,91.7,91.7,0,0,1-12-34.324c-2.779-20.3-3.7-27.133-6.516-29.366,0,0-.006-.005-.009-.006a8.551,8.551,0,0,1,1.793,1.209c.032.023.066.052.1.078,2.851,2.423,7.9,8.8,7.834,23.552-.08,17,6.089,32.615,8.212,37.483C2812.085,546.488,2812.341,547.024,2812.385,547.115Z" transform="translate(-2730.694 -474.766)" fill="#3d897a" opacity="0.1"/>
    </g>
  </g>
  <g id="Group_10731" data-name="Group 10731" transform="translate(46.405 40.722)" opacity="0.8">
    <g id="Group_10722" data-name="Group 10722" transform="translate(0 39.603)">
      <path id="Path_15197" data-name="Path 15197" d="M734.789,934.764c-2.531,3.91-7.068,25.076-14.811,14.577s2.293-12.42,2.293-12.42c14.28-3.666,15.681-22.284,15.681-22.284-1.34-2.551-4.094-5.2-7.233-7.631-.233-.182-.468-.363-.7-.541a107.05,107.05,0,0,0-14.677-8.958c.319,12.412-11.7,41.455-16.68,37.569s-.263-8.846-.263-8.846c17.682-15.567,10.084-30.727,10.084-30.727a12.141,12.141,0,0,0-3.836-1.944c-.271-.089-.547-.176-.829-.263-8.42-2.5-22.519-2.195-22.519-2.195a26.817,26.817,0,0,1,.97,21.366c-12.832,8.244-10.469-4.051-10.469-4.051,8.738-8.543,2.192-18.084,2.192-18.084a7.985,7.985,0,0,1-3.475.617c-.26,0-.531.006-.81,0-6.128-.084-15.744-2.2-15.744-2.2,2,4.666-2.2,9.031-2.329,9.164.932-1.528-2.228-8.547-2.228-8.547a9.561,9.561,0,0,1-1.844-.031c-.261-.027-.538-.058-.825-.1-4.607-.611-12.262-2.826-15.748-3.877-1.137-.344-1.831-.563-1.831-.563a2.465,2.465,0,0,1,.441.585,6.332,6.332,0,0,1,.56,1.464c.982,3.605.9,10.566.655,15.719-.012.3-.027.6-.043.9-.163,3.191-.37,5.491-.37,5.491,9.308,7.486,23.9-4.861,21.713,7.446s-22.221.036-22.221.036c.817,1,.943,3.847.728,7.311-.019.3-.04.6-.065.9-.19,2.484-.534,5.217-.91,7.781-.041.282-.084.566-.124.844-.763,5-1.606,9.137-1.606,9.137s7.057,9.579,23.633,4.776,16.088-.764,16.088-.764c-10.864,14.325-38.594.583-38.594.583a50.051,50.051,0,0,0-.607,15.931q.044.446.095.889a106.7,106.7,0,0,0,4.356,20.019c24.441,11.112,26.645-2.906,33.333-6.691s11.154-3.7,12.2-1.84,2.948,8.962-10.057,16.322-32.15.7-32.15.7a150.887,150.887,0,0,0,14.755,16.241l.694.643c43.117,39.608,59.259-13.1,61.193-20.192.136-.5.2-.771.2-.771a7.789,7.789,0,0,0,.832.961v0a11.084,11.084,0,0,0,1.6,1.329,0,0,0,0,0,0,0,11.779,11.779,0,0,0,7.537,2.035c16.489-.982,42.462-26.976,32.461-41.465a45.94,45.94,0,0,1-4.447-8.126c-.119-.279-.236-.56-.347-.836a56.689,56.689,0,0,1-3.989-22.736S737.319,930.858,734.789,934.764Zm-20.578,17.964c.049,1.5-2.07,2.784-4.732,2.869s-4.855-1.06-4.9-2.561,2.07-2.784,4.732-2.869S714.163,951.23,714.211,952.728ZM688.4,964.348c-2.151,3.18-5.469,4.691-7.41,3.378s-1.769-4.957.386-8.135,5.471-4.693,7.41-3.378S690.554,961.17,688.4,964.348ZM672.86,943.506c-.783-1.137.527-3.4,2.929-5.054s4.981-2.074,5.764-.937-.524,3.4-2.926,5.053S673.646,944.644,672.86,943.506Zm14.3-40.107c-.371-2.892.444-5.377,1.82-5.554s2.788,2.026,3.159,4.918-.447,5.378-1.82,5.554S687.531,906.291,687.16,903.4Zm7.281,95.356c-3.637,4.616-8.01,7.237-9.769,5.853s-.237-6.254,3.4-10.87,8.01-7.237,9.769-5.853S698.079,994.134,694.441,998.754Zm34.24-31.233c.666,2.246-1.233,4.79-4.238,5.682s-5.984-.207-6.65-2.453,1.233-4.79,4.238-5.682S728.015,965.275,728.681,967.521Z" transform="translate(-627.912 -884.797)" fill="#a0d6d4"/>
      <g id="Group_10716" data-name="Group 10716" transform="translate(23.057 57.36)" opacity="0.3">
        <path id="Path_15198" data-name="Path 15198" d="M884.775,1275.7c.111.277.228.557.347.836-12.024,11.429-22.906,16.973-30.65,19.659-8.494,2.946-14.625,3.061-17.143,2.938-.391-.022-.693-.045-.906-.067-.131.4-.268.809-.411,1.207a53.02,53.02,0,0,1-12.724,19.483,90.141,90.141,0,0,1-19.058,14.3c-.229.133-.46.263-.688.392a130.1,130.1,0,0,1-17.8,8.308l-.694-.643a128.771,128.771,0,0,0,18.78-8.8c11.5-6.614,26.232-17.871,31.659-34.1.081-.246.161-.493.238-.74l.107-.343.356.051c.014,0,.253.035.7.063,2.048.14,8.444.227,17.368-2.878C861.956,1292.7,872.792,1287.157,884.775,1275.7Z" transform="translate(-785.047 -1275.703)" fill="#fff"/>
      </g>
      <g id="Group_10717" data-name="Group 10717" transform="translate(0.52 21.669)" opacity="0.3">
        <path id="Path_15199" data-name="Path 15199" d="M733.745,1033.009a88.7,88.7,0,0,1-7.343,14.4,60.136,60.136,0,0,1-14.757,16.2c-7.469,5.51-13.861,7.009-16.371,7.4-.441.068-.763.1-.948.122-.189.21-.379.422-.569.63a63.6,63.6,0,0,1-15.508,12.458,57.421,57.421,0,0,1-7.729,3.649,61.62,61.62,0,0,1-23.063,3.984,72.669,72.669,0,0,1-15.9-2.034q-.051-.442-.095-.889a72.073,72.073,0,0,0,16.043,2.075,59.413,59.413,0,0,0,45.8-20c.167-.185.337-.372.5-.561l.115-.129.175-.012c.013,0,.259-.017.707-.083,2.118-.308,8.742-1.677,16.388-7.333,6.669-4.934,15.2-14.015,21.846-30.426C733.278,1032.646,733.513,1032.827,733.745,1033.009Z" transform="translate(-631.459 -1032.469)" fill="#fff"/>
      </g>
      <g id="Group_10718" data-name="Group 10718" transform="translate(1.606 8.499)" opacity="0.3">
        <path id="Path_15200" data-name="Path 15200" d="M713.98,942.983a50.128,50.128,0,0,1-2.214,7.587,44.18,44.18,0,0,1-19.6,22.9,37.984,37.984,0,0,1-4.536,2.2c-.529.209-.872.325-.986.364-.217.12-.433.236-.65.351-15.892,8.525-29.69,9.094-38.514,8.046a53.511,53.511,0,0,1-8.63-1.741c.04-.278.084-.562.125-.844a52.608,52.608,0,0,0,8.648,1.75c8.66,1.021,22.179.461,37.776-7.852.289-.154.581-.313.873-.471l.077-.031c.014,0,.247-.078.665-.237a42.1,42.1,0,0,0,14.27-9.582,45.048,45.048,0,0,0,11.862-22.709C713.434,942.806,713.71,942.893,713.98,942.983Z" transform="translate(-638.856 -942.72)" fill="#fff"/>
      </g>
      <g id="Group_10719" data-name="Group 10719" transform="translate(2.64 6.15)" opacity="0.3">
        <path id="Path_15201" data-name="Path 15201" d="M685.865,926.709a21.887,21.887,0,0,1-2.662,11.67,23.825,23.825,0,0,1-6.315,7.356c-.282.211-.5.364-.637.454q-.11.519-.236,1.024c-1.467,5.933-4.368,10.155-8.642,12.575q-.463.262-.945.493c-6.555,3.166-14.677,1.866-20.524.128.025-.306.046-.606.065-.9,5.743,1.72,13.779,3.064,20.094.015,4.66-2.252,7.767-6.6,9.234-12.942.058-.24.11-.486.162-.733l.036-.176.153-.1c.01-.005.228-.145.591-.415a23.181,23.181,0,0,0,6.244-7.218,20.88,20.88,0,0,0,2.573-11.232C685.334,926.715,685.605,926.714,685.865,926.709Z" transform="translate(-645.904 -926.708)" fill="#fff"/>
      </g>
      <g id="Group_10720" data-name="Group 10720" transform="translate(2.855 4.44)" opacity="0.3">
        <path id="Path_15202" data-name="Path 15202" d="M664.162,915.152a19.208,19.208,0,0,1-3.224,6.238c-.244.313-.427.52-.509.612a6.97,6.97,0,0,1-.445.786,11.15,11.15,0,0,1-4.023,3.608,28.688,28.688,0,0,1-8.59,2.883c.017-.291.031-.591.043-.9,4.988-.971,9.831-2.78,11.905-6.123a6.949,6.949,0,0,0,.375-.682l.03-.062.044-.048c.006-.007.2-.215.508-.6a18.188,18.188,0,0,0,2.762-4.931c.108-.295.207-.59.3-.881C663.624,915.094,663.9,915.125,664.162,915.152Z" transform="translate(-647.371 -915.056)" fill="#fff"/>
      </g>
      <g id="Group_10721" data-name="Group 10721" transform="translate(1.242)">
        <path id="Path_15203" data-name="Path 15203" d="M710.034,964.71c.148.3.3.587.44.881,2.4,4.793,4.747,9.617,6.992,14.237,1.779,3.659,3.536,7.272,5.247,10.717a0,0,0,0,0,0,0c5.978,12.055,11.386,22.086,15.173,24.961l-1.022,1.346c-4.323-3.284-10.1-14.234-16.788-27.832-1.341-2.725-2.719-5.559-4.13-8.458-2.184-4.488-4.462-9.177-6.791-13.835l-.527-1.052c-3.507-6.991-7.118-13.881-10.677-19.912-.153-.253-.3-.506-.451-.758-.947-1.588-1.891-3.113-2.827-4.559a102.151,102.151,0,0,0-10.791-13.482c-.2-.216-.394-.428-.6-.641-4.725-5.048-10.048-10.1-15.4-14.874l-.719-.636c-5.747-5.091-11.5-9.832-16.564-13.848-.224-.178-.443-.354-.664-.527-5.269-4.167-9.729-7.51-12.561-9.6a6.332,6.332,0,0,0-.56-1.464,2.468,2.468,0,0,0-.441-.585s.694.219,1.831.563c2.818,2.073,7.334,5.453,12.688,9.688.221.173.442.346.662.523,5.051,4.009,10.8,8.739,16.551,13.826.216.192.431.384.651.577,5.613,4.992,11.211,10.311,16.145,15.613.207.223.413.443.616.665a102.458,102.458,0,0,1,10.576,13.28q1.444,2.233,2.908,4.691l.467.791C703,951,706.567,957.806,710.034,964.71Z" transform="translate(-636.376 -884.797)" fill="#873747"/>
      </g>
    </g>
    <g id="Group_10729" data-name="Group 10729" transform="translate(29.362)">
      <path id="Path_15204" data-name="Path 15204" d="M828.013,726.109A56.692,56.692,0,0,1,842.475,744.1c.135.266.269.539.4.812a45.954,45.954,0,0,1,3.177,8.7c4.3,17.073,40.967,14.687,52.578,2.938a11.78,11.78,0,0,0,3.44-7.008,0,0,0,0,0,0-.005,11.08,11.08,0,0,0,.056-2.079v0a7.793,7.793,0,0,0-.174-1.259s.249.131.713.357c6.6,3.22,56.876,25.842,55.53-32.69-.008-.314-.017-.63-.026-.946a150.875,150.875,0,0,0-2.481-21.8s-7.615,18.786-21.724,23.71-18.2-1.185-18.9-3.2,2.173-5.429,9.431-7.962,19.248,5.054,27.01-20.648a106.712,106.712,0,0,0-12.178-16.475q-.3-.33-.605-.657a50.043,50.043,0,0,0-12.377-10.049s-7.954,29.909-25.886,28.631c0,0-3.362-2.295,11.183-11.591s11.993-20.917,11.993-20.917-3.668-2.1-7.928-4.817c-.236-.154-.478-.308-.717-.463-2.175-1.408-4.456-2.952-6.449-4.447-.246-.183-.486-.365-.723-.548-2.746-2.122-4.8-4.1-5.016-5.368,0,0-3.982,23.15-14.679,16.682s8.209-9.3,8.719-21.234c0,0-1.866-1.36-4.372-3.342-.23-.179-.465-.366-.7-.558-4.032-3.216-9.322-7.742-11.385-10.857a6.324,6.324,0,0,1-.731-1.386,2.472,2.472,0,0,1-.149-.718s-.293.666-.784,1.748c-1.509,3.314-4.891,10.529-7.47,14.4-.161.241-.32.469-.472.684a9.557,9.557,0,0,1-1.192,1.407s3.193,7,4.957,7.311c-.187.011-6.233.286-8.425-4.292,0,0-4.75,8.624-8.729,13.286-.179.215-.359.418-.533.61a7.99,7.99,0,0,1-2.755,2.206s2.857,11.213,15.041,10.277c0,0,10.8,6.33-3.857,10.542a26.816,26.816,0,0,1-15.423-14.817s-9.524,10.4-13.2,18.377c-.121.269-.238.534-.349.8a12.142,12.142,0,0,0-1.068,4.166s6.386,15.709,29.749,12.68c0,0,6.838-.273,6.477,6.031s-30.122-3.808-39.242-12.233a107.032,107.032,0,0,0-2.943,16.941c-.023.295-.042.591-.058.886-.244,3.962-.067,7.78.967,10.47,0,0,14.921,11.223,27.093,2.9,0,0,8.058-6.277,10.849,6.466s-16.117,2.2-20.725,1.523S828.013,726.109,828.013,726.109Zm47.777-7.845c1.819-1.945,4.183-2.689,5.277-1.666s.511,3.43-1.309,5.375-4.182,2.692-5.277,1.666S873.973,720.209,875.79,718.265Zm18.078-11.442c.29-2.325,3.615-3.822,7.426-3.344s6.66,2.75,6.37,5.074-3.617,3.823-7.426,3.344S893.575,709.148,893.868,706.822Zm-3.561-16.635c-2.828.715-5.392.207-5.729-1.132s1.68-3,4.506-3.715,5.392-.208,5.731,1.131S893.135,689.475,890.307,690.187Zm-33.46-13.794c-1.038.917-3.447-.11-5.376-2.293s-2.652-4.7-1.614-5.618,3.446.108,5.376,2.293S857.885,675.476,856.847,676.394Zm54.859,58.12c.118-2.235,4.972-3.8,10.842-3.485s10.531,2.375,10.414,4.612-4.973,3.795-10.842,3.485S911.588,736.749,911.706,734.514Zm-33.1,3.142c2.652-1.672,5.817-1.421,7.066.56s.111,4.945-2.541,6.617-5.816,1.421-7.066-.56S875.948,739.329,878.6,737.656Z" transform="translate(-828.013 -614.901)" fill="#3d897a"/>
      <g id="Group_10723" data-name="Group 10723" transform="translate(14.462 98.018)" opacity="0.3">
        <path id="Path_15205" data-name="Path 15205" d="M926.573,1314.071c.135.266.269.539.4.812,16.52-1.5,27.864-6.029,34.99-10.079,7.815-4.444,11.945-8.977,13.513-10.951.242-.308.423-.551.547-.725.39.168.784.332,1.179.487a53.022,53.022,0,0,0,23.037,3.281,90.136,90.136,0,0,0,23.32-4.9c.251-.085.5-.172.749-.258a130.12,130.12,0,0,0,17.984-7.906c-.008-.313-.017-.63-.026-.946a128.724,128.724,0,0,1-19,8.316c-12.554,4.283-30.732,7.937-46.508,1.319-.238-.1-.477-.2-.714-.309l-.328-.145-.2.3c-.008.012-.14.213-.416.569-1.245,1.631-5.4,6.5-13.616,11.16C954.4,1308.122,943.086,1312.615,926.573,1314.071Z" transform="translate(-926.573 -1282.89)" fill="#fff"/>
      </g>
      <g id="Group_10724" data-name="Group 10724" transform="translate(1.21 50.981)" opacity="0.3">
        <path id="Path_15206" data-name="Path 15206" d="M836.257,1002.358a88.7,88.7,0,0,0,15.668,3.975,60.127,60.127,0,0,0,21.913-.41c9.068-1.983,14.409-5.8,16.361-7.426.342-.286.582-.5.716-.632.282,0,.568-.007.849-.013a63.6,63.6,0,0,0,19.592-3.444,57.384,57.384,0,0,0,7.84-3.4,61.618,61.618,0,0,0,18.2-14.712,72.654,72.654,0,0,0,8.957-13.3q-.3-.33-.605-.657a72.077,72.077,0,0,1-9.019,13.429,59.413,59.413,0,0,1-45.24,21.247c-.25,0-.5.008-.755.01h-.173l-.124.124c-.009.009-.184.183-.529.477-1.628,1.389-7.025,5.466-16.319,7.486-8.107,1.76-20.561,2.188-37.279-3.639C836.292,1001.767,836.273,1002.063,836.257,1002.358Z" transform="translate(-836.257 -962.338)" fill="#fff"/>
      </g>
      <g id="Group_10725" data-name="Group 10725" transform="translate(8.295 31.776)" opacity="0.3">
        <path id="Path_15207" data-name="Path 15207" d="M884.542,862.2a50.142,50.142,0,0,0,7.164,3.338,44.179,44.179,0,0,0,30.139.37,37.978,37.978,0,0,0,4.648-1.956c.506-.26.819-.441.923-.5.233-.084.463-.171.692-.256,16.888-6.326,26.414-16.324,31.445-23.649a53.506,53.506,0,0,0,4.382-7.636c-.236-.154-.478-.308-.717-.463a52.6,52.6,0,0,1-4.387,7.655c-4.942,7.184-14.278,16.978-30.812,23.222-.306.116-.618.231-.93.345l-.074.038c-.012.007-.222.134-.617.344a42.1,42.1,0,0,1-16.613,4.41,45.051,45.051,0,0,1-24.895-6.056C884.77,861.677,884.653,861.942,884.542,862.2Z" transform="translate(-884.542 -831.45)" fill="#fff"/>
      </g>
      <g id="Group_10726" data-name="Group 10726" transform="translate(28.836 26.781)" opacity="0.3">
        <path id="Path_15208" data-name="Path 15208" d="M1024.532,805.782a21.885,21.885,0,0,0,10.529,5.694,23.828,23.828,0,0,0,9.694.1c.345-.073.6-.136.761-.179q.462.26.926.5c5.427,2.81,10.515,3.413,15.152,1.795.335-.117.667-.245.994-.386,6.7-2.841,11.081-9.8,13.63-15.346-.246-.183-.485-.365-.722-.548-2.494,5.451-6.782,12.38-13.238,15.117-4.766,2.019-10.086,1.484-15.819-1.592-.219-.115-.438-.238-.657-.361l-.156-.089-.173.051c-.011,0-.26.076-.7.17a23.182,23.182,0,0,1-9.544-.066,20.88,20.88,0,0,1-10.141-5.471C1024.886,805.386,1024.707,805.59,1024.532,805.782Z" transform="translate(-1024.532 -797.413)" fill="#fff"/>
      </g>
      <g id="Group_10727" data-name="Group 10727" transform="translate(42.759 12.962)" opacity="0.3">
        <path id="Path_15209" data-name="Path 15209" d="M1119.411,707.1a19.207,19.207,0,0,0,6.815,1.69c.4.023.673.022.8.021a6.959,6.959,0,0,0,.885.184,11.151,11.151,0,0,0,5.365-.646,28.683,28.683,0,0,0,7.832-4.557c-.23-.179-.465-.366-.7-.558-4.019,3.11-8.572,5.558-12.454,4.913a6.949,6.949,0,0,1-.76-.168l-.066-.019-.065,0c-.009,0-.295.01-.787-.015a18.19,18.19,0,0,1-5.529-1.175c-.293-.113-.58-.234-.859-.357C1119.722,706.657,1119.563,706.886,1119.411,707.1Z" transform="translate(-1119.411 -703.234)" fill="#fff"/>
      </g>
      <g id="Group_10728" data-name="Group 10728" transform="translate(49.052)">
        <path id="Path_15210" data-name="Path 15210" d="M1176.24,722.971c.125.306.246.61.372.912,2.02,4.966,4.1,9.911,6.092,14.644,1.577,3.75,3.135,7.454,4.6,11.011a0,0,0,0,1,0,.005c5.121,12.443,9.1,23.123,8.761,27.866l1.686.119c.381-5.416-4.04-16.981-9.854-30.973-1.164-2.805-2.386-5.71-3.636-8.682-1.934-4.6-3.957-9.406-5.923-14.229l-.443-1.09c-2.944-7.246-5.742-14.5-7.93-21.157-.089-.282-.181-.561-.272-.839-.569-1.759-1.093-3.475-1.564-5.131a102.14,102.14,0,0,1-3.021-17c-.033-.29-.062-.578-.089-.87-.679-6.881-.971-14.217-1.026-21.388,0-.319,0-.641,0-.96-.038-7.678.193-15.131.511-21.584.014-.285.026-.567.041-.847.342-6.709.769-12.267,1.069-15.77a6.325,6.325,0,0,1-.732-1.386,2.472,2.472,0,0,1-.149-.718s-.293.666-.784,1.748c-.3,3.486-.737,9.109-1.082,15.927-.016.28-.031.56-.043.842-.316,6.44-.55,13.879-.52,21.56,0,.289,0,.577.005.87.052,7.512.359,15.227,1.092,22.433.031.3.061.6.094.9a102.459,102.459,0,0,0,3.01,16.708c.485,1.705,1.023,3.469,1.609,5.279l.287.873C1170.574,708.641,1173.336,715.812,1176.24,722.971Z" transform="translate(-1162.299 -614.901)" fill="#af3c58"/>
      </g>
    </g>
    <g id="Group_10730" data-name="Group 10730" transform="translate(70.151 143.051)">
      <path id="Path_15211" data-name="Path 15211" d="M1227.189,1669.774l-44.855,25.387a5.284,5.284,0,0,1-6.891-1.513l-27.066-37.627a5.283,5.283,0,0,1,1.687-7.683L1203.658,1618a5.283,5.283,0,0,1,7.455,2.509l18.326,42.574A5.283,5.283,0,0,1,1227.189,1669.774Z" transform="translate(-1141.307 -1613.277)" fill="#0f3551"/>
      <path id="Path_15212" data-name="Path 15212" d="M1183.313,1603.523l-67.911,38.436a3.786,3.786,0,0,1-5.159-1.43l-3.765-6.653a3.786,3.786,0,0,1,1.43-5.159l67.911-38.436a3.786,3.786,0,0,1,5.159,1.43l3.765,6.653A3.786,3.786,0,0,1,1183.313,1603.523Z" transform="translate(-1105.986 -1589.789)" fill="#25506d"/>
    </g>
  </g>
  <g id="Group_10732" data-name="Group 10732" transform="translate(84.451 88.075)">
    <rect id="Rectangle_1196" data-name="Rectangle 1196" width="260.402" height="178.928" rx="63.38" transform="translate(29.867)" fill="#0a0a0b"/>
    <rect id="Rectangle_1197" data-name="Rectangle 1197" width="321.183" height="5.76" transform="translate(0 174.738)" fill="#ecebeb"/>
    <path id="Path_15213" data-name="Path 15213" d="M1117.36,2167.715H887.209s7.679,5.214,22.249,5.214h276.683c14.57,0,22.249-5.214,22.249-5.214Z" transform="translate(-887.207 -1987.215)" fill="url(#linear-gradient)"/>
    <rect id="Rectangle_1198" data-name="Rectangle 1198" width="243.321" height="153.367" rx="8.68" transform="translate(39.132 10.159)" fill="#a0d6d4"/>
    <path id="Path_15214" data-name="Path 15214" d="M1856.331,2128.446a5.622,5.622,0,0,1-5.517,4.6h-42.073a5.634,5.634,0,0,1-5.517-4.6Z" transform="translate(-1668.809 -1953.708)" fill="#c1c1c0"/>
  </g>
  <g id="Group_10733" data-name="Group 10733" transform="translate(321.087 46.122)">
    <path id="Path_15215" data-name="Path 15215" d="M2511.411,909.982s-12.809,9.465-11.448,13.876,8.378,17.754,8.378,17.754l3.634-.945s-6.026-11.634-1.393-15.638a56.173,56.173,0,0,1,8.781-6.268s9.3,5.007,9.411,7.473-4.518,12.574-4.518,12.574l3.131,1.953s9.7-14.526,7.942-18.1-8.913-10.6-8.913-10.6S2517.522,913.511,2511.411,909.982Z" transform="translate(-2499.861 -872.084)" fill="#001f2c"/>
    <path id="Path_15216" data-name="Path 15216" d="M2561.89,737.558s-15.382.46-13.5,16.389l5.4.524-.624,9.055a23.114,23.114,0,0,0,14.525,1.41l1.2-15.451,1.657,5.489,5.094-2.465s-3.066-9.881-4.926-11.456S2561.89,737.558,2561.89,737.558Z" transform="translate(-2541.136 -724.96)" fill="#e93433"/>
    <path id="Path_15217" data-name="Path 15217" d="M2617.669,716.077l-.669,6.89,5.981.581.649-6.685Z" transform="translate(-2599.812 -706.631)" fill="#f0dcc2"/>
    <path id="Path_15218" data-name="Path 15218" d="M2611.24,660.489s-1.271-1.565-.548-4.918c0,0,1.058-6.3,7.268-2.816a5.786,5.786,0,0,0,3.086,1.168c1.683.039.146,5.4-2.427,6.089Z" transform="translate(-2594.239 -651.706)" fill="#1e1d1a"/>
    <path id="Path_15219" data-name="Path 15219" d="M2623.671,667.55c-.553,5.7-2.611,7.728-4.886,7.507s-3.906-2.582-3.351-8.307c.29-2.986,2.233-3.826,4.507-3.605S2623.961,664.564,2623.671,667.55Z" transform="translate(-2598.382 -661.438)" fill="#ffecce"/>
    <path id="Path_15220" data-name="Path 15220" d="M2615.943,660.712s.905,2.146,8.936,1.957l.292-1.763-2.652-1.855-3.205-.65-2.33.815Z" transform="translate(-2598.91 -657.419)" fill="#1e1d1a"/>
    <path id="Path_15221" data-name="Path 15221" d="M2616.366,741.135s.9,2.858,2.663,3.5l-2.344,2.673a12.223,12.223,0,0,1-.656-6.108Z" transform="translate(-2598.865 -728.013)" fill="#ec8285"/>
    <path id="Path_15222" data-name="Path 15222" d="M2640.71,743.252s-1.474,2.9-3.329,3.193l1.734,3.069a11.806,11.806,0,0,0,1.879-6.166Z" transform="translate(-2617.202 -729.819)" fill="#ec8285"/>
    <path id="Path_15223" data-name="Path 15223" d="M2549.328,849.248s.815,12.828,6.336,17.517c0,0,3.719,1.262,2.6-2.786l-1.741-1.891s-3.249-3.73-1.8-12.315Z" transform="translate(-2542.069 -820.261)" fill="#ffecce"/>
    <path id="Path_15224" data-name="Path 15224" d="M2700.33,841.909s6.819,13,9.8,13.9,6.248.785,6.051-.127-5.6-2.551-5.6-2.551l-5.162-13.687Z" transform="translate(-2670.914 -811.896)" fill="#ffecce"/>
    <path id="Path_15225" data-name="Path 15225" d="M2543.6,1119.1s.994,1.722.806,2.1-7.2,6.243-7.465,5.39,3.024-6.55,3.024-6.55Z" transform="translate(-2531.489 -1050.517)" fill="#131313"/>
    <path id="Path_15226" data-name="Path 15226" d="M2657.579,1106.431s-2.247,1.85-1.179,3.234,5.99,5.669,6.7,5.563-2.393-6.844-2.393-6.844Z" transform="translate(-2633.185 -1039.707)" fill="#131313"/>
  </g>
  <path id="Path_15227" data-name="Path 15227" d="M390.061,358.811a14.565,14.565,0,0,0-22.283-10.29,20.175,20.175,0,0,0-34.812-2.172,9.75,9.75,0,0,0-11.1,11.676,12.008,12.008,0,0,0-10.2,11.834h0a12,12,0,0,0,11.965,11.965h61.853a12,12,0,0,0,11.965-11.965h0A12.007,12.007,0,0,0,390.061,358.811Z" transform="translate(-311.664 -337.384)" fill="#a3d5e9"/>
  <path id="Path_15228" data-name="Path 15228" d="M3426.685,755.933h-.279c0-.062,0-.125,0-.187a11.119,11.119,0,0,0-20.93-5.229,10.007,10.007,0,0,1-10.7,1.814,5.956,5.956,0,0,0-2.227,11.479,6.108,6.108,0,0,0,6.037,5.313h28.1a6.1,6.1,0,0,0,6.086-6.086v-1.017A6.1,6.1,0,0,0,3426.685,755.933Z" transform="translate(-2937.292 -684.871)" fill="#fff"/>
  <g id="Group_10734" data-name="Group 10734" transform="translate(386.174 207.313)">
    <path id="Path_15229" data-name="Path 15229" d="M3055.664,1866.057h-13.406a.474.474,0,0,1-.473-.473h0a.474.474,0,0,1,.473-.473h13.406a.474.474,0,0,1,.473.473h0A.474.474,0,0,1,3055.664,1866.057Z" transform="translate(-3027.353 -1848.251)" fill="#cdcdcd"/>
    <path id="Path_15230" data-name="Path 15230" d="M2959.56,1766.342l-2.935-15.627a.616.616,0,0,0-.606-.5h-10.138a.616.616,0,0,0-.606.729l2.9,15.627a.616.616,0,0,0,.606.5h10.177A.616.616,0,0,0,2959.56,1766.342Z" transform="translate(-2944.996 -1750.212)" fill="#cdcdcd"/>
    <path id="Path_15231" data-name="Path 15231" d="M2957.724,1766.342l-2.935-15.627a.616.616,0,0,0-.605-.5h-10.139a.616.616,0,0,0-.606.729l2.9,15.627a.616.616,0,0,0,.606.5h10.177A.616.616,0,0,0,2957.724,1766.342Z" transform="translate(-2943.429 -1750.212)" fill="#e3e3e2"/>
    <rect id="Rectangle_1199" data-name="Rectangle 1199" width="11.952" height="0.946" rx="0.473" transform="translate(3.001 16.86)" fill="#e3e3e2"/>
    <path id="Path_15232" data-name="Path 15232" d="M3050.2,1867.183h-1.186a.221.221,0,0,1-.22-.22h0a.221.221,0,0,1,.22-.22h1.186a.221.221,0,0,1,.22.22h0A.221.221,0,0,1,3050.2,1867.183Z" transform="translate(-3033.333 -1849.644)" fill="#a8a9a9"/>
    <path id="Path_15233" data-name="Path 15233" d="M3063.955,1867.183h-1.185a.221.221,0,0,1-.22-.22h0a.221.221,0,0,1,.22-.22h1.185a.221.221,0,0,1,.22.22h0A.221.221,0,0,1,3063.955,1867.183Z" transform="translate(-3045.071 -1849.644)" fill="#a8a9a9"/>
  </g>
  <g id="Group_10740" data-name="Group 10740" transform="translate(158.408 15.414)">
    <g id="Group_10735" data-name="Group 10735">
      <path id="Path_15234" data-name="Path 15234" d="M1561.286,1234v95.709a3.029,3.029,0,0,1-3.019,3.018H1394.224a3.034,3.034,0,0,1-3.018-3.018V1234a3.011,3.011,0,0,1,.813-2.056h168.454A3.011,3.011,0,0,1,1561.286,1234Z" transform="translate(-1391.206 -1116.091)" fill="#ffc11f"/>
      <path id="Path_15235" data-name="Path 15235" d="M1565.055,1578.714a3,3,0,0,1-2.041.8H1398.971a3.01,3.01,0,0,1-2.2-.963l84.144-57.379Z" transform="translate(-1395.952 -1362.882)" fill="#080909" opacity="0.05"/>
      <path id="Path_15236" data-name="Path 15236" d="M1564.844,1231.941l-16.566,12.994-17.118,13.427-6.408,5.025-2.87,2.251-6.407,5.025-2.871,2.251-6.407,5.025-3.156,2.475-6.407,5.025-2.87,2.251-6.407,5.025-.1.078a10.411,10.411,0,0,1-12.555.014l-.117-.091-6.436-5.025-2.882-2.251-6.435-5.025-3.17-2.475-6.435-5.025-2.883-2.251-6.435-5.025-2.883-2.251-6.435-5.025-16.9-13.2-16.932-13.222v0Z" transform="translate(-1395.946 -1116.092)" fill="#9d6f1e"/>
      <path id="Path_15237" data-name="Path 15237" d="M1565.055,1587.047a3,3,0,0,1-2.041.8H1398.971a3.01,3.01,0,0,1-2.2-.963l84.225-55.946Z" transform="translate(-1395.952 -1371.215)" fill="#f7b21c"/>
      <path id="Path_15238" data-name="Path 15238" d="M1565.2,877.392H1396.778l78.092-58.864a10.459,10.459,0,0,1,12.611.013Z" transform="translate(-1395.96 -761.542)" fill="#ac7926"/>
      <path id="Path_15239" data-name="Path 15239" d="M1646.742,442.431V571.274l-61.019,47.859a10.411,10.411,0,0,1-12.556.013L1512.157,571.5V442.431Z" transform="translate(-1494.409 -442.431)" fill="#fff"/>
    </g>
    <g id="Group_10737" data-name="Group 10737" transform="translate(39.489 20.486)">
      <g id="Group_10736" data-name="Group 10736">
        <path id="Path_15240" data-name="Path 15240" d="M1660.323,593.98V583.19h2.842l2.24,3.958a30.82,30.82,0,0,1,1.763,3.7l.042-.005a42.756,42.756,0,0,1-.2-4.508V583.19h2.24v10.79H1666.7l-2.313-4.155a39.415,39.415,0,0,1-1.875-3.812l-.053.005c.075,1.43.106,2.956.106,4.719v3.243Z" transform="translate(-1660.323 -583.022)" fill="#f88700"/>
        <path id="Path_15241" data-name="Path 15241" d="M1742.008,589.415h-3.97v2.566h4.438v2H1735.6V583.19h6.647v2h-4.208v2.248h3.97Z" transform="translate(-1724.552 -583.022)" fill="#f88700"/>
        <path id="Path_15242" data-name="Path 15242" d="M1791.584,593.98l-2.555-10.79h2.613l.818,4.443c.231,1.285.455,2.685.627,3.775h.034c.173-1.173.432-2.464.7-3.8l.924-4.413h2.592l.863,4.554c.231,1.259.413,2.411.569,3.607h.033c.168-1.2.4-2.455.634-3.749l.873-4.412h2.479l-2.782,10.79h-2.635l-.919-4.646c-.215-1.079-.384-2.1-.52-3.32h-.032c-.182,1.215-.356,2.239-.614,3.328l-1.031,4.638Z" transform="translate(-1770.143 -583.022)" fill="#f88700"/>
        <path id="Path_15243" data-name="Path 15243" d="M1888.3,590.484a6.026,6.026,0,0,0,2.7.678c1.121,0,1.715-.465,1.715-1.175,0-.663-.515-1.053-1.806-1.508-1.8-.638-2.977-1.619-2.977-3.2,0-1.84,1.545-3.238,4.082-3.238a6.4,6.4,0,0,1,2.755.543l-.539,1.956a5.177,5.177,0,0,0-2.252-.512c-1.062,0-1.57.492-1.57,1.043,0,.685.6.988,2,1.517,1.911.714,2.8,1.706,2.8,3.231,0,1.8-1.38,3.347-4.35,3.347a6.972,6.972,0,0,1-3.048-.671Z" transform="translate(-1854.423 -582.045)" fill="#f88700"/>
        <path id="Path_15244" data-name="Path 15244" d="M1949.533,583.19h2.44v8.745h4.293v2.045h-6.733Z" transform="translate(-1907.095 -583.022)" fill="#f88700"/>
        <path id="Path_15245" data-name="Path 15245" d="M2011.69,589.415h-3.97v2.566h4.438v2h-6.878V583.19h6.647v2h-4.207v2.248h3.97Z" transform="translate(-1954.662 -583.022)" fill="#f88700"/>
        <path id="Path_15246" data-name="Path 15246" d="M2061.345,585.238h-2.912V583.19h8.3v2.048h-2.953v8.742h-2.439Z" transform="translate(-2000.016 -583.022)" fill="#f88700"/>
        <path id="Path_15247" data-name="Path 15247" d="M2123.528,585.238h-2.912V583.19h8.3v2.048h-2.953v8.742h-2.439Z" transform="translate(-2053.074 -583.022)" fill="#f88700"/>
        <path id="Path_15248" data-name="Path 15248" d="M2192.458,589.415h-3.97v2.566h4.438v2h-6.878V583.19h6.647v2h-4.207v2.248h3.97Z" transform="translate(-2108.905 -583.022)" fill="#f88700"/>
        <path id="Path_15249" data-name="Path 15249" d="M2244.3,582.849a20.62,20.62,0,0,1,3.242-.232,5.5,5.5,0,0,1,3.492.855,2.741,2.741,0,0,1,1,2.262,2.864,2.864,0,0,1-1.9,2.652v.051a2.715,2.715,0,0,1,1.442,2.009,31.191,31.191,0,0,0,.871,3.045h-2.5a13.642,13.642,0,0,1-.742-2.515c-.3-1.349-.753-1.709-1.758-1.722h-.725v4.237H2244.3Zm2.417,4.64h.956c1.21,0,1.934-.617,1.934-1.555,0-.988-.677-1.493-1.791-1.5a5.053,5.053,0,0,0-1.1.082Z" transform="translate(-2158.614 -582.533)" fill="#f88700"/>
      </g>
    </g>
    <rect id="Rectangle_1200" data-name="Rectangle 1200" width="107.237" height="1.079" transform="translate(32.09 41.615)" fill="#c7c7c7"/>
    <rect id="Rectangle_1201" data-name="Rectangle 1201" width="107.237" height="5.025" transform="translate(32.09 50.653)" fill="#dfdfde"/>
    <rect id="Rectangle_1202" data-name="Rectangle 1202" width="107.237" height="5.025" transform="translate(32.09 57.929)" fill="#dfdfde"/>
    <rect id="Rectangle_1203" data-name="Rectangle 1203" width="107.237" height="5.025" transform="translate(32.09 65.205)" fill="#dfdfde"/>
    <rect id="Rectangle_1204" data-name="Rectangle 1204" width="41.077" height="5.025" transform="translate(32.09 72.481)" fill="#dfdfde"/>
    <rect id="Rectangle_1205" data-name="Rectangle 1205" width="107.237" height="5.025" transform="translate(32.09 87.033)" fill="#dfdfde"/>
    <rect id="Rectangle_1206" data-name="Rectangle 1206" width="107.237" height="5.025" transform="translate(32.09 94.309)" fill="#dfdfde"/>
    <rect id="Rectangle_1207" data-name="Rectangle 1207" width="85.377" height="5.025" transform="translate(32.09 101.586)" fill="#dfdfde"/>
    <rect id="Rectangle_1208" data-name="Rectangle 1208" width="107.237" height="5.025" transform="translate(32.09 115.849)" fill="#dfdfde"/>
    <rect id="Rectangle_1209" data-name="Rectangle 1209" width="107.237" height="5.025" transform="translate(32.09 123.126)" fill="#dfdfde"/>
    <rect id="Rectangle_1210" data-name="Rectangle 1210" width="107.237" height="5.025" transform="translate(32.106 130.402)" fill="#dfdfde"/>
    <path id="Path_15250" data-name="Path 15250" d="M1863.993,1562.283l-6.407,5.025H1826.22l-6.435-5.025Z" transform="translate(-1756.897 -1397.96)" fill="#dfdfde"/>
    <path id="Path_15251" data-name="Path 15251" d="M1908.9,1611.871l-6.407,5.025h-12.772l-6.435-5.025Z" transform="translate(-1811.076 -1440.272)" fill="#dfdfde"/>
    <path id="Path_15252" data-name="Path 15252" d="M1727.882,1411.993l-6.408,5.025h-87.726l-6.435-5.025Z" transform="translate(-1592.667 -1269.724)" fill="#dfdfde"/>
    <path id="Path_15253" data-name="Path 15253" d="M1772.791,1461.581l-6.407,5.025h-69.131l-6.435-5.025Z" transform="translate(-1646.855 -1312.035)" fill="#dfdfde"/>
    <path id="Path_15254" data-name="Path 15254" d="M1817.7,1511.169l-6.407,5.025H1760.76l-6.436-5.025Z" transform="translate(-1701.042 -1354.347)" fill="#dfdfde"/>
    <g id="Group_10739" data-name="Group 10739" transform="translate(83.319 138.86)">
      <path id="Path_15255" data-name="Path 15255" d="M2016.279,1423.608l12.068-6.036a2.422,2.422,0,0,0-.492-4.515l-55.568-13.98a2.422,2.422,0,0,0-2.9,3.1l17.672,54.506a2.422,2.422,0,0,0,4.538.189l5.213-12.446a2.422,2.422,0,0,1,3.888-.833l23.291,21.779a2.422,2.422,0,0,0,3.423-.115l5.848-6.253,5.848-6.254a2.422,2.422,0,0,0-.115-3.423l-23.291-21.779A2.422,2.422,0,0,1,2016.279,1423.608Z" transform="translate(-1967.766 -1397.498)" fill="#ea464d"/>
      <g id="Group_10738" data-name="Group 10738">
        <path id="Path_15256" data-name="Path 15256" d="M2016.9,1458.781a3.9,3.9,0,0,1-2.677-1.058l-23.291-21.779a.92.92,0,0,0-1.478.317l-5.213,12.446a3.924,3.924,0,0,1-7.352-.306l-17.672-54.507a3.924,3.924,0,0,1,4.69-5.015l55.568,13.98a3.924,3.924,0,0,1,.8,7.315l-12.069,6.035a.921.921,0,0,0-.217,1.5l23.29,21.779a3.924,3.924,0,0,1,.186,5.546l-11.7,12.507a3.9,3.9,0,0,1-2.734,1.242Zm-26.6-26.088a3.926,3.926,0,0,1,2.681,1.058l23.291,21.779a.92.92,0,0,0,1.3-.044l11.7-12.507a.921.921,0,0,0-.044-1.3l-23.291-21.779a3.924,3.924,0,0,1,.925-6.375h0l12.069-6.035a.921.921,0,0,0-.187-1.716l-55.568-13.98a.921.921,0,0,0-1.1,1.177l17.672,54.506a.921.921,0,0,0,1.725.072l5.213-12.446a3.923,3.923,0,0,1,3.619-2.408Z" transform="translate(-1959.021 -1388.757)" fill="#fff"/>
      </g>
    </g>
  </g>
  <g id="Group_10744" data-name="Group 10744" transform="translate(50.312 137.832)">
    <g id="Group_10741" data-name="Group 10741" transform="translate(0 35.31)">
      <path id="Path_15257" data-name="Path 15257" d="M834.344,2180.1s3.668,1.045,5.824-.67c0,0,3.325,3.486,6.888,3.749,0,0,.616.66,0,.792s-7.609.4-8.929-.572a4.614,4.614,0,0,1-3.783-.176C833.422,2182.648,834.344,2180.1,834.344,2180.1Z" transform="translate(-807.61 -2082.274)" fill="#171616"/>
      <path id="Path_15258" data-name="Path 15258" d="M691.256,2178.866s-3.574,1.018-5.673-.653c0,0-3.239,3.4-6.71,3.652,0,0-.6.643,0,.771s7.413.385,8.7-.557a4.5,4.5,0,0,0,3.685-.171C692.154,2181.352,691.256,2178.866,691.256,2178.866Z" transform="translate(-675.074 -2081.239)" fill="#171616"/>
      <path id="Path_15259" data-name="Path 15259" d="M725.565,1851.1l-1.983,48.252s3.975,1.86,6.068.427l1.3-20.249,4.136-18.4,6.976,18.072-1.983,20.8s4.934,1.041,6.39-.726l2.358-21.439a4.923,4.923,0,0,0-.1-1.666l-5.535-23.348S730.554,1854.958,725.565,1851.1Z" transform="translate(-713.45 -1802.126)" fill="#5b050d"/>
      <path id="Path_15260" data-name="Path 15260" d="M782.846,1609.281a3.454,3.454,0,0,0,2.127-.8l-.227,5.795h-5.509l-.726-6.8A5.66,5.66,0,0,0,782.846,1609.281Z" transform="translate(-760.32 -1594.245)" fill="#f0d8c2"/>
      <path id="Path_15261" data-name="Path 15261" d="M782.788,1581.769l-.157,4.009a2.86,2.86,0,0,1-2.288,1.039c-2.3,0-3.623-1.524-4.39-3.323l-.211-1.98Z" transform="translate(-757.957 -1572.097)" fill="#f3dfc3"/>
      <path id="Path_15262" data-name="Path 15262" d="M777.786,1544.621a2.859,2.859,0,0,1-2.289,1.039c-2.3,0-3.623-1.524-4.39-3.323a16.172,16.172,0,0,1-1.044-5.756l.95-.9,1.767-1.678,5.881-.722a32.625,32.625,0,0,1,.528,5.387C779.206,1540.911,778.908,1543.3,777.786,1544.621Z" transform="translate(-753.111 -1530.941)" fill="#f0d8c2"/>
      <path id="Path_15263" data-name="Path 15263" d="M783.86,1597.289l-.021.555a3.454,3.454,0,0,1-2.127.8,5.66,5.66,0,0,1-4.334-1.81l-.2-1.829c.766,1.8,2.093,3.323,4.39,3.323A2.859,2.859,0,0,0,783.86,1597.289Z" transform="translate(-759.185 -1583.609)" fill="#ddc1ac"/>
      <path id="Path_15264" data-name="Path 15264" d="M777.786,1558.574a2.86,2.86,0,0,1-2.289,1.039c-2.3,0-3.623-1.524-4.39-3.323a16.172,16.172,0,0,1-1.044-5.756l.95-.9,8.176,2.988C779.206,1554.864,778.908,1557.25,777.786,1558.574Z" transform="translate(-753.111 -1544.893)" fill="#f0d8c2"/>
      <path id="Path_15265" data-name="Path 15265" d="M762.985,1522.113s6.929,1.923,9.707-2.875c0,0-4.527-1.9-7.03-1.9s-3.94,2.7-3.94,2.7-3.439,2.083,1.305,9.309Z" transform="translate(-744.967 -1517.34)" fill="#2c2c2c"/>
      <ellipse id="Ellipse_532" data-name="Ellipse 532" cx="0.959" cy="1.559" rx="0.959" ry="1.559" transform="matrix(0.817, -0.576, 0.576, 0.817, 15.82, 7.072)" fill="#f0d8c2"/>
      <path id="Path_15266" data-name="Path 15266" d="M743.449,1624.944l-1.319,1.525-5.031,1.392v31.993s9.683,3.038,17.626,0v-31.834l-4.177-1.234-.91-1.456-3.138,3.006Z" transform="translate(-724.984 -1609.155)" fill="#f5711c"/>
      <path id="Path_15267" data-name="Path 15267" d="M868.678,1662.3l-3.439,2.7s-.892.637-1.529,0-6.492-9.011-6.492-9.011V1645.9s.91.563,3.319,4.525,4.934,7.945,4.934,7.945l1.22-.7A11.129,11.129,0,0,0,868.678,1662.3Z" transform="translate(-827.477 -1627.035)" fill="#f5711c"/>
      <path id="Path_15268" data-name="Path 15268" d="M666.651,1644.826v9.365s-6.687,5.035-6.806,8.642a4.355,4.355,0,0,0,.516,1.99,12.082,12.082,0,0,0-3.714,2.559l-.053-.069c-3.211-4.2-1.7-7.729-1.7-7.729C657.862,1652.447,666.651,1644.826,666.651,1644.826Z" transform="translate(-654.536 -1626.119)" fill="#f5711c"/>
      <path id="Path_15269" data-name="Path 15269" d="M936.15,1653.41s.5,3.023-1.089,4.61a7.3,7.3,0,0,1-2.386.6l-8.908,6.986a11.125,11.125,0,0,1-1.987-4.625l8.231-4.7s1.2-5.027,4.656-3.776c0,0,4.6-3.116,5.027-2.687S936.15,1653.41,936.15,1653.41Z" transform="translate(-882.567 -1630.345)" fill="#f0d8c2"/>
    </g>
    <path id="Path_15270" data-name="Path 15270" d="M775.516,1628.068l-2.181,2.106-1.947-3.7,1.319-1.525Z" transform="translate(-754.242 -1573.845)" fill="#dae4ee"/>
    <path id="Path_15271" data-name="Path 15271" d="M802.8,1630.347l1.9,2.3,1.909-3.616-.91-1.456Z" transform="translate(-781.043 -1576.086)" fill="#dae4ee"/>
    <g id="Group_10743" data-name="Group 10743" transform="translate(9.338)">
      <g id="Group_10742" data-name="Group 10742">
        <rect id="Rectangle_1211" data-name="Rectangle 1211" width="4.831" height="12.919" transform="matrix(0.624, 0.781, -0.781, 0.624, 50.523, 47.236)" fill="#f5711c"/>
        <path id="Path_15272" data-name="Path 15272" d="M1073.006,1288.318a30.883,30.883,0,1,0-4.867,43.4A30.882,30.882,0,0,0,1073.006,1288.318Zm-45.894,36.639a27.843,27.843,0,1,1,39.131,4.388A27.844,27.844,0,0,1,1027.111,1324.957Z" transform="translate(-973.994 -1276.702)" fill="#0f3551"/>
        <circle id="Ellipse_533" data-name="Ellipse 533" cx="27.843" cy="27.843" r="27.843" transform="translate(47.034 3.04)" fill="#8bd5f0" opacity="0.5"/>
        <path id="Path_15273" data-name="Path 15273" d="M762.607,1648.386l-39.167,31.268a2.493,2.493,0,0,1-3.493-.391l-1.234-1.545a2.493,2.493,0,0,1,.392-3.493l39.167-31.268a2.483,2.483,0,0,1,2.226-.446l3.037,3.8A2.483,2.483,0,0,1,762.607,1648.386Z" transform="translate(-718.174 -1588.753)" fill="#0f3551"/>
      </g>
      <rect id="Rectangle_1212" data-name="Rectangle 1212" width="49.128" height="6.948" transform="matrix(0.782, -0.624, 0.624, 0.782, 1.373, 85.12)" fill="#0f3551"/>
    </g>
    <path id="Path_15274" data-name="Path 15274" d="M681.273,1794.448c-2.023.4-3.726-2.61-3.726-2.61a51.544,51.544,0,0,1-8.629-8.177,12.084,12.084,0,0,1,3.714-2.559c1.659,3.418,6.738,7.405,6.738,7.405l2.577,1.229C684.524,1790.965,683.3,1794.045,681.273,1794.448Z" transform="translate(-666.808 -1707.088)" fill="#f0d8c2"/>
  </g>
  <g id="Group_10746" data-name="Group 10746" transform="translate(170.228 166.583)">
    <g id="Group_10745" data-name="Group 10745" transform="translate(0 0)">
      <ellipse id="Ellipse_534" data-name="Ellipse 534" cx="3.06" cy="2.095" rx="3.06" ry="2.095" transform="translate(40.774 5.671) rotate(-67.924)" fill="#e5ccb4"/>
      <path id="Path_15275" data-name="Path 15275" d="M1592.458,1573.708l-.255-3.157s2.52.153,2.953-.535,1.4-7.688-1.578-10.87-9.343,3.869-9.343,3.869l2.6,10.845Z" transform="translate(-1567.732 -1545.75)" fill="#e5ccb4"/>
      <path id="Path_15276" data-name="Path 15276" d="M1486.713,1554.774h17.946s-2.716-21.729.679-28.519c6.33-12.659,11.835-25.8,11.835-25.8l-3.783-1.358s-4.365,16.1-16.782,22.893c0,0-11.155.776-12.126,2.037s-13.1,16.2-12.708,18.043,14.551,9.8,14.551,9.8l1.358-3.589s-8.894-6.536-8.506-7.6,6.081-7.336,6.081-7.336Z" transform="translate(-1471.765 -1495.212)" fill="#395166"/>
      <path id="Path_15277" data-name="Path 15277" d="M1579.17,1878.554l3.977,44.04-3.977,1.164-9.021-36.862-6.887,36.862h-4.171l2.134-45.2Z" transform="translate(-1546.276 -1818.993)" fill="#002947"/>
      <path id="Path_15278" data-name="Path 15278" d="M1575.269,1556.153s.222,4.109,5.108,4.109,3.831-6.829,3.831-6.829,3.609-2.5,2.776-4.831-3.165,0-3.165,0S1574.048,1546.1,1575.269,1556.153Z" transform="translate(-1559.991 -1536.572)" fill="#1e1d1a"/>
      <path id="Path_15279" data-name="Path 15279" d="M1695.934,2179.85v3.014h11.851l-7.873-4.178Z" transform="translate(-1663.04 -2075.084)" fill="#131313"/>
      <path id="Path_15280" data-name="Path 15280" d="M1559.09,2186.492v3.014h11.851l-7.851-3.036Z" transform="translate(-1546.276 -2081.727)" fill="#131313"/>
    </g>
    <path id="Path_15281" data-name="Path 15281" d="M1628.484,1594.831c-.335.581-1.289.658-2.131.172s-1.252-1.351-.917-1.931,1.29-.658,2.131-.172S1628.819,1594.25,1628.484,1594.831Z" transform="translate(-1602.787 -1574.981)" fill="#e5ccb4"/>
  </g>
  <g id="Group_10748" data-name="Group 10748" transform="translate(383.01 172.538)">
    <path id="Path_15282" data-name="Path 15282" d="M2988.1,1807.947a5.143,5.143,0,0,1-3.87,1.843c-.962-2.035-2.046-4.4-2.952-6.58-.441-1.06-.841-2.074-1.163-2.981-.28-.785-.5-1.492-.644-2.079-1.13-4.658-1.482-21.381-1.482-21.381L2974.6,1794.2l.214,5.9.122,3.345.259,7.119a5.811,5.811,0,0,1-4.707.252c-.2-2.217-.433-4.81-.639-7.378-.069-.855-.134-1.708-.2-2.543-.272-3.683-.462-7.024-.415-8.746.142-5.151,3.387-20.746,3.683-25.262a32.093,32.093,0,0,0-.655-6.37l11.5.577c.276,3.183.427,5.439.427,5.439,4.446,9.244.353,23.921.071,28.3a13.29,13.29,0,0,0,.591,3.727c.234.887.527,1.854.857,2.861C2986.41,1803.538,2987.268,1805.835,2988.1,1807.947Z" transform="translate(-2962.281 -1724.232)" fill="#082953"/>
    <path id="Path_15283" data-name="Path 15283" d="M2942.056,1520.13s-1-6.909,7.86-6.909a5.879,5.879,0,0,1,5.658,6.158c0,5.958,1.051,9.112,3.805,11.015s3.8,7.61-4.056,6.659-7.277-.266-8.793.651c-3.446,2.085-2.488-.172-3.193-3.025-.226-.913-1.651-2.332-1.316-3.734s1.636-3.555,1.286-4.957S2941.86,1522.493,2942.056,1520.13Z" transform="translate(-2939.021 -1513.221)" fill="#1e1d1a"/>
    <g id="Group_10747" data-name="Group 10747" transform="translate(22.707 43.735)">
      <path id="Path_15284" data-name="Path 15284" d="M3081.039,1815.877l10.354-4.6a5.955,5.955,0,0,1,1.4,5.175l-10.333,4.941Z" transform="translate(-3080.39 -1811.272)" fill="#732b14"/>
      <ellipse id="Ellipse_535" data-name="Ellipse 535" cx="0.67" cy="2.845" rx="0.67" ry="2.845" transform="matrix(0.969, -0.249, 0.249, 0.969, 0, 4.771)" fill="#5b2710"/>
    </g>
    <path id="Path_15285" data-name="Path 15285" d="M2936.991,2110.474s-.706,2.047-5.433,4.305-7.48.353-7.48.353c4.657-2.188,8.468-7.2,8.468-7.2s-.26-2.574-.584-6.1a5.811,5.811,0,0,0,4.707-.252Z" transform="translate(-2923.753 -2015.247)" fill="#ffecce"/>
    <path id="Path_15286" data-name="Path 15286" d="M2958.6,1527.215c3.419-2.634,6.389-.4,7.73.376s1.077,11,1.694,12.349c.882,1.928,3.657,2.512,3.657,2.512,1.146,3.943,2.05,12.746,2.549,18.509l-11.5-.577c-.994-5.759-2.745-12.791-2.745-13.812,0-1.482,3.021-4.432,3.021-4.432l.247-4.72a4.151,4.151,0,0,1-2.674.344C2956.474,1534.1,2958.6,1527.215,2958.6,1527.215Z" transform="translate(-2952.739 -1524.097)" fill="#ffecce"/>
    <path id="Path_15287" data-name="Path 15287" d="M3073.774,2091.295c-1.906,8.962-7.833,8.89-7.833,8.89,2.682-2.822,3.317-9.455,3.317-9.455s-1.131-2.235-2.51-5.154a5.142,5.142,0,0,0,3.87-1.843C3072.245,2087.867,3073.774,2091.295,3073.774,2091.295Z" transform="translate(-3044.8 -2000.018)" fill="#ffecce"/>
    <path id="Path_15288" data-name="Path 15288" d="M2958.009,1520.8s1.822,5.009,6.2,3.592l3.727,5.488a8.986,8.986,0,0,0,.573-5.615C2967.7,1521.6,2964.889,1516.47,2958.009,1520.8Z" transform="translate(-2952.705 -1518.258)" fill="#1e1d1a"/>
    <path id="Path_15289" data-name="Path 15289" d="M2999.609,1551.86c-.463.8-1.258,1.209-1.775.911s-.562-1.191-.1-1.993,1.258-1.21,1.775-.911S3000.072,1551.058,2999.609,1551.86Z" transform="translate(-2986.329 -1544.406)" fill="#ffecce"/>
    <path id="Path_15290" data-name="Path 15290" d="M3035.18,1649.425s-2.3-5.409,3.4-5.712c0,0,7.662,12.12,7.966,12.9a54.935,54.935,0,0,1,2.024,13.221s1.147,2.631.911,3.642-1.7,3.619-3.3,3.811c-.911.109.236-3.946.236-3.946s-2.125,1.821-1.922,1.147,1.72-3.912,1.72-3.912-.978-10.894-2.395-12.647S3035.18,1649.425,3035.18,1649.425Z" transform="translate(-3018.161 -1624.565)" fill="#ffecce"/>
    <path id="Path_15291" data-name="Path 15291" d="M2944.9,1665.635s-1.687,2.057-.3,9.578,1.484,8.466,1.282,9.511-2.8,9.241-2.8,9.241-4.317,4.823-.708,6.475,3.587-5.767,3.587-5.767,3.394-9.106,3.327-10.219-1.012-15.413-2.057-16.526S2944.9,1665.635,2944.9,1665.635Z" transform="translate(-2938.133 -1643.27)" fill="#ffecce"/>
    <path id="Path_15292" data-name="Path 15292" d="M2962.967,1623.63s-.866,3.784.971,3.388,4.071-5.548,4.071-5.548.937,1.765,4.143,2.414a5.869,5.869,0,0,1,2.18,2.764,8.012,8.012,0,0,0-3.946,4.873l3.854,3.35s2.089,8.069,1.621,10.158-6.111,6.592-12.476,3.134c0,0-.889-.612-.925-2.629s-3.17-9.186-3.386-13.544l-1.065-1.009s.2-3.35,2-4.9S2962.967,1623.63,2962.967,1623.63Z" transform="translate(-2952.705 -1605.586)" fill="#6f1760"/>
    <path id="Path_15293" data-name="Path 15293" d="M3066.907,2136.5s2.735,2.141,5.429-5.631l1.7,3.819-.615.4-1.29-1.266s-2.719,8.014-7.006,6.9c0,0-1.012-.357-.258-1.31S3066.907,2136.5,3066.907,2136.5Z" transform="translate(-3043.646 -2040.238)" fill="#082953"/>
    <path id="Path_15294" data-name="Path 15294" d="M2925.737,2161s3.7,2.686,9.344-3.028a34.476,34.476,0,0,1-.329,5.718s-.695.337-.992.139l-.357-2.8s-6.53,4.843-10.5,3.454c0,0-2.461-.834.2-2.084S2925.737,2161,2925.737,2161Z" transform="translate(-2921.865 -2063.36)" fill="#082953"/>
  </g>
  <g id="Group_10753" data-name="Group 10753" transform="translate(383.651 187.547)">
    <g id="Group_10749" data-name="Group 10749" transform="translate(0 67.052)">
      <path id="Path_15295" data-name="Path 15295" d="M2979.407,2072.464s-2.737,3.427-5.985,3.044a2.006,2.006,0,0,0,1.842,2.3,21.655,21.655,0,0,0,5.243,0l2.89-4.093Z" transform="translate(-2966.482 -2072.464)" fill="#e5ccb4"/>
      <path id="Path_15296" data-name="Path 15296" d="M2933.171,2088.44s-5.448-.23-6.548-.819c0,0-1.074-.1.333,1.483s6.208,4.4,10.879,3.658l-.418,2.174.733.358,2.189-4.67A7.657,7.657,0,0,1,2933.171,2088.44Z" transform="translate(-2926.231 -2085.396)" fill="#7d0c15"/>
    </g>
    <g id="Group_10750" data-name="Group 10750" transform="translate(36.158)">
      <path id="Path_15297" data-name="Path 15297" d="M3173,1620.476s-1.823-3.9,2.861-4.815,6.959,2.451,7.66,5.077c0,0,5.646-1.488,6.215,5.471,0,0,11.074,4.158,1.007,13.875l-7.791-2.336-4.333-13.6-4.2-2.933Z" transform="translate(-3172.648 -1615.507)" fill="#995222"/>
      <path id="Path_15298" data-name="Path 15298" d="M3175.141,1626.158s-.992,6.089,2.38,10.519c0,0,2.447-.793,3.107,0a12.307,12.307,0,0,1,1.3,2.521s-.763.323-.752.415a3.256,3.256,0,0,0,.084.633l5.717-1.164s-2.711-4.983-3.041-8.289-1.322-6.149-4.3-5.719A19.577,19.577,0,0,0,3175.141,1626.158Z" transform="translate(-3174.659 -1623.633)" fill="#e5ccb4"/>
      <path id="Path_15299" data-name="Path 15299" d="M3203.959,1631.877s4.753,3.976,6.368,7.982l1.973-3.378-4.17-4.424-3.872-2Z" transform="translate(-3199.365 -1627.919)" fill="#995222"/>
      <path id="Path_15300" data-name="Path 15300" d="M3175.932,1622.583s.5,5.541,9.469,6.878l-.352-5.8-2.393-2.287-2.612-.528-2.719.458Z" transform="translate(-3175.45 -1620.058)" fill="#995222"/>
    </g>
    <g id="Group_10751" data-name="Group 10751" transform="translate(46.122 39.723)">
      <path id="Path_15301" data-name="Path 15301" d="M3252.449,1910.959h-11.9v-1.632h11.882c.333-.009,6.688-.279,6.688-7.779a9.555,9.555,0,0,0-2.511-7.078,11.236,11.236,0,0,1-2.9-8.253h1.632a9.746,9.746,0,0,0,2.547,7.235,11.045,11.045,0,0,1,2.867,8.1c0,4.762-2.259,7.076-4.153,8.178a9.355,9.355,0,0,1-4.144,1.233Z" transform="translate(-3240.551 -1886.218)" fill="#262626"/>
    </g>
    <path id="Path_15302" data-name="Path 15302" d="M3142.427,2105.344s3.951,7.945,2.257,9.4c-1.774,1.524-4.9.426-4.9.426s.8-3.071-1.134-8.975Z" transform="translate(-3107.479 -2033.467)" fill="#e5ccb4"/>
    <path id="Path_15303" data-name="Path 15303" d="M3098.28,1910.672l-14.016,10.482s7.331,17.941,7.46,21.349c0,0,3.664-.257,5.594-1.736l-5.143-16.2,19.614-3.045-.709-8.079-4.244-3.28Z" transform="translate(-3061.075 -1866.922)" fill="#7f2d16"/>
    <path id="Path_15304" data-name="Path 15304" d="M3072.839,1845.794s-.689,1.112-3.435.756c0,0-2.418.3-3.189,1.063,0,0-.228-.01.32-.719s2.256-3.152,5.394-2.515l1.356.5Z" transform="translate(-3045.634 -1810.706)" fill="#e5ccb4"/>
    <path id="Path_15305" data-name="Path 15305" d="M3106.288,1815.667a1.766,1.766,0,0,1,.689,1.517s8.484,2.045,9.339,1.91,5.651-5.577,5.651-5.577l-3.833-2.948s-1.339,5.319-2.579,5.562S3106.288,1815.667,3106.288,1815.667Z" transform="translate(-3079.867 -1781.947)" fill="#7d0c15"/>
    <path id="Path_15306" data-name="Path 15306" d="M3186.035,1717.655s-.3,1.76,4.666-.674l3.694,5.927s-1.182,13.636-.657,16.338,1.838,8,1.838,8-13.525,1.619-15.757-.919l1.926-10.732-.263-10.321,1.532-4.683Z" transform="translate(-3142.61 -1702.091)" fill="#0b3954"/>
    <path id="Path_15307" data-name="Path 15307" d="M3180.4,1721.575s-4.2,3.92-3.72,16.251-2.8,12.943-2.8,12.943l-.656-.306s2.67-9.515,2.145-14.605S3174.228,1723.895,3180.4,1721.575Z" transform="translate(-3136.979 -1706.011)" fill="#ab1c1b"/>
    <path id="Path_15308" data-name="Path 15308" d="M3120.774,1855.968s-1.509,1.1-4.958-.835c0,0-3.368-.889-4.8-.3,0,0-.3-.135.808-.781s4.676-2.972,8.494-.448l1.529,1.392Z" transform="translate(-3083.875 -1817.689)" fill="#e5ccb4"/>
    <path id="Path_15309" data-name="Path 15309" d="M3044.86,1923.217l-30.068.5a.853.853,0,0,0-.763.5c-1.427,3.167-9.319,20.548-10.839,21.132l5.337,3.73,8.146-17.923s22.72,3.583,26.835,1.139C3048.756,1929.182,3044.86,1923.217,3044.86,1923.217Z" transform="translate(-2991.898 -1878.065)" fill="#8e3619"/>
    <path id="Path_15310" data-name="Path 15310" d="M3120.656,2158.77s-2.463,4.779-4.494,6.007c0,0-.425.709,1.275.283s8.475-4.771,8.475-4.771l1.194,2.347.582-.343-1.834-5.122S3125.427,2158.817,3120.656,2158.77Z" transform="translate(-3088.252 -2077.69)" fill="#7d0c15"/>
    <path id="Path_15311" data-name="Path 15311" d="M3215.2,1716.466s-5.659,2.193-5.659,14.657a135.856,135.856,0,0,1-1.07,19.193s8.245-4.639,12.941-1.937c0,0-2.44-6.27-1.726-11.827s2.587-14.117.084-16.758A12.664,12.664,0,0,0,3215.2,1716.466Z" transform="translate(-3167.055 -1701.651)" fill="#ab1c1b"/>
    <path id="Path_15312" data-name="Path 15312" d="M3189.831,1735.125s6.887,1.646-1.56,23.867c0,0-2.989,1.04-13.471-2.945a2.663,2.663,0,0,0-.173-2.556l9.183,1.3s3.422-6.194,1.732-15.94C3185.542,1738.85,3187.232,1735.212,3189.831,1735.125Z" transform="translate(-3138.178 -1717.573)" fill="#7d0c15"/>
    <g id="Group_10752" data-name="Group 10752" transform="translate(33.293 55.053)">
      <path id="Path_15313" data-name="Path 15313" d="M3219.786,2038.788c0,.949-1.993,2.209-4.375,2.209s-4.25-1.26-4.25-2.209,1.868-1.227,4.25-1.227S3219.786,2037.839,3219.786,2038.788Z" transform="translate(-3202.644 -2030.684)" fill="#262626"/>
      <path id="Path_15314" data-name="Path 15314" d="M3175.8,1997.341H3156.94a3.334,3.334,0,0,1-3.324-3.324h0a3.334,3.334,0,0,1,3.324-3.324H3175.8a3.334,3.334,0,0,1,3.324,3.324h0A3.334,3.334,0,0,1,3175.8,1997.341Z" transform="translate(-3153.543 -1990.693)" fill="#008fc1"/>
      <rect id="Rectangle_1213" data-name="Rectangle 1213" width="20.255" height="1.456" rx="0.728" transform="translate(2.95 6.648)" fill="#262626"/>
      <path id="Path_15315" data-name="Path 15315" d="M3234.554,2066.854v-.123a1.083,1.083,0,0,1-1.079-1.079v-13.706a1.083,1.083,0,0,1,1.079-1.079h0a1.083,1.083,0,0,1,1.079,1.079v13.706A1.2,1.2,0,0,1,3234.554,2066.854Z" transform="translate(-3221.684 -2042.036)" fill="#262626"/>
      <path id="Path_15316" data-name="Path 15316" d="M3245.5,2153.693l-8.448-4.877a1.018,1.018,0,0,1-.371-1.386h0a1.018,1.018,0,0,1,1.386-.371l8.448,4.877a1.018,1.018,0,0,1,.372,1.386h0A1.017,1.017,0,0,1,3245.5,2153.693Z" transform="translate(-3224.306 -2123.999)" fill="#262626"/>
      <path id="Path_15317" data-name="Path 15317" d="M3175.086,2153.693l8.448-4.877a1.017,1.017,0,0,0,.371-1.386h0a1.017,1.017,0,0,0-1.386-.371l-8.448,4.877a1.018,1.018,0,0,0-.372,1.386h0A1.017,1.017,0,0,0,3175.086,2153.693Z" transform="translate(-3170.564 -2123.999)" fill="#262626"/>
      <circle id="Ellipse_536" data-name="Ellipse 536" cx="2.897" cy="2.897" r="2.897" transform="translate(18.985 29.612) rotate(-45)" fill="#262626"/>
      <circle id="Ellipse_537" data-name="Ellipse 537" cx="1.638" cy="1.638" r="1.638" transform="translate(21.444 27.974)" fill="#4d4e4e"/>
      <circle id="Ellipse_538" data-name="Ellipse 538" cx="2.897" cy="2.897" r="2.897" transform="translate(0 32.007) rotate(-80.783)" fill="#262626"/>
      <circle id="Ellipse_539" data-name="Ellipse 539" cx="1.638" cy="1.638" r="1.638" transform="translate(1.686 27.974)" fill="#4d4e4e"/>
    </g>
    <path id="Path_15318" data-name="Path 15318" d="M3322.785,1799.753c-.79,2.363-2.711,9.418-.084,15.842a.623.623,0,0,1-.577.858h-7.146a.621.621,0,0,1-.533-.3c-.634-1.058-2.337-5.2.1-16.727a.624.624,0,0,1,.61-.5h7.034A.623.623,0,0,1,3322.785,1799.753Z" transform="translate(-3256.482 -1772.016)" fill="#007596"/>
    <path id="Path_15319" data-name="Path 15319" d="M3312.857,1799.887c-.808,2.467-2.591,9.294-.1,15.561a.731.731,0,0,1-.676,1.005h-6.926a.725.725,0,0,1-.631-.363c-.658-1.15-2.247-5.331.123-16.579a.731.731,0,0,1,.715-.58h6.8A.729.729,0,0,1,3312.857,1799.887Z" transform="translate(-3248.048 -1772.016)" fill="#008fc1"/>
  </g>
  <g id="Group_10754" data-name="Group 10754" transform="translate(303.218 225.118)">
    <rect id="Rectangle_1214" data-name="Rectangle 1214" width="114.305" height="1.991" fill="#8d561b"/>
    <rect id="Rectangle_1215" data-name="Rectangle 1215" width="114.305" height="0.995" transform="translate(0 0.995)" fill="#6c4213"/>
    <rect id="Rectangle_1216" data-name="Rectangle 1216" width="1.581" height="47.87" transform="translate(10.8 1.991)" fill="#774719"/>
    <rect id="Rectangle_1217" data-name="Rectangle 1217" width="1.581" height="47.87" transform="translate(100.756 1.991)" fill="#774719"/>
  </g>
  <g id="Group_10757" data-name="Group 10757" transform="translate(331.096 187.808)">
    <path id="Path_15320" data-name="Path 15320" d="M2627.99,1768.415s.171-4.374-1.033-5.116c-2.425-1.494-4.979.084-2.339,5.116Z" transform="translate(-2615.367 -1741.414)" fill="#e5ccb4"/>
    <path id="Path_15321" data-name="Path 15321" d="M2579.855,2175.572l.952,4.4a.411.411,0,0,1-.4.5h-11.922a.411.411,0,0,1-.166-.787c1.93-.847,6.643-2.3,7.656-3.959a.41.41,0,0,1,.314-.2l3.13-.281A.411.411,0,0,1,2579.855,2175.572Z" transform="translate(-2568.071 -2093.375)" fill="#121212"/>
    <path id="Path_15322" data-name="Path 15322" d="M2677.01,2143.462l2.962,3.395a.411.411,0,0,1-.111.63l-10.437,5.763a.411.411,0,0,1-.526-.609c1.279-1.675,4.7-5.224,4.788-7.166a.41.41,0,0,1,.18-.324l2.6-1.76A.411.411,0,0,1,2677.01,2143.462Z" transform="translate(-2654.028 -2066.134)" fill="#121212"/>
    <path id="Path_15323" data-name="Path 15323" d="M2664.138,1952.975s.457,11.261-27.378,14.586l8,14.487-6.213,2.55-8.812-18.6-.541-3.847Z" transform="translate(-2620.223 -1903.718)" fill="#052a3c"/>
    <path id="Path_15324" data-name="Path 15324" d="M2621.729,1942.84l-19.473,5.625a4.641,4.641,0,0,0-3.322,4.993l2.792,24.089s3.46,1.11,5.3-.526l-1.838-21.433s31.752,4.005,33.208-11.545Z" transform="translate(-2594.379 -1895.07)" fill="#0b3954"/>
    <path id="Path_15325" data-name="Path 15325" d="M2735.673,1635.194s-1.646,7.23,1.753,9.95a4.317,4.317,0,0,0,2.347-.43l.731,3.436,5.548-.43-1.36-11.166-2.684-3.794h-4.08Z" transform="translate(-2710.739 -1630.49)" fill="#e5ccb4"/>
    <path id="Path_15326" data-name="Path 15326" d="M2732.818,1623.641s-1.718-1.933,0-3.543c0,0-.394-3.758,5.834-2.577,0,0,3.078-.429,4.223,1.718,0,0,3.329,4.939,0,11.489,0,0-6.084,1.181-6.693-3.615,0,0,.072-2.606-1.646-3.039A1.593,1.593,0,0,1,2732.818,1623.641Z" transform="translate(-2707.992 -1617.292)" fill="#693514"/>
    <g id="Group_10755" data-name="Group 10755" transform="translate(20.867 58.491)">
      <path id="Path_15327" data-name="Path 15327" d="M2770.313,2059.542c0,.861-1.809,2-3.97,2s-3.856-1.143-3.856-2,1.7-1.113,3.856-1.113S2770.313,2058.681,2770.313,2059.542Z" transform="translate(-2754.826 -2052.189)" fill="#262626"/>
      <rect id="Rectangle_1218" data-name="Rectangle 1218" width="23.148" height="6.032" rx="3.016" fill="#008fc1"/>
      <rect id="Rectangle_1219" data-name="Rectangle 1219" width="18.378" height="1.321" rx="0.661" transform="translate(2.61 6.032)" fill="#262626"/>
      <path id="Path_15328" data-name="Path 15328" d="M2783.712,2084.094h0a.982.982,0,0,1-.979-.979v-11.635a.982.982,0,0,1,.979-.979h0a.982.982,0,0,1,.979.979v11.635A.983.983,0,0,1,2783.712,2084.094Z" transform="translate(-2772.101 -2062.489)" fill="#262626"/>
      <path id="Path_15329" data-name="Path 15329" d="M2793.645,2157.742l-7.665-4.426a.923.923,0,0,1-.337-1.258h0a.923.923,0,0,1,1.258-.337l7.665,4.425a.924.924,0,0,1,.337,1.258h0A.924.924,0,0,1,2793.645,2157.742Z" transform="translate(-2774.479 -2131.688)" fill="#262626"/>
      <path id="Path_15330" data-name="Path 15330" d="M2729.755,2157.742l7.665-4.426a.923.923,0,0,0,.337-1.258h0a.923.923,0,0,0-1.258-.337l-7.665,4.425a.924.924,0,0,0-.337,1.258h0A.924.924,0,0,0,2729.755,2157.742Z" transform="translate(-2725.719 -2131.688)" fill="#262626"/>
      <circle id="Ellipse_540" data-name="Ellipse 540" cx="2.628" cy="2.628" r="2.628" transform="matrix(0.16, -0.987, 0.987, 0.16, 17.861, 28.152)" fill="#262626"/>
      <circle id="Ellipse_541" data-name="Ellipse 541" cx="1.486" cy="1.486" r="1.486" transform="translate(19.148 27.143) rotate(-76.717)" fill="#4d4e4e"/>
      <circle id="Ellipse_542" data-name="Ellipse 542" cx="2.628" cy="2.628" r="2.628" transform="matrix(0.16, -0.987, 0.987, 0.16, 0.012, 28.231)" fill="#262626"/>
      <circle id="Ellipse_543" data-name="Ellipse 543" cx="1.486" cy="1.486" r="1.486" transform="translate(1.086 25.253) rotate(-22.5)" fill="#4d4e4e"/>
    </g>
    <path id="Path_15331" data-name="Path 15331" d="M2731.846,1724.854l.25-1.47a13.311,13.311,0,0,1,7.8-.821l.625,1.489s11.808.7,6.746,32.083c0,0-9.212,4.96-18.02-1.316,0,0-2.227-22.566-2.632-27.48Z" transform="translate(-2703.347 -1706.878)" fill="#f5711c"/>
    <path id="Path_15332" data-name="Path 15332" d="M2679.667,1756.729s-9.794,14.216-7.806,18.727c0,0,1.118,2.141,3.77.917S2686.174,1763.232,2679.667,1756.729Z" transform="translate(-2656.404 -1736.268)" fill="#f5711c"/>
    <rect id="Rectangle_1220" data-name="Rectangle 1220" width="18.119" height="18.119" rx="9.059" transform="translate(30.758 23.481)" fill="#008fc1"/>
    <rect id="Rectangle_1221" data-name="Rectangle 1221" width="18.119" height="18.119" rx="9.059" transform="translate(31.499 23.481)" fill="#007596"/>
    <circle id="Ellipse_544" data-name="Ellipse 544" cx="3.974" cy="3.974" r="3.974" transform="translate(36.316 35.582) rotate(-73.155)" fill="#262626"/>
    <g id="Group_10756" data-name="Group 10756" transform="translate(32.078 32.93)">
      <path id="Path_15333" data-name="Path 15333" d="M2787.4,1875.3l-.711-1.361.355.68-.362-.676c.021-.012,2.113-1.2,4.189-5.722,1.932-4.21,4.237-12.228,4.237-26.516h1.535C2796.644,1870.145,2787.778,1875.1,2787.4,1875.3Z" transform="translate(-2786.683 -1841.706)" fill="#262626"/>
    </g>
    <path id="Path_15334" data-name="Path 15334" d="M2637.681,1805.289l-6.856-13.065a2.454,2.454,0,0,1,2.989-1.184l8.669,9.341Z" transform="translate(-2621.617 -1765.389)" fill="#f5711c"/>
  </g>
</svg>
